<svg width="36" height="36" viewBox="0 0 36 36" fill="none" xmlns="http://www.w3.org/2000/svg">
<g clip-path="url(#clip0_240_625)">
<path d="M17.3496 34.9233L17.3501 34.9238C17.795 35.3602 18.2695 35.5252 18.7132 35.4991C19.1632 35.4727 19.6455 35.2455 20.0849 34.7771C24.6528 29.9029 29.7797 20.8131 30.8088 13.1997C31.323 9.39569 30.8021 6.06231 28.804 3.78309C26.8142 1.51327 23.2434 0.158939 17.352 0.574507L17.3496 34.9233ZM17.3496 34.9233C13.2105 30.8742 7.40281 22.5724 5.5817 15.1213M17.3496 34.9233L5.5817 15.1213M5.5817 15.1213C4.67168 11.3979 4.77953 7.98284 6.46861 5.41037M5.5817 15.1213L6.46861 5.41037M6.46861 5.41037C8.14856 2.85181 11.485 0.989799 17.3518 0.574515L6.46861 5.41037Z" fill="#FCFCFF" stroke="#EE444F"/>
<path d="M13.6244 22.3239C13.4492 22.3104 13.3145 22.169 13.3145 21.9938V18.1465V14.0028C13.3145 13.7871 13.3751 13.5783 13.4829 13.3964C13.9006 12.6956 14.9854 10.8764 15.4638 10.2229C15.9355 9.57603 17.283 8.03307 17.8625 7.38625C18.004 7.23128 18.2465 7.23801 18.3745 7.39972C18.9405 8.12066 20.3218 9.8927 20.8136 10.6136C21.2044 11.1796 22.1073 12.6619 22.5048 13.3155C22.6328 13.5244 22.7002 13.7669 22.7002 14.0095V17.3582V22.0005C22.7002 22.1757 22.5654 22.3239 22.3903 22.3307C21.5211 22.3913 19.0618 22.5463 18.1252 22.5463C17.1348 22.5463 14.5273 22.3778 13.6244 22.3239Z" stroke="#EE444F" stroke-miterlimit="10" stroke-linecap="round" stroke-linejoin="round"/>
<path d="M18.1184 7.07633V3.68048" stroke="#EE444F" stroke-miterlimit="10" stroke-linecap="round" stroke-linejoin="round"/>
<path d="M16.9192 5.0415H19.4391" stroke="#EE444F" stroke-miterlimit="10" stroke-linecap="round" stroke-linejoin="round"/>
<path d="M18.004 12.0892C18.7384 12.0151 19.3583 12.8506 19.2437 13.6726C19.1292 14.4946 17.694 14.8383 17.1887 14.4138C16.6834 13.9893 16.8383 12.2038 18.004 12.0892Z" stroke="#EE444F" stroke-miterlimit="10" stroke-linecap="round" stroke-linejoin="round"/>
</g>
<defs>
<clipPath id="clip0_240_625">
<rect width="36" height="36" fill="white"/>
</clipPath>
</defs>
</svg>
