<svg width="48" height="48" viewBox="0 0 48 48" fill="none" xmlns="http://www.w3.org/2000/svg">
<path d="M25.0949 47.4637C24.7118 48.1855 23.6782 48.1676 23.3129 47.437C22.11 45.0312 19.9358 40.7899 18.626 38.9098C15.0173 33.7329 9.45728 29.3757 7.497 22.8801C4.38729 12.553 5.61692 1.27252 22.4307 0.0874481C39.2089 -1.09763 43.7888 9.9601 41.1157 21.2406C39.5208 27.9679 33.9964 32.8062 30.3698 38.197C28.9175 40.3533 26.4315 44.951 25.0949 47.4637Z" fill="#EE444F"/>
<path d="M17.9665 28.7431C17.7348 28.7253 17.5566 28.5382 17.5566 28.3065V23.2187V17.7299C17.5566 17.4448 17.6368 17.1686 17.7794 16.928C18.3318 16.0013 19.7664 13.5955 20.399 12.7312C21.0228 11.8758 22.8048 9.83535 23.5711 8.97996C23.7582 8.77502 24.079 8.78393 24.2483 8.99778C24.9968 9.95119 26.8234 12.2946 27.4738 13.248C27.9906 13.9965 29.1846 15.9568 29.7103 16.8211C29.8796 17.0973 29.9687 17.4181 29.9687 17.7388V22.1673V28.3065C29.9687 28.5382 29.7905 28.7342 29.5589 28.7431C28.4094 28.8233 25.1572 29.0282 23.9186 29.0282C22.6088 29.0282 19.1605 28.8144 17.9665 28.7431Z" stroke="#FCFCFF" stroke-width="1.2" stroke-miterlimit="10" stroke-linecap="round" stroke-linejoin="round"/>
<path d="M23.9097 8.57901V4.0882" stroke="#FCFCFF" stroke-width="1.2" stroke-miterlimit="10" stroke-linecap="round" stroke-linejoin="round"/>
<path d="M22.3237 5.88806H25.6562" stroke="#FCFCFF" stroke-width="1.2" stroke-miterlimit="10" stroke-linecap="round" stroke-linejoin="round"/>
<path d="M23.7582 15.2083C24.7294 15.1103 25.5492 16.2152 25.3977 17.3022C25.2462 18.3893 23.3483 18.8437 22.68 18.2824C22.0207 17.721 22.2256 15.3598 23.7582 15.2083Z" stroke="#FCFCFF" stroke-width="1.2" stroke-miterlimit="10" stroke-linecap="round" stroke-linejoin="round"/>
</svg>
