<svg width="36" height="36" viewBox="0 0 36 36" fill="none" xmlns="http://www.w3.org/2000/svg">
<path d="M16.8352 34.9233L16.8357 34.9238C17.2806 35.3602 17.7551 35.5252 18.1988 35.4991C18.6488 35.4727 19.1311 35.2455 19.5705 34.7771C24.1384 29.9029 29.2653 20.8131 30.2944 13.1997C30.8086 9.39569 30.2877 6.06231 28.2896 3.78309C26.2998 1.51327 22.729 0.158939 16.8376 0.574507L16.8352 34.9233ZM16.8352 34.9233C12.6961 30.8742 6.8884 22.5724 5.06729 15.1213M16.8352 34.9233L5.06729 15.1213M5.06729 15.1213C4.15728 11.3979 4.26513 7.98284 5.95421 5.41037M5.06729 15.1213L5.95421 5.41037M5.95421 5.41037C7.63415 2.85181 10.9706 0.989799 16.8374 0.574515L5.95421 5.41037Z" stroke="#475FDC"/>
<path d="M17.9636 6.23272L19.3976 10.2894C19.4609 10.4745 19.651 10.5962 19.864 10.5962H24.5115C24.9837 10.5962 25.1795 11.1515 24.7994 11.4054L21.0388 13.9124C20.8661 14.0288 20.797 14.2298 20.8603 14.4149L22.2943 18.4716C22.4383 18.8841 21.9257 19.2279 21.5456 18.974L17.7851 16.467C17.6123 16.3507 17.3819 16.3507 17.2092 16.467L13.4544 18.9846C13.0743 19.2385 12.556 18.8947 12.7057 18.4822L14.1397 14.4255C14.203 14.2403 14.1339 14.0394 13.9612 13.923L10.2006 11.416C9.8205 11.1621 10.0163 10.6068 10.4885 10.6068H15.136C15.349 10.6068 15.5333 10.4798 15.6024 10.3L17.0364 6.2433C17.1804 5.82547 17.8139 5.82547 17.9636 6.23272Z" stroke="#475FDC" stroke-miterlimit="10" stroke-linecap="round" stroke-linejoin="round"/>
</svg>
