<svg width="36" height="36" viewBox="0 0 36 36" fill="none" xmlns="http://www.w3.org/2000/svg">
<path d="M19.9353 35.119C18.9179 36.2038 17.5501 36.3251 16.4856 35.2807C8.11724 27.0943 -6.99562 1.7602 16.8023 0.0757547C40.681 -1.60869 29.1796 25.2549 19.9353 35.119Z" fill="#475FDC"/>
<path d="M17.9636 6.23272L19.3976 10.2894C19.4609 10.4745 19.651 10.5962 19.864 10.5962H24.5115C24.9837 10.5962 25.1795 11.1515 24.7994 11.4054L21.0388 13.9124C20.8661 14.0288 20.797 14.2298 20.8603 14.4149L22.2943 18.4716C22.4383 18.8841 21.9257 19.2279 21.5456 18.974L17.7851 16.467C17.6123 16.3507 17.3819 16.3507 17.2092 16.467L13.4544 18.9846C13.0743 19.2385 12.556 18.8947 12.7057 18.4822L14.1397 14.4255C14.203 14.2403 14.1339 14.0394 13.9612 13.923L10.2006 11.416C9.8205 11.1621 10.0163 10.6068 10.4885 10.6068H15.136C15.349 10.6068 15.5333 10.4798 15.6024 10.3L17.0364 6.2433C17.1804 5.82547 17.8139 5.82547 17.9636 6.23272Z" stroke="#FCFCFF" stroke-miterlimit="10" stroke-linecap="round" stroke-linejoin="round"/>
</svg>
