<svg width="48" height="48" viewBox="0 0 48 48" fill="none" xmlns="http://www.w3.org/2000/svg">
<path d="M24.9467 47.4637C24.5636 48.1855 23.53 48.1676 23.1647 47.437C21.9618 45.0312 19.7876 40.7899 18.4778 38.9098C14.8691 33.7329 9.30908 29.3757 7.34881 22.8801C4.2391 12.553 5.46873 1.27252 22.2825 0.0874481C39.0607 -1.09763 43.6406 9.9601 40.9675 21.2406C39.3726 27.9679 33.8482 32.8062 30.2217 38.197C28.7693 40.3533 26.2833 44.951 24.9467 47.4637Z" fill="#475FDC"/>
<path d="M24.5563 9.37025L26.2771 14.3088C26.3531 14.5342 26.5811 14.6823 26.8368 14.6823H32.4138C32.9804 14.6823 33.2154 15.3584 32.7593 15.6674L28.2466 18.7194C28.0393 18.8611 27.9564 19.1058 28.0324 19.3311L29.7531 24.2697C29.9259 24.7719 29.3109 25.1905 28.8548 24.8814L24.3421 21.8294C24.1348 21.6877 23.8583 21.6877 23.651 21.8294L19.1452 24.8943C18.6891 25.2034 18.0672 24.7848 18.2469 24.2826L19.9676 19.344C20.0436 19.1186 19.9607 18.874 19.7534 18.7323L15.2407 15.6803C14.7846 15.3712 15.0196 14.6952 15.5862 14.6952H21.1632C21.4189 14.6952 21.64 14.5406 21.7229 14.3217L23.4437 9.38313C23.6165 8.87446 24.3766 8.87446 24.5563 9.37025Z" stroke="#FCFCFF" stroke-width="1.2" stroke-miterlimit="10" stroke-linecap="round" stroke-linejoin="round"/>
</svg>
