<svg width="36" height="36" viewBox="0 0 36 36" fill="none" xmlns="http://www.w3.org/2000/svg">
<g clip-path="url(#clip0_240_649)">
<path d="M17.3496 34.9233L17.3501 34.9238C17.795 35.3602 18.2695 35.5252 18.7132 35.4991C19.1632 35.4727 19.6455 35.2455 20.0849 34.7771C24.6528 29.9029 29.7797 20.8131 30.8088 13.1997C31.323 9.39569 30.8021 6.06231 28.804 3.78309C26.8142 1.51327 23.2434 0.158939 17.352 0.574507L17.3496 34.9233ZM17.3496 34.9233C13.2105 30.8742 7.40281 22.5724 5.5817 15.1213M17.3496 34.9233L5.5817 15.1213M5.5817 15.1213C4.67168 11.3979 4.77953 7.98284 6.46861 5.41037M5.5817 15.1213L6.46861 5.41037M6.46861 5.41037C8.14856 2.85181 11.485 0.989799 17.3518 0.574515L6.46861 5.41037Z" fill="#FCFCFF" stroke="#F07F40"/>
<path d="M13.1459 21.3671H23.1919C23.1919 21.3671 23.7781 20.6395 23.7781 19.5547C23.7781 18.7529 23.3536 17.6344 23.3536 17.6344H13.1459C13.1459 17.6344 12.1285 18.5979 12.2363 19.7164C12.3441 20.8348 13.1459 21.3671 13.1459 21.3671Z" stroke="#F07F40" stroke-miterlimit="10" stroke-linecap="round" stroke-linejoin="round"/>
<path d="M13.1459 9.24586H23.1919C23.1919 9.24586 23.7781 8.23519 23.7781 7.43339C23.7781 6.6316 23.2997 5.51312 23.2997 5.51312H13.1459C13.1459 5.51312 12.1285 6.47663 12.2363 7.5951C12.3441 8.71357 13.1459 9.24586 13.1459 9.24586Z" stroke="#F07F40" stroke-miterlimit="10" stroke-linecap="round" stroke-linejoin="round"/>
<path d="M14.6282 17.5468C14.6282 17.5468 14.3923 14.5553 14.3923 13.4435C14.3923 12.3924 14.6349 9.25262 14.6349 9.25262" stroke="#F07F40" stroke-miterlimit="10" stroke-linecap="round" stroke-linejoin="round"/>
<path d="M21.4805 17.6277C21.4805 17.6277 21.7028 14.535 21.6961 13.4368C21.6893 12.4261 21.4805 9.24585 21.4805 9.24585" stroke="#F07F40" stroke-miterlimit="10" stroke-linecap="round" stroke-linejoin="round"/>
<path d="M16.9865 11.1324C16.9865 11.1324 16.5957 12.8775 16.6631 13.5715C16.7305 14.2655 16.8181 15.1886 16.8181 15.1886" stroke="#F07F40" stroke-miterlimit="10" stroke-linecap="round" stroke-linejoin="round"/>
<path d="M19.156 11.1324C19.156 11.1324 19.5468 12.3452 19.5131 13.1605C19.4794 13.9758 19.3379 15.0471 19.3379 15.0471" stroke="#F07F40" stroke-miterlimit="10" stroke-linecap="round" stroke-linejoin="round"/>
</g>
<defs>
<clipPath id="clip0_240_649">
<rect width="36" height="36" fill="white"/>
</clipPath>
</defs>
</svg>
