<svg width="48" height="48" viewBox="0 0 48 48" fill="none" xmlns="http://www.w3.org/2000/svg">
<path d="M25.0949 47.4637C24.7118 48.1855 23.6782 48.1676 23.3129 47.437C22.11 45.0312 19.9358 40.7899 18.626 38.9098C15.0173 33.7329 9.45728 29.3757 7.497 22.8801C4.38729 12.553 5.61692 1.27252 22.4307 0.0874481C39.2089 -1.09763 43.7888 9.9601 41.1157 21.2406C39.5208 27.9679 33.9964 32.8062 30.3698 38.197C28.9175 40.3533 26.4315 44.951 25.0949 47.4637Z" fill="#F07F40"/>
<path d="M17.3875 29.0282H31.0382C31.0382 29.0282 31.8401 28.0392 31.8401 26.5601C31.8401 25.473 31.2609 23.9493 31.2609 23.9493H17.3875C17.3875 23.9493 16.0064 25.2592 16.149 26.7828C16.3005 28.3065 17.3875 29.0282 17.3875 29.0282Z" stroke="#FCFCFF" stroke-width="1.2" stroke-miterlimit="10" stroke-linecap="round" stroke-linejoin="round"/>
<path d="M17.3875 12.553H31.0382C31.0382 12.553 31.8401 11.1719 31.8401 10.0849C31.8401 8.99779 31.1896 7.47412 31.1896 7.47412H17.3875C17.3875 7.47412 16.0064 8.78394 16.149 10.3076C16.2916 11.8313 17.3875 12.553 17.3875 12.553Z" stroke="#FCFCFF" stroke-width="1.2" stroke-miterlimit="10" stroke-linecap="round" stroke-linejoin="round"/>
<path d="M19.4013 23.8335C19.4013 23.8335 19.0806 19.7704 19.0806 18.2557C19.0806 16.83 19.4102 12.562 19.4102 12.562" stroke="#FCFCFF" stroke-width="1.2" stroke-miterlimit="10" stroke-linecap="round" stroke-linejoin="round"/>
<path d="M28.7126 23.9494C28.7126 23.9494 29.0067 19.7437 29.0067 18.2557C28.9978 16.8835 28.7126 12.562 28.7126 12.562" stroke="#FCFCFF" stroke-width="1.2" stroke-miterlimit="10" stroke-linecap="round" stroke-linejoin="round"/>
<path d="M22.6 15.1192C22.6 15.1192 22.0654 17.4983 22.1634 18.4338C22.2614 19.3694 22.3772 20.6347 22.3772 20.6347" stroke="#FCFCFF" stroke-width="1.2" stroke-miterlimit="10" stroke-linecap="round" stroke-linejoin="round"/>
<path d="M25.5583 15.1192C25.5583 15.1192 26.093 16.7676 26.0395 17.8725C25.995 18.9863 25.7989 20.4387 25.7989 20.4387" stroke="#FCFCFF" stroke-width="1.2" stroke-miterlimit="10" stroke-linecap="round" stroke-linejoin="round"/>
</svg>
