<svg width="36" height="36" viewBox="0 0 36 36" fill="none" xmlns="http://www.w3.org/2000/svg">
<g clip-path="url(#clip0_236_543)">
<path d="M20.4497 35.119C19.4323 36.2038 18.0646 36.3251 17 35.2807C8.63165 27.0943 -6.48121 1.7602 17.3167 0.0757547C41.1954 -1.60869 29.694 25.2549 20.4497 35.119Z" fill="#FF9A29"/>
<path d="M17.2492 4.20603C19.0415 3.99042 19.9915 5.08194 20.3014 6.38907C20.6114 7.68947 20.1128 9.77818 18.2464 10.014C16.38 10.2498 15.2548 8.087 15.3761 7.11002C15.5041 6.1263 15.6254 4.39469 17.2492 4.20603Z" stroke="#FCFCFF" stroke-miterlimit="10" stroke-linecap="round" stroke-linejoin="round"/>
<path d="M17.0674 9.82534C17.0674 9.82534 17.256 11.5906 16.3397 11.7591C15.4234 11.9275 13.1797 12.0084 13.1797 12.0084C13.1797 12.0084 13.2134 15.8759 15.1269 16.2465C17.0404 16.617 19.7423 16.9539 21.0359 16.2465C22.3229 15.539 22.8215 12.2981 22.8215 12.2981C22.8215 12.2981 20.3285 12.1701 19.9107 11.8399C19.493 11.5098 19.4121 9.50867 19.4121 9.50867" stroke="#FCFCFF" stroke-miterlimit="10" stroke-linecap="round" stroke-linejoin="round"/>
<path d="M15.8411 16.4688L16.2116 19.4941H19.8029L20.3689 16.6642" stroke="#FCFCFF" stroke-miterlimit="10" stroke-linecap="round" stroke-linejoin="round"/>
<path d="M14.5946 21.9871C14.5946 21.9871 14.3857 21.6973 14.3857 21.0707C14.3857 20.4441 14.5946 19.4941 14.5946 19.4941H20.6654C20.6654 19.4941 21.3324 20.4508 21.2044 21.0707C21.0764 21.6973 20.7462 21.9871 20.7462 21.9871C20.7462 21.9871 19.3043 22.4857 17.8018 22.5059C16.2993 22.5261 14.5946 21.9871 14.5946 21.9871Z" stroke="#FCFCFF" stroke-miterlimit="10" stroke-linecap="round" stroke-linejoin="round"/>
</g>
<defs>
<clipPath id="clip0_236_543">
<rect width="36" height="36" fill="white"/>
</clipPath>
</defs>
</svg>
