<svg width="36" height="36" viewBox="0 0 36 36" fill="none" xmlns="http://www.w3.org/2000/svg">
<g clip-path="url(#clip0_240_642)">
<path d="M17.2797 34.9948L17.2801 34.9952C17.7424 35.4487 18.2437 35.6269 18.7191 35.599C19.1995 35.5707 19.7046 35.3287 20.1579 34.8455C24.7366 29.9597 29.8754 20.8515 30.9079 13.2131C31.4239 9.39605 30.9047 6.02769 28.8792 3.71717C26.8603 1.41417 23.252 0.0580799 17.3449 0.474756L17.2797 34.9948ZM17.2797 34.9948C13.1316 30.9368 7.31135 22.6194 5.48456 15.145C4.57159 11.4096 4.67396 7.96143 6.38502 5.35548C8.08878 2.76067 11.4615 0.891213 17.3448 0.474763L17.3167 0.0757547C-6.48121 1.7602 8.63165 27.0943 17 35.2807L17.2797 34.9948Z" fill="#FCFCFF" stroke="#FF9A29" stroke-width="0.8"/>
<path d="M17.2492 4.20603C19.0415 3.99042 19.9915 5.08194 20.3014 6.38907C20.6114 7.68947 20.1128 9.77818 18.2464 10.014C16.38 10.2498 15.2548 8.087 15.3761 7.11002C15.5041 6.1263 15.6254 4.39469 17.2492 4.20603Z" stroke="#FF9A29" stroke-miterlimit="10" stroke-linecap="round" stroke-linejoin="round"/>
<path d="M17.0674 9.82534C17.0674 9.82534 17.256 11.5906 16.3397 11.7591C15.4234 11.9275 13.1797 12.0084 13.1797 12.0084C13.1797 12.0084 13.2134 15.8759 15.1269 16.2465C17.0404 16.617 19.7423 16.9539 21.0359 16.2465C22.3229 15.539 22.8215 12.2981 22.8215 12.2981C22.8215 12.2981 20.3285 12.1701 19.9107 11.8399C19.493 11.5098 19.4121 9.50867 19.4121 9.50867" stroke="#FF9A29" stroke-miterlimit="10" stroke-linecap="round" stroke-linejoin="round"/>
<path d="M15.8411 16.4688L16.2116 19.4941H19.8029L20.3689 16.6642" stroke="#FF9A29" stroke-miterlimit="10" stroke-linecap="round" stroke-linejoin="round"/>
<path d="M14.5946 21.9871C14.5946 21.9871 14.3857 21.6973 14.3857 21.0707C14.3857 20.4441 14.5946 19.4941 14.5946 19.4941H20.6654C20.6654 19.4941 21.3324 20.4508 21.2044 21.0707C21.0764 21.6973 20.7462 21.9871 20.7462 21.9871C20.7462 21.9871 19.3043 22.4857 17.8018 22.5059C16.2993 22.5261 14.5946 21.9871 14.5946 21.9871Z" stroke="#FF9A29" stroke-miterlimit="10" stroke-linecap="round" stroke-linejoin="round"/>
</g>
<defs>
<clipPath id="clip0_240_642">
<rect width="36" height="36" fill="white"/>
</clipPath>
</defs>
</svg>
