<svg width="48" height="48" viewBox="0 0 48 48" fill="none" xmlns="http://www.w3.org/2000/svg">
<path d="M25.0949 47.4637C24.7118 48.1855 23.6782 48.1676 23.3129 47.437C22.11 45.0312 19.9358 40.7899 18.626 38.9098C15.0173 33.7329 9.45728 29.3757 7.497 22.8801C4.38729 12.553 5.61692 1.27252 22.4307 0.0874481C39.2089 -1.09763 43.7888 9.9601 41.1157 21.2406C39.5208 27.9679 33.9964 32.8062 30.3698 38.197C28.9175 40.3533 26.4315 44.951 25.0949 47.4637Z" fill="#FF9A29"/>
<path d="M23.0099 5.7901C25.38 5.50497 26.6364 6.94844 27.0462 8.67705C27.4561 10.4057 26.7967 13.1589 24.3286 13.4708C21.8604 13.7827 20.3724 10.9225 20.5328 9.63045C20.6932 8.33845 20.8625 6.0485 23.0099 5.7901Z" stroke="#FCFCFF" stroke-width="1.2" stroke-miterlimit="10" stroke-linecap="round" stroke-linejoin="round"/>
<path d="M22.7692 13.2302C22.7692 13.2302 23.0187 15.5648 21.8069 15.7875C20.5951 16.0103 17.6279 16.1172 17.6279 16.1172C17.6279 16.1172 17.6725 21.2317 20.203 21.7218C22.7336 22.2119 26.3066 22.6574 28.0174 21.7218C29.7193 20.7862 30.3786 16.5003 30.3786 16.5003C30.3786 16.5003 27.0818 16.331 26.5294 15.8944C25.9769 15.4578 25.87 12.8115 25.87 12.8115" stroke="#FCFCFF" stroke-width="1.2" stroke-miterlimit="10" stroke-linecap="round" stroke-linejoin="round"/>
<path d="M21.1475 22.0158L21.6375 26.0076H26.3867L27.1352 22.2653" stroke="#FCFCFF" stroke-width="1.2" stroke-miterlimit="10" stroke-linecap="round" stroke-linejoin="round"/>
<path d="M19.4991 29.3045C19.4991 29.3045 19.2229 28.9213 19.2229 28.0926C19.2229 27.264 19.4991 26.0076 19.4991 26.0076H27.5273C27.5273 26.0076 28.4095 27.2729 28.2402 28.0926C28.0709 28.9213 27.6343 29.3045 27.6343 29.3045C27.6343 29.3045 25.7274 29.9638 23.7404 29.9906C21.7534 30.0173 19.4991 29.3045 19.4991 29.3045Z" stroke="#FCFCFF" stroke-width="1.2" stroke-miterlimit="10" stroke-linecap="round" stroke-linejoin="round"/>
</svg>
