<svg width="48" height="48" viewBox="0 0 48 48" fill="none" xmlns="http://www.w3.org/2000/svg">
<path d="M25.0949 47.4637C24.7118 48.1855 23.6782 48.1676 23.3129 47.437C22.11 45.0312 19.9358 40.7899 18.626 38.9098C15.0173 33.7329 9.45728 29.3757 7.497 22.8801C4.38729 12.553 5.61692 1.27252 22.4307 0.0874481C39.2089 -1.09763 43.7888 9.9601 41.1157 21.2406C39.5208 27.9679 33.9964 32.8062 30.3698 38.197C28.9175 40.3533 26.4315 44.951 25.0949 47.4637Z" fill="#DC4774"/>
<path d="M14.8657 12.9629C14.8657 12.9629 21.3168 12.7847 23.4642 12.7847C25.6116 12.7847 32.0627 12.9629 32.0627 12.9629C32.0627 12.9629 29.0777 10.3343 28.0085 9.49675C27.0283 8.73937 23.9008 6.58307 23.9008 6.58307C23.9008 6.58307 20.4792 8.70373 19.41 9.46111C18.2249 10.2987 14.8657 12.9629 14.8657 12.9629Z" stroke="#FCFCFF" stroke-width="1.2" stroke-miterlimit="10" stroke-linecap="round" stroke-linejoin="round"/>
<path d="M14.8658 25.9096C14.8658 25.9096 14.6965 26.8897 14.6965 27.2194C14.7054 27.4778 14.8658 28.2263 14.8658 28.2263C14.8658 28.2263 21.1476 28.5292 23.2415 28.5292C25.4513 28.5292 32.0628 28.2263 32.0628 28.2263C32.0628 28.2263 32.2321 27.2372 32.2321 26.9076C32.2232 26.6581 32.0628 25.9185 32.0628 25.9185H14.8658V25.9096Z" stroke="#FCFCFF" stroke-width="1.2" stroke-miterlimit="10" stroke-linecap="round" stroke-linejoin="round"/>
<path d="M18.1983 12.9629C18.1983 12.9629 17.9845 17.5963 17.9756 19.1378C17.9756 20.8307 18.1983 25.9096 18.1983 25.9096" stroke="#FCFCFF" stroke-width="1.2" stroke-miterlimit="10" stroke-linecap="round" stroke-linejoin="round"/>
<path d="M29.4075 12.9629C29.4075 12.9629 29.6213 17.5963 29.6302 19.1378C29.6302 20.8307 29.4075 25.9096 29.4075 25.9096" stroke="#FCFCFF" stroke-width="1.2" stroke-miterlimit="10" stroke-linecap="round" stroke-linejoin="round"/>
<path d="M26.3335 14.8073C26.3335 14.8073 26.5206 18.4873 26.5117 19.7347C26.5028 20.804 26.3335 24.0652 26.3335 24.0652" stroke="#FCFCFF" stroke-width="1.2" stroke-miterlimit="10" stroke-linecap="round" stroke-linejoin="round"/>
<path d="M21.4239 14.9499C21.4239 14.9499 21.2903 18.6566 21.2814 19.904C21.2725 20.9733 21.4239 24.2077 21.4239 24.2077" stroke="#FCFCFF" stroke-width="1.2" stroke-miterlimit="10" stroke-linecap="round" stroke-linejoin="round"/>
<path d="M23.9901 14.7806C23.9901 14.7806 23.7762 17.8368 23.7673 18.8615C23.7673 20.0288 23.9901 23.5127 23.9901 23.5127" stroke="#FCFCFF" stroke-width="1.2" stroke-miterlimit="10" stroke-linecap="round" stroke-linejoin="round"/>
</svg>
