<svg width="36" height="36" viewBox="0 0 36 36" fill="none" xmlns="http://www.w3.org/2000/svg">
<g clip-path="url(#clip0_236_526)">
<path d="M20.4497 35.119C19.4323 36.2038 18.0646 36.3251 17 35.2807C8.63165 27.0943 -6.48121 1.7602 17.3167 0.0757547C41.1954 -1.60869 29.694 25.2549 20.4497 35.119Z" fill="#DC4774"/>
<path d="M11.6636 9.36045C11.6636 9.36045 16.5417 9.22569 18.1655 9.22569C19.7893 9.22569 24.6675 9.36045 24.6675 9.36045C24.6675 9.36045 22.4103 7.3728 21.6018 6.73945C20.8607 6.16674 18.4957 4.53619 18.4957 4.53619C18.4957 4.53619 15.9084 6.13979 15.0998 6.7125C14.197 7.34585 11.6636 9.36045 11.6636 9.36045Z" stroke="#FCFCFF" stroke-miterlimit="10" stroke-linecap="round" stroke-linejoin="round"/>
<path d="M11.6637 19.1505C11.6637 19.1505 11.5356 19.8916 11.5356 20.1409C11.5424 20.3363 11.6637 20.9023 11.6637 20.9023C11.6637 20.9023 16.4138 21.1314 17.9972 21.1314C19.6682 21.1314 24.6676 20.9023 24.6676 20.9023C24.6676 20.9023 24.7956 20.1544 24.7956 19.9051C24.7889 19.7164 24.6676 19.1572 24.6676 19.1572H11.6637V19.1505Z" stroke="#FCFCFF" stroke-miterlimit="10" stroke-linecap="round" stroke-linejoin="round"/>
<path d="M14.1767 9.36047C14.1767 9.36047 14.015 12.8641 14.0083 14.0298C14.0083 15.3099 14.1767 19.1505 14.1767 19.1505" stroke="#FCFCFF" stroke-miterlimit="10" stroke-linecap="round" stroke-linejoin="round"/>
<path d="M22.6597 9.36047C22.6597 9.36047 22.8214 12.8641 22.8281 14.0298C22.8281 15.3099 22.6597 19.1505 22.6597 19.1505" stroke="#FCFCFF" stroke-miterlimit="10" stroke-linecap="round" stroke-linejoin="round"/>
<path d="M20.3284 10.7552C20.3284 10.7552 20.4699 13.5379 20.4631 14.4812C20.4564 15.2897 20.3284 17.7557 20.3284 17.7557" stroke="#FCFCFF" stroke-miterlimit="10" stroke-linecap="round" stroke-linejoin="round"/>
<path d="M16.6227 10.863C16.6227 10.863 16.5217 13.6659 16.5149 14.6092C16.5082 15.4177 16.6227 17.8635 16.6227 17.8635" stroke="#FCFCFF" stroke-miterlimit="10" stroke-linecap="round" stroke-linejoin="round"/>
<path d="M18.5564 10.735C18.5564 10.735 18.3947 13.046 18.3879 13.8209C18.3879 14.7035 18.5564 17.338 18.5564 17.338" stroke="#FCFCFF" stroke-miterlimit="10" stroke-linecap="round" stroke-linejoin="round"/>
</g>
<defs>
<clipPath id="clip0_236_526">
<rect width="36" height="36" fill="white"/>
</clipPath>
</defs>
</svg>
