<svg width="12" height="12" viewBox="0 0 12 12" fill="none" xmlns="http://www.w3.org/2000/svg">
<g clip-path="url(#clip0_243_725)">
<path d="M1.61304 0.885723C1.61304 0.885723 4.78225 0.632692 5.84498 0.632692C6.98995 0.626366 10.4059 0.885723 10.4059 0.885723C10.9119 0.885723 11.3231 1.2969 11.3231 1.80296V3.66907C11.3231 3.9221 11.2219 4.15615 11.0384 4.33327L9.46333 5.73759L7.86923 7.15457C7.70476 7.31271 7.60355 7.52779 7.58457 7.76184L7.40745 10.5768C7.37582 11.0576 6.9773 11.4371 6.49654 11.4371H5.28199C4.80756 11.4371 4.41536 11.0766 4.37108 10.6084L4.1054 7.87571C4.08642 7.64798 3.97888 7.43923 3.80808 7.28741L2.27092 5.88941L0.993112 4.71914C0.803339 4.54835 0.695801 4.30164 0.695801 4.04229V1.80296C0.695801 1.2969 1.10698 0.885723 1.61304 0.885723Z" stroke="black" stroke-width="1.2" stroke-miterlimit="10" stroke-linecap="round" stroke-linejoin="round"/>
</g>
<defs>
<clipPath id="clip0_243_725">
<rect width="12" height="12" fill="white"/>
</clipPath>
</defs>
</svg>
