<svg width="20" height="20" viewBox="0 0 20 20" fill="none" xmlns="http://www.w3.org/2000/svg">
<g clip-path="url(#clip0_213_349)">
<path d="M4.05069 19.6116H16.2607C16.2607 19.6116 16.9751 18.7268 16.9751 17.4104C16.9751 16.4394 16.4555 15.0798 16.4555 15.0798H4.05069C4.05069 15.0798 2.8167 16.2451 2.94659 17.6047C3.07648 18.9642 4.05069 19.6116 4.05069 19.6116Z" stroke="#FCFCFF" stroke-miterlimit="10" stroke-linecap="round" stroke-linejoin="round"/>
<path d="M4.05069 4.92015H16.2607C16.2607 4.92015 16.9751 3.69011 16.9751 2.71903C16.9751 1.74794 16.3949 0.388428 16.3949 0.388428H4.05069C4.05069 0.388428 2.8167 1.55373 2.94659 2.91324C3.07648 4.27276 4.05069 4.92015 4.05069 4.92015Z" stroke="#FCFCFF" stroke-miterlimit="10" stroke-linecap="round" stroke-linejoin="round"/>
<path d="M5.85187 14.9763C5.85187 14.9763 5.57043 11.3509 5.57043 10C5.57043 8.73113 5.86919 4.92017 5.86919 4.92017" stroke="#FCFCFF" stroke-miterlimit="10" stroke-linecap="round" stroke-linejoin="round"/>
<path d="M14.1824 15.0799C14.1824 15.0799 14.4508 11.3293 14.4422 10C14.4378 8.77429 14.1824 4.92017 14.1824 4.92017" stroke="#FCFCFF" stroke-miterlimit="10" stroke-linecap="round" stroke-linejoin="round"/>
<path d="M8.38482 7.20761C8.38482 7.20761 7.90855 9.32673 7.99514 10.164C8.08174 11.0013 8.18565 12.1234 8.18565 12.1234" stroke="#FCFCFF" stroke-miterlimit="10" stroke-linecap="round" stroke-linejoin="round"/>
<path d="M11.026 7.20761C11.026 7.20761 11.5023 8.67503 11.459 9.66337C11.4157 10.6517 11.2425 11.9465 11.2425 11.9465" stroke="#FCFCFF" stroke-miterlimit="10" stroke-linecap="round" stroke-linejoin="round"/>
</g>
<defs>
<clipPath id="clip0_213_349">
<rect width="20" height="20" fill="white"/>
</clipPath>
</defs>
</svg>
