<svg width="20" height="22" viewBox="0 0 20 22" fill="none" xmlns="http://www.w3.org/2000/svg">
<path d="M9.24631 1.03279C11.392 0.774253 12.5244 2.08185 12.8969 3.64301C13.2694 5.20417 12.6734 7.69506 10.4383 7.97846C8.20328 8.26185 6.86225 5.67649 7.01125 4.50811C7.16025 3.33972 7.30926 1.26647 9.24631 1.03279Z" stroke="#FCFCFF" stroke-miterlimit="10" stroke-linecap="round" stroke-linejoin="round"/>
<path d="M9.02586 8.26501C9.02586 8.26501 9.22414 9.74695 8.27586 9.88643C7.32759 10.0259 5 10.0956 5 10.0956C5 10.0956 5.03448 13.3385 7.02155 13.6523C9.00862 13.9661 11.8103 14.2451 13.1466 13.6523C14.4828 13.0595 15 10.3397 15 10.3397C15 10.3397 12.4138 10.2351 11.9828 9.95617C11.5517 9.67722 11.4655 8 11.4655 8" stroke="#FCFCFF" stroke-miterlimit="10" stroke-linecap="round" stroke-linejoin="round"/>
<path d="M8 14L8.40863 18H12.3756L13 14.2586" stroke="#FCFCFF" stroke-miterlimit="10" stroke-linecap="round" stroke-linejoin="round"/>
<path d="M6.24335 20.4823C6.24335 20.4823 6 20.1927 6 19.5721C6 18.9515 6.24335 18 6.24335 18H13.3491C13.3491 18 14.1278 18.9515 13.9818 19.5721C13.8358 20.1927 13.4464 20.4823 13.4464 20.4823C13.4464 20.4823 11.7624 20.9787 10.0006 20.9994C8.23879 21.0201 6.24335 20.4823 6.24335 20.4823Z" stroke="#FCFCFF" stroke-miterlimit="10" stroke-linecap="round" stroke-linejoin="round"/>
</svg>
