<svg width="20" height="20" viewBox="0 0 20 20" fill="none" xmlns="http://www.w3.org/2000/svg">
<g clip-path="url(#clip0_213_335)">
<path d="M2.50403 5.98081C2.50403 5.98081 8.13579 5.8246 10.0116 5.8246C11.8873 5.8246 17.5191 5.98081 17.5191 5.98081C17.5191 5.98081 14.9171 3.67776 13.9814 2.95024C13.126 2.28521 10.3947 0.401703 10.3947 0.401703C10.3947 0.401703 7.40954 2.25397 6.47388 2.91454C5.43575 3.65098 2.50403 5.98081 2.50403 5.98081Z" stroke="#FCFCFF" stroke-miterlimit="10" stroke-linecap="round" stroke-linejoin="round"/>
<path d="M2.50404 17.3042C2.50404 17.3042 2.35255 18.1611 2.36146 18.4468C2.36592 18.6699 2.50404 19.326 2.50404 19.326C2.50404 19.326 7.98877 19.5894 9.81998 19.5894C11.7448 19.5894 17.5191 19.326 17.5191 19.326C17.5191 19.326 17.6706 18.4602 17.6617 18.17C17.6572 17.9513 17.5191 17.3042 17.5191 17.3042H2.50404Z" stroke="#FCFCFF" stroke-miterlimit="10" stroke-linecap="round" stroke-linejoin="round"/>
<path d="M5.40907 5.9808C5.40907 5.9808 5.21748 10.0335 5.21748 11.3858C5.21303 12.8677 5.40907 17.3042 5.40907 17.3042" stroke="#FCFCFF" stroke-miterlimit="10" stroke-linecap="round" stroke-linejoin="round"/>
<path d="M15.2023 5.9808C15.2023 5.9808 15.3939 10.0335 15.3939 11.3858C15.3983 12.8677 15.2023 17.3042 15.2023 17.3042" stroke="#FCFCFF" stroke-miterlimit="10" stroke-linecap="round" stroke-linejoin="round"/>
<path d="M12.5156 7.59204C12.5156 7.59204 12.6805 10.8101 12.6716 11.9036C12.6671 12.8409 12.5156 15.6929 12.5156 15.6929" stroke="#FCFCFF" stroke-miterlimit="10" stroke-linecap="round" stroke-linejoin="round"/>
<path d="M8.22936 7.71704C8.22936 7.71704 8.11352 10.9619 8.1046 12.0554C8.10015 12.9926 8.22936 15.8224 8.22936 15.8224" stroke="#FCFCFF" stroke-miterlimit="10" stroke-linecap="round" stroke-linejoin="round"/>
<path d="M10.4705 7.56528C10.4705 7.56528 10.2789 10.2388 10.2789 11.1314C10.2744 12.1491 10.4705 15.202 10.4705 15.202" stroke="#FCFCFF" stroke-miterlimit="10" stroke-linecap="round" stroke-linejoin="round"/>
</g>
<defs>
<clipPath id="clip0_213_335">
<rect width="20" height="20" fill="white"/>
</clipPath>
</defs>
</svg>
