<svg width="24" height="24" viewBox="0 0 24 24" fill="none" xmlns="http://www.w3.org/2000/svg">
<path d="M11.9334 10.7286C11.2098 10.7286 10.5564 10.4662 10.0379 9.95762C9.1145 9.05536 8.80669 7.57347 8.82829 6.79699C8.84449 6.17908 9.1901 5.51742 9.77872 4.98701C10.5186 4.31988 11.4906 3.98632 12.4464 4.07928C14.2069 4.24333 15.5299 5.45727 15.6595 7.04306C15.7297 7.87969 15.4327 8.75461 14.8549 9.43267C14.3959 9.96855 13.5481 10.6302 12.1278 10.7232C12.063 10.7286 11.9982 10.7286 11.9334 10.7286ZM14.0773 8.75461C14.4715 8.29528 14.6821 7.68831 14.6335 7.13055C14.5471 6.05878 13.6075 5.23308 12.3546 5.11824C12.2844 5.11278 12.2142 5.10731 12.144 5.10731C11.5392 5.10731 10.9344 5.34244 10.4646 5.76896C10.0973 6.09705 9.86513 6.50717 9.85973 6.8298C9.84353 7.44224 10.1135 8.58509 10.7562 9.21394C11.118 9.5639 11.5446 9.72248 12.0684 9.68967C13.1268 9.61859 13.7479 9.14285 14.0773 8.75461Z" fill="black"/>
<path d="M9.0012 17.6897C7.75375 15.9344 6.60351 13.8237 5.82048 11.7841C4.86465 9.30697 3.97902 5.80184 5.21566 3.1771C5.74488 2.04518 6.61971 1.20307 7.81315 0.672653C9.0714 0.114895 10.6969 -0.0983655 12.6463 0.0438081C16.3401 0.306282 18.6513 1.65146 19.5208 4.04107C20.9032 7.85242 18.1275 13.4191 15.368 17.1375C16.2051 17.2085 17.5119 17.5038 19.159 18.4881C20.4388 19.2537 21.0382 20.3746 20.7196 21.4191C20.5306 22.0479 19.9204 22.9174 18.1113 23.4696C16.9719 23.8196 15.5246 23.9946 13.7966 23.9946C13.1809 23.9946 12.5275 23.9727 11.8417 23.929C7.05713 23.6173 4.05462 22.3432 4.00062 20.6098C3.96282 19.2208 5.77728 18.1655 9.0012 17.6897ZM18.5541 4.40198C17.8413 2.42795 15.827 1.31243 12.5761 1.0773C12.2089 1.04996 11.8525 1.03902 11.5123 1.03902C8.75279 1.03902 6.94912 1.90847 6.13909 3.62549C5.30206 5.40813 5.52347 8.17505 6.77632 11.4068C7.84015 14.1737 9.58982 17.0609 11.3287 18.9474C11.5123 19.1443 11.7121 19.2482 11.9065 19.2537C12.0847 19.2591 12.2575 19.1771 12.4195 19.0185C15.26 16.2024 20.1472 8.78202 18.5541 4.40198ZM14.5526 18.1928C14.5526 18.1874 14.5526 18.1874 14.5526 18.1928V18.1928ZM11.9065 22.8955C17.1825 23.24 19.4236 22.1518 19.7368 21.1183C19.9096 20.5551 19.4884 19.8934 18.6351 19.3849C16.1511 17.903 14.6228 18.1764 14.5472 18.1874C14.0558 18.7889 13.5752 19.3193 13.1377 19.7567C12.7867 20.1067 12.3655 20.2871 11.9227 20.2871C11.9119 20.2871 11.9011 20.2871 11.8849 20.2871C11.4151 20.2762 10.9507 20.052 10.5781 19.6528C10.2594 19.3083 9.94083 18.931 9.62762 18.5318L9.64382 18.6521C6.2309 19.0732 5.01045 20.0411 5.02665 20.5824C5.04825 21.3589 7.19753 22.5893 11.9065 22.8955Z" fill="black"/>
</svg>
