<svg width="24" height="24" viewBox="0 0 24 24" fill="none" xmlns="http://www.w3.org/2000/svg">
<path d="M11.8998 10.0595C10.7873 10.0595 9.57504 9.66473 8.57232 8.97382C7.7442 8.40239 6.67663 7.35823 6.2925 5.64914C6.03808 4.51148 6.24261 3.3946 6.89114 2.42317C7.72425 1.17122 9.23083 0.262129 10.8322 0.0439475C12.0843 -0.127481 13.2517 0.204986 14.2195 0.999792C15.6063 2.14265 16.3696 4.07512 16.5093 5.4881C16.5991 6.41278 16.2449 7.3946 15.5016 8.25174C14.5487 9.34784 13.137 10.0595 11.8998 10.0595ZM10.9519 1.02057C9.63491 1.19719 8.34284 1.97122 7.67436 2.97901C7.17549 3.72706 7.02583 4.54784 7.22039 5.42057C7.78411 7.94005 10.2984 9.06732 11.9048 9.06732C12.8676 9.06732 14.0299 8.46992 14.8032 7.58161C15.3619 6.93745 15.6363 6.22577 15.5714 5.58161C15.4517 4.37642 14.8082 2.73486 13.6358 1.76862C12.8576 1.13486 11.9596 0.885506 10.9519 1.02057Z" fill="black"/>
<path d="M11.9147 23.9972C11.6852 23.9972 11.4657 23.9868 11.2512 23.966C8.18818 23.6751 4.60133 21.966 4.44668 21.8881C4.35689 21.8466 4.28705 21.779 4.23716 21.6907C4.19226 21.6076 3.12968 19.644 4.84578 15.2803C6.51199 11.0362 7.77412 10.3037 7.91381 10.2362C8.07843 10.1531 8.27299 10.179 8.41766 10.2985C8.43762 10.3141 9.74465 11.379 11.8299 11.379C11.8698 11.379 11.9147 11.379 11.9546 11.379C13.995 11.3375 14.7333 10.4544 14.7882 10.3816C14.883 10.2466 15.0276 10.179 15.1873 10.1894C15.2821 10.1946 17.517 10.3401 19.0784 14.205C20.575 17.9089 20.0462 21.6492 20.0263 21.805C20.0013 21.9816 19.8866 22.1323 19.722 22.1946C19.5174 22.2725 15.0276 23.9972 11.9147 23.9972ZM5.00541 21.0725C5.73376 21.405 8.78682 22.7453 11.336 22.9842C13.8304 23.218 18.0208 21.7686 19.1184 21.3686C19.2032 20.4492 19.3678 17.4673 18.2054 14.5842C17.517 12.8751 16.7088 12.0388 16.1551 11.6336C15.8059 11.379 15.5066 11.2647 15.327 11.2128C14.9179 11.5972 13.9002 12.3245 11.9746 12.366C10.0739 12.4076 8.72197 11.6803 8.1383 11.2959C7.75417 11.6751 6.85621 12.7816 5.72877 15.6595C4.44668 18.9115 4.84578 20.6154 5.00541 21.0725Z" fill="black"/>
</svg>
