<svg width="188" height="48" viewBox="0 0 188 48" fill="none" xmlns="http://www.w3.org/2000/svg">
<rect width="188" height="48" rx="8" fill="#262634"/>
<g clip-path="url(#clip0_188_486)">
<path d="M105.557 21.1388L102.066 18.022C102.317 17.768 102.551 17.5011 102.772 17.217C104.14 15.4348 104.405 13.6698 104.413 13.5966C104.422 13.532 104.418 13.4674 104.396 13.4072C104.37 13.3383 103.785 11.6508 102.248 9.95033C101.342 8.94729 100.298 8.15088 99.1377 7.57833C97.6867 6.85511 96.0624 6.4935 94.3039 6.4935C92.5367 6.4935 90.9168 6.88094 89.4874 7.65152C88.344 8.26281 87.3218 9.11949 86.4468 10.1871C84.9655 11.9995 84.4327 13.7989 84.4111 13.8721C84.3938 13.9281 84.3894 13.9883 84.3981 14.0443C84.4068 14.1132 84.6666 15.7878 86.0224 17.4667L81.8686 20.2649C81.6823 20.3897 81.6304 20.648 81.7603 20.8331C81.8383 20.9493 81.9682 21.0139 82.1025 21.0139C82.1804 21.0139 82.2627 20.9924 82.332 20.945L86.5724 18.0866C87.2828 18.8055 88.1231 19.391 89.0846 19.8344C90.5053 20.493 92.1945 20.8331 94.1003 20.8503L94.4382 25.435C94.4555 25.6503 94.6331 25.8139 94.8496 25.8139C94.8583 25.8139 94.8713 25.8139 94.88 25.8139C95.1052 25.7966 95.2784 25.6029 95.2611 25.3748L94.9233 20.8374C96.7424 20.7642 98.358 20.3811 99.7267 19.7009C100.355 19.3867 100.931 19.0121 101.455 18.5773L105.002 21.7457C105.08 21.8146 105.18 21.8491 105.275 21.8491C105.388 21.8491 105.5 21.8017 105.583 21.7156C105.739 21.5477 105.726 21.2894 105.557 21.1388ZM94.4035 20.0324C90.9731 20.0625 88.3873 19.0423 86.7154 17.0147C85.6369 15.7017 85.3033 14.3585 85.234 14.0142C85.3553 13.6439 85.8924 12.1717 87.0922 10.7037C88.9244 8.45223 91.3499 7.31143 94.3039 7.31143C97.2535 7.31143 99.7137 8.37474 101.615 10.4669C102.85 11.8273 103.439 13.2091 103.582 13.5751C103.508 13.9453 103.183 15.3271 102.118 16.7176C100.446 18.8916 97.8513 20.0066 94.4035 20.0324Z" fill="white"/>
</g>
<path d="M20.7407 41V40.2002L21.7754 40.0225V32.7417L20.7407 32.564V31.7578H21.7754H24.9873C25.6475 31.7578 26.2103 31.8742 26.6758 32.1069C27.1413 32.3354 27.4967 32.6571 27.7422 33.0718C27.9876 33.4865 28.1104 33.971 28.1104 34.5254C28.1104 35.084 27.9876 35.5706 27.7422 35.9854C27.4967 36.4001 27.1413 36.7217 26.6758 36.9502C26.2103 37.1787 25.6475 37.293 24.9873 37.293H23.0259V40.0225L24.0605 40.2002V41H20.7407ZM23.0259 36.3154H24.9873C25.6136 36.3154 26.0812 36.1483 26.3901 35.814C26.7033 35.4754 26.8599 35.0501 26.8599 34.5381C26.8599 34.026 26.7033 33.5986 26.3901 33.2559C26.0812 32.9131 25.6136 32.7417 24.9873 32.7417H23.0259V36.3154ZM32.0015 41.1333C31.3667 41.1333 30.8145 40.9894 30.3447 40.7017C29.875 40.4097 29.5111 40.0055 29.2529 39.4893C28.999 38.973 28.8721 38.3763 28.8721 37.6992V37.4199C28.8721 36.7682 29.0054 36.1864 29.272 35.6743C29.5428 35.158 29.9004 34.7518 30.3447 34.4556C30.7933 34.1551 31.2821 34.0049 31.811 34.0049C32.4289 34.0049 32.9451 34.1318 33.3599 34.3857C33.7788 34.6396 34.0941 34.9972 34.3057 35.4585C34.5173 35.9155 34.623 36.4551 34.623 37.0771V37.8579H30.167L30.1479 37.8896C30.1564 38.3298 30.2326 38.7212 30.3765 39.064C30.5246 39.4025 30.7362 39.6691 31.0112 39.8638C31.2863 40.0584 31.6164 40.1558 32.0015 40.1558C32.4246 40.1558 32.7949 40.0965 33.1123 39.978C33.4339 39.8553 33.7111 39.6882 33.9438 39.4766L34.4326 40.2891C34.1872 40.526 33.8613 40.7271 33.4551 40.8921C33.0531 41.0529 32.5685 41.1333 32.0015 41.1333ZM30.2051 36.8804H33.3726V36.7153C33.3726 36.3853 33.3133 36.0911 33.1948 35.833C33.0806 35.5706 32.9071 35.3654 32.6743 35.2173C32.4458 35.0649 32.158 34.9888 31.811 34.9888C31.5317 34.9888 31.2778 35.0713 31.0493 35.2363C30.8208 35.3971 30.6325 35.6172 30.4844 35.8965C30.3363 36.1758 30.2389 36.4932 30.1924 36.8486L30.2051 36.8804ZM35.3784 41V40.2002L36.356 40.0605L38.1396 37.4072L36.9907 35.6807C36.868 35.4987 36.7368 35.3569 36.5972 35.2554C36.4618 35.1538 36.3073 35.103 36.1338 35.103C36.0449 35.103 35.9878 35.1051 35.9624 35.1094C35.937 35.1136 35.8333 35.1305 35.6514 35.1602L35.4736 34.3096C35.6302 34.208 35.772 34.134 35.8989 34.0874C36.0259 34.0366 36.1888 34.0112 36.3877 34.0112C36.7051 34.0112 36.995 34.1064 37.2573 34.2969C37.5239 34.4873 37.763 34.7581 37.9746 35.1094L39.1616 37.0327H39.917V35.1157L38.8823 34.938V34.1318H42.2021V34.938L41.1675 35.1157V37.0327H41.9863L43.1733 35.1094C43.3807 34.7581 43.6156 34.4873 43.8779 34.2969C44.1445 34.1064 44.4408 34.0112 44.7666 34.0112C44.9613 34.0112 45.1221 34.0366 45.249 34.0874C45.3802 34.1382 45.522 34.2122 45.6743 34.3096L45.5029 35.1602C45.321 35.1305 45.2152 35.1136 45.1855 35.1094C45.1602 35.1051 45.1051 35.103 45.0205 35.103C44.8428 35.103 44.6841 35.1538 44.5444 35.2554C44.4048 35.3569 44.2778 35.4987 44.1636 35.6807L42.9766 37.458L44.7349 40.0605L45.7061 40.2002V41H43.7891L42.0054 38.0864H41.1675V40.0225L42.2021 40.2002V41H38.8823V40.2002L39.917 40.0225V38.0864H39.0728L37.2954 41H35.3784ZM46.7153 41V40.2002L47.75 40.0225V35.1157L46.7153 34.938V34.1318H48.9941H50.0288V34.938L48.9941 35.1157V38.9941L49.0322 39.0068L52.0601 34.1318H53.3105H54.3452V34.938L53.3105 35.1157V40.0225L54.3452 40.2002V41H51.0254V40.2002L52.0601 40.0225V36.1377L52.022 36.125L48.9941 41H46.7153ZM55.5767 41V40.2002L56.6113 40.0225V35.1157L55.5767 34.938V34.1318H56.6113H58.2236L60.458 39.3623H60.4961L62.7368 34.1318H64.3047H65.3394V34.938L64.3047 35.1157V40.0225L65.3394 40.2002V41H62.0195V40.2002L63.0542 40.0225V36.2329L63.0161 36.2202L60.9087 41H60.0454L57.8999 36.1187L57.8618 36.1313V40.0225L58.8965 40.2002V41H55.5767ZM69.7573 41V40.2002L70.792 40.0225V35.1157L69.7573 34.938V34.1318H72.0361H73.0708V34.938L72.0361 35.1157V38.9941L72.0742 39.0068L75.1021 34.1318H76.3525H77.3872V34.938L76.3525 35.1157V40.0225L77.3872 40.2002V41H74.0674V40.2002L75.1021 40.0225V36.1377L75.064 36.125L72.0361 41H69.7573ZM81.5767 41.1333C80.9546 41.1333 80.4129 40.9894 79.9517 40.7017C79.4904 40.4097 79.1328 40.0055 78.8789 39.4893C78.625 38.973 78.498 38.3763 78.498 37.6992V37.4326C78.498 36.7809 78.6208 36.1969 78.8662 35.6807C79.1117 35.1644 79.465 34.756 79.9263 34.4556C80.3875 34.1551 80.9377 34.0049 81.5767 34.0049C82.131 34.0049 82.6156 34.0959 83.0303 34.2778C83.4492 34.4598 83.8005 34.7095 84.084 35.0269L84.1157 36.6772H83.1382L82.9224 35.4775C82.7785 35.3294 82.5986 35.2109 82.3828 35.1221C82.167 35.0332 81.9131 34.9888 81.6211 34.9888C81.2487 34.9888 80.9207 35.0988 80.6372 35.3188C80.3579 35.5389 80.14 35.833 79.9834 36.2012C79.8268 36.5693 79.7485 36.9798 79.7485 37.4326V37.6992C79.7485 38.1986 79.8205 38.6323 79.9644 39.0005C80.1125 39.3687 80.3219 39.6543 80.5928 39.8574C80.8678 40.0563 81.1937 40.1558 81.5703 40.1558C81.9935 40.1558 82.3447 40.0394 82.624 39.8066C82.9033 39.5739 83.0747 39.2544 83.1382 38.8481H84.2617L84.2744 38.8862C84.2533 39.2798 84.1369 39.6479 83.9253 39.9907C83.7137 40.3335 83.4111 40.6107 83.0176 40.8223C82.6283 41.0296 82.1479 41.1333 81.5767 41.1333ZM88.6099 41.1333C87.9878 41.1333 87.4461 40.9894 86.9849 40.7017C86.5236 40.4097 86.166 40.0055 85.9121 39.4893C85.6582 38.973 85.5312 38.3763 85.5312 37.6992V37.4326C85.5312 36.7809 85.654 36.1969 85.8994 35.6807C86.1449 35.1644 86.4982 34.756 86.9595 34.4556C87.4207 34.1551 87.9709 34.0049 88.6099 34.0049C89.1642 34.0049 89.6488 34.0959 90.0635 34.2778C90.4824 34.4598 90.8337 34.7095 91.1172 35.0269L91.1489 36.6772H90.1714L89.9556 35.4775C89.8117 35.3294 89.6318 35.2109 89.416 35.1221C89.2002 35.0332 88.9463 34.9888 88.6543 34.9888C88.2819 34.9888 87.9539 35.0988 87.6704 35.3188C87.3911 35.5389 87.1732 35.833 87.0166 36.2012C86.86 36.5693 86.7817 36.9798 86.7817 37.4326V37.6992C86.7817 38.1986 86.8537 38.6323 86.9976 39.0005C87.1457 39.3687 87.3551 39.6543 87.626 39.8574C87.901 40.0563 88.2269 40.1558 88.6035 40.1558C89.0267 40.1558 89.3779 40.0394 89.6572 39.8066C89.9365 39.5739 90.1079 39.2544 90.1714 38.8481H91.2949L91.3076 38.8862C91.2865 39.2798 91.1701 39.6479 90.9585 39.9907C90.7469 40.3335 90.4443 40.6107 90.0508 40.8223C89.6615 41.0296 89.1812 41.1333 88.6099 41.1333ZM92.2534 41L92.2725 39.9336L92.5327 39.9272C92.8332 39.9272 93.0701 39.8341 93.2437 39.6479C93.4172 39.4575 93.542 39.1528 93.6182 38.7339C93.6943 38.3107 93.7324 37.7542 93.7324 37.0645V35.1157L92.6978 34.938V34.1318H98.563H99.5977V34.938L98.563 35.1157V40.0225L99.5977 40.2002V41H96.2778V40.2002L97.3125 40.0225V35.1221H94.9829V37.0645C94.9829 38.4186 94.8031 39.4131 94.4434 40.0479C94.0879 40.6826 93.4764 41 92.6089 41H92.2534ZM103.768 41.1333C103.133 41.1333 102.581 40.9894 102.111 40.7017C101.642 40.4097 101.278 40.0055 101.02 39.4893C100.766 38.973 100.639 38.3763 100.639 37.6992V37.4199C100.639 36.7682 100.772 36.1864 101.039 35.6743C101.309 35.158 101.667 34.7518 102.111 34.4556C102.56 34.1551 103.049 34.0049 103.578 34.0049C104.195 34.0049 104.712 34.1318 105.126 34.3857C105.545 34.6396 105.861 34.9972 106.072 35.4585C106.284 35.9155 106.39 36.4551 106.39 37.0771V37.8579H101.934L101.915 37.8896C101.923 38.3298 101.999 38.7212 102.143 39.064C102.291 39.4025 102.503 39.6691 102.778 39.8638C103.053 40.0584 103.383 40.1558 103.768 40.1558C104.191 40.1558 104.562 40.0965 104.879 39.978C105.201 39.8553 105.478 39.6882 105.71 39.4766L106.199 40.2891C105.954 40.526 105.628 40.7271 105.222 40.8921C104.82 41.0529 104.335 41.1333 103.768 41.1333ZM101.972 36.8804H105.139V36.7153C105.139 36.3853 105.08 36.0911 104.961 35.833C104.847 35.5706 104.674 35.3654 104.441 35.2173C104.212 35.0649 103.925 34.9888 103.578 34.9888C103.298 34.9888 103.044 35.0713 102.816 35.2363C102.587 35.3971 102.399 35.6172 102.251 35.8965C102.103 36.1758 102.006 36.4932 101.959 36.8486L101.972 36.8804ZM107.437 43.0186L107.316 40.0225H107.856C108.034 39.8193 108.188 39.6183 108.319 39.4194C108.451 39.2163 108.565 38.9941 108.662 38.7529C108.759 38.5075 108.838 38.2218 108.897 37.896C108.96 37.5659 109.007 37.1724 109.037 36.7153L109.1 35.1094L108.104 34.938V34.1318H113.626H114.661V34.938L113.626 35.1157V40.0225H114.54L114.413 43.0186H113.29V41H108.561V43.0186H107.437ZM109.297 40.0225H112.375V35.2427H110.344L110.287 36.7153C110.241 37.4771 110.131 38.1266 109.957 38.6641C109.788 39.2015 109.568 39.6543 109.297 40.0225ZM118.749 41.1333C118.114 41.1333 117.566 40.9852 117.104 40.689C116.647 40.3885 116.294 39.9759 116.044 39.4512C115.795 38.9222 115.67 38.3192 115.67 37.6421V37.5024C115.67 36.8254 115.795 36.2244 116.044 35.6997C116.294 35.1707 116.647 34.756 117.104 34.4556C117.566 34.1551 118.11 34.0049 118.736 34.0049C119.371 34.0049 119.917 34.1551 120.374 34.4556C120.835 34.756 121.19 35.1686 121.44 35.6934C121.69 36.2181 121.814 36.8211 121.814 37.5024V37.6421C121.814 38.3234 121.69 38.9285 121.44 39.4575C121.19 39.9823 120.837 40.3927 120.38 40.689C119.923 40.9852 119.379 41.1333 118.749 41.1333ZM118.749 40.1558C119.146 40.1558 119.479 40.0479 119.745 39.832C120.016 39.612 120.219 39.3136 120.354 38.937C120.494 38.5562 120.564 38.1245 120.564 37.6421V37.5024C120.564 37.02 120.494 36.5905 120.354 36.2139C120.219 35.833 120.016 35.5347 119.745 35.3188C119.474 35.0988 119.138 34.9888 118.736 34.9888C118.338 34.9888 118.004 35.0988 117.733 35.3188C117.462 35.5347 117.259 35.833 117.124 36.2139C116.988 36.5905 116.92 37.02 116.92 37.5024V37.6421C116.92 38.1245 116.988 38.5562 117.124 38.937C117.259 39.3136 117.462 39.612 117.733 39.832C118.008 40.0479 118.347 40.1558 118.749 40.1558ZM123.09 41V40.2002L124.125 40.0225V35.1157L123.09 34.938V34.1318H124.125H126.829C127.735 34.1318 128.437 34.2905 128.937 34.6079C129.436 34.9211 129.686 35.3929 129.686 36.0234C129.686 36.3451 129.588 36.6328 129.394 36.8867C129.199 37.1364 128.924 37.3268 128.568 37.458C128.996 37.5638 129.33 37.7627 129.571 38.0547C129.812 38.3424 129.933 38.6725 129.933 39.0449C129.933 39.6882 129.698 40.1748 129.229 40.5049C128.763 40.835 128.109 41 127.267 41H123.09ZM125.375 40.0352H127.267C127.733 40.0352 128.084 39.9484 128.321 39.7749C128.558 39.5972 128.676 39.3433 128.676 39.0132C128.676 38.6873 128.558 38.4355 128.321 38.2578C128.084 38.0801 127.733 37.9912 127.267 37.9912H125.375V40.0352ZM125.375 37.0327H126.835C127.364 37.0327 127.762 36.9544 128.029 36.7979C128.3 36.6413 128.435 36.4043 128.435 36.0869C128.435 35.431 127.9 35.103 126.829 35.103H125.375V37.0327ZM133.24 41.1333C132.525 41.1333 131.981 40.9598 131.609 40.6128C131.236 40.2616 131.05 39.7686 131.05 39.1338C131.05 38.6979 131.169 38.3192 131.406 37.9976C131.647 37.6717 131.994 37.4199 132.447 37.2422C132.9 37.0602 133.441 36.9692 134.072 36.9692H135.297V36.2964C135.297 35.8817 135.17 35.5601 134.916 35.3315C134.666 35.103 134.313 34.9888 133.856 34.9888C133.568 34.9888 133.319 35.0247 133.107 35.0967C132.895 35.1644 132.703 35.2596 132.529 35.3823L132.396 36.3408H131.431V34.7666C131.74 34.5169 132.1 34.3286 132.51 34.2017C132.921 34.0705 133.376 34.0049 133.875 34.0049C134.709 34.0049 135.362 34.2038 135.836 34.6016C136.31 34.9993 136.547 35.5685 136.547 36.3091V39.6162C136.547 39.7051 136.547 39.7918 136.547 39.8765C136.552 39.9611 136.558 40.0457 136.566 40.1304L137.233 40.2002V41H135.437C135.398 40.8138 135.369 40.6466 135.348 40.4985C135.326 40.3504 135.312 40.2023 135.303 40.0542C135.062 40.3631 134.759 40.6213 134.396 40.8286C134.036 41.0317 133.651 41.1333 133.24 41.1333ZM133.424 40.0859C133.839 40.0859 134.218 39.9865 134.561 39.7876C134.903 39.5887 135.149 39.3496 135.297 39.0703V37.8262H134.027C133.452 37.8262 133.02 37.9637 132.732 38.2388C132.445 38.5138 132.301 38.8206 132.301 39.1592C132.301 39.4596 132.394 39.6903 132.58 39.8511C132.766 40.0076 133.048 40.0859 133.424 40.0859ZM139.702 41V40.2002L140.737 40.0225V35.103H139.29L139.194 36.1758H138.128V34.1318H144.628V36.1758H143.555L143.46 35.103H141.987V40.0225L143.022 40.2002V41H139.702ZM148.252 41.1333C147.618 41.1333 147.065 40.9894 146.596 40.7017C146.126 40.4097 145.762 40.0055 145.504 39.4893C145.25 38.973 145.123 38.3763 145.123 37.6992V37.4199C145.123 36.7682 145.256 36.1864 145.523 35.6743C145.794 35.158 146.151 34.7518 146.596 34.4556C147.044 34.1551 147.533 34.0049 148.062 34.0049C148.68 34.0049 149.196 34.1318 149.611 34.3857C150.03 34.6396 150.345 34.9972 150.557 35.4585C150.768 35.9155 150.874 36.4551 150.874 37.0771V37.8579H146.418L146.399 37.8896C146.407 38.3298 146.484 38.7212 146.627 39.064C146.776 39.4025 146.987 39.6691 147.262 39.8638C147.537 40.0584 147.867 40.1558 148.252 40.1558C148.676 40.1558 149.046 40.0965 149.363 39.978C149.685 39.8553 149.962 39.6882 150.195 39.4766L150.684 40.2891C150.438 40.526 150.112 40.7271 149.706 40.8921C149.304 41.0529 148.819 41.1333 148.252 41.1333ZM146.456 36.8804H149.624V36.7153C149.624 36.3853 149.564 36.0911 149.446 35.833C149.332 35.5706 149.158 35.3654 148.925 35.2173C148.697 35.0649 148.409 34.9888 148.062 34.9888C147.783 34.9888 147.529 35.0713 147.3 35.2363C147.072 35.3971 146.883 35.6172 146.735 35.8965C146.587 36.1758 146.49 36.4932 146.443 36.8486L146.456 36.8804ZM151.82 41L151.839 39.9336L152.099 39.9272C152.4 39.9272 152.637 39.8341 152.81 39.6479C152.984 39.4575 153.108 39.1528 153.185 38.7339C153.261 38.3107 153.299 37.7542 153.299 37.0645V35.1157L152.264 34.938V34.1318H158.129H159.164V34.938L158.129 35.1157V40.0225L159.164 40.2002V41H155.844V40.2002L156.879 40.0225V35.1221H154.549V37.0645C154.549 38.4186 154.369 39.4131 154.01 40.0479C153.654 40.6826 153.043 41 152.175 41H151.82ZM160.148 41V40.2002L161.049 40.0669L162.224 38.1499C161.788 37.9933 161.451 37.7458 161.214 37.4072C160.982 37.0687 160.865 36.6772 160.865 36.2329C160.865 35.8224 160.971 35.4585 161.183 35.1411C161.394 34.8237 161.697 34.5762 162.09 34.3984C162.484 34.2207 162.954 34.1318 163.5 34.1318H167.435V34.938L166.4 35.1157V40.0225L167.435 40.2002V41H164.115V40.2002L165.15 40.0225V38.334H163.455L161.83 41H160.148ZM163.373 37.3501H165.15V35.103H163.5C163.047 35.103 162.704 35.2173 162.471 35.4458C162.238 35.6701 162.122 35.9367 162.122 36.2456C162.122 36.5503 162.226 36.8105 162.433 37.0264C162.645 37.2422 162.958 37.3501 163.373 37.3501Z" fill="#FCFCFF"/>
<defs>
<clipPath id="clip0_188_486">
<rect width="24" height="24" fill="white" transform="translate(82 4)"/>
</clipPath>
</defs>
</svg>
