<svg width="196" height="65" viewBox="0 0 196 65" fill="none" xmlns="http://www.w3.org/2000/svg">
<g filter="url(#filter0_d_132_411)">
<rect x="4" width="188" height="57" rx="8" fill="#262634" shape-rendering="crispEdges"/>
<path d="M98.2909 8.00113C90.7288 7.87372 82 18.5882 82 18.5882C82 18.5882 90.9644 28.116 98.2909 27.9989C105.421 27.885 114 18.5882 114 18.5882C114 18.5882 105.663 8.12534 98.2909 8.00113Z" stroke="#FCFCFF"/>
<path d="M24.7407 46V45.2002L25.7754 45.0225V37.7417L24.7407 37.564V36.7578H25.7754H28.9873C29.6475 36.7578 30.2103 36.8742 30.6758 37.1069C31.1413 37.3354 31.4967 37.6571 31.7422 38.0718C31.9876 38.4865 32.1104 38.971 32.1104 39.5254C32.1104 40.084 31.9876 40.5706 31.7422 40.9854C31.4967 41.4001 31.1413 41.7217 30.6758 41.9502C30.2103 42.1787 29.6475 42.293 28.9873 42.293H27.0259V45.0225L28.0605 45.2002V46H24.7407ZM27.0259 41.3154H28.9873C29.6136 41.3154 30.0812 41.1483 30.3901 40.814C30.7033 40.4754 30.8599 40.0501 30.8599 39.5381C30.8599 39.026 30.7033 38.5986 30.3901 38.2559C30.0812 37.9131 29.6136 37.7417 28.9873 37.7417H27.0259V41.3154ZM36.0015 46.1333C35.3667 46.1333 34.8145 45.9894 34.3447 45.7017C33.875 45.4097 33.5111 45.0055 33.2529 44.4893C32.999 43.973 32.8721 43.3763 32.8721 42.6992V42.4199C32.8721 41.7682 33.0054 41.1864 33.272 40.6743C33.5428 40.158 33.9004 39.7518 34.3447 39.4556C34.7933 39.1551 35.2821 39.0049 35.811 39.0049C36.4289 39.0049 36.9451 39.1318 37.3599 39.3857C37.7788 39.6396 38.0941 39.9972 38.3057 40.4585C38.5173 40.9155 38.623 41.4551 38.623 42.0771V42.8579H34.167L34.1479 42.8896C34.1564 43.3298 34.2326 43.7212 34.3765 44.064C34.5246 44.4025 34.7362 44.6691 35.0112 44.8638C35.2863 45.0584 35.6164 45.1558 36.0015 45.1558C36.4246 45.1558 36.7949 45.0965 37.1123 44.978C37.4339 44.8553 37.7111 44.6882 37.9438 44.4766L38.4326 45.2891C38.1872 45.526 37.8613 45.7271 37.4551 45.8921C37.0531 46.0529 36.5685 46.1333 36.0015 46.1333ZM34.2051 41.8804H37.3726V41.7153C37.3726 41.3853 37.3133 41.0911 37.1948 40.833C37.0806 40.5706 36.9071 40.3654 36.6743 40.2173C36.4458 40.0649 36.158 39.9888 35.811 39.9888C35.5317 39.9888 35.2778 40.0713 35.0493 40.2363C34.8208 40.3971 34.6325 40.6172 34.4844 40.8965C34.3363 41.1758 34.2389 41.4932 34.1924 41.8486L34.2051 41.8804ZM39.3784 46V45.2002L40.356 45.0605L42.1396 42.4072L40.9907 40.6807C40.868 40.4987 40.7368 40.3569 40.5972 40.2554C40.4618 40.1538 40.3073 40.103 40.1338 40.103C40.0449 40.103 39.9878 40.1051 39.9624 40.1094C39.937 40.1136 39.8333 40.1305 39.6514 40.1602L39.4736 39.3096C39.6302 39.208 39.772 39.134 39.8989 39.0874C40.0259 39.0366 40.1888 39.0112 40.3877 39.0112C40.7051 39.0112 40.995 39.1064 41.2573 39.2969C41.5239 39.4873 41.763 39.7581 41.9746 40.1094L43.1616 42.0327H43.917V40.1157L42.8823 39.938V39.1318H46.2021V39.938L45.1675 40.1157V42.0327H45.9863L47.1733 40.1094C47.3807 39.7581 47.6156 39.4873 47.8779 39.2969C48.1445 39.1064 48.4408 39.0112 48.7666 39.0112C48.9613 39.0112 49.1221 39.0366 49.249 39.0874C49.3802 39.1382 49.522 39.2122 49.6743 39.3096L49.5029 40.1602C49.321 40.1305 49.2152 40.1136 49.1855 40.1094C49.1602 40.1051 49.1051 40.103 49.0205 40.103C48.8428 40.103 48.6841 40.1538 48.5444 40.2554C48.4048 40.3569 48.2778 40.4987 48.1636 40.6807L46.9766 42.458L48.7349 45.0605L49.7061 45.2002V46H47.7891L46.0054 43.0864H45.1675V45.0225L46.2021 45.2002V46H42.8823V45.2002L43.917 45.0225V43.0864H43.0728L41.2954 46H39.3784ZM50.7153 46V45.2002L51.75 45.0225V40.1157L50.7153 39.938V39.1318H52.9941H54.0288V39.938L52.9941 40.1157V43.9941L53.0322 44.0068L56.0601 39.1318H57.3105H58.3452V39.938L57.3105 40.1157V45.0225L58.3452 45.2002V46H55.0254V45.2002L56.0601 45.0225V41.1377L56.022 41.125L52.9941 46H50.7153ZM59.5767 46V45.2002L60.6113 45.0225V40.1157L59.5767 39.938V39.1318H60.6113H62.2236L64.458 44.3623H64.4961L66.7368 39.1318H68.3047H69.3394V39.938L68.3047 40.1157V45.0225L69.3394 45.2002V46H66.0195V45.2002L67.0542 45.0225V41.2329L67.0161 41.2202L64.9087 46H64.0454L61.8999 41.1187L61.8618 41.1313V45.0225L62.8965 45.2002V46H59.5767ZM73.7573 46V45.2002L74.792 45.0225V40.1157L73.7573 39.938V39.1318H76.0361H77.0708V39.938L76.0361 40.1157V43.9941L76.0742 44.0068L79.1021 39.1318H80.3525H81.3872V39.938L80.3525 40.1157V45.0225L81.3872 45.2002V46H78.0674V45.2002L79.1021 45.0225V41.1377L79.064 41.125L76.0361 46H73.7573ZM85.5767 46.1333C84.9546 46.1333 84.4129 45.9894 83.9517 45.7017C83.4904 45.4097 83.1328 45.0055 82.8789 44.4893C82.625 43.973 82.498 43.3763 82.498 42.6992V42.4326C82.498 41.7809 82.6208 41.1969 82.8662 40.6807C83.1117 40.1644 83.465 39.756 83.9263 39.4556C84.3875 39.1551 84.9377 39.0049 85.5767 39.0049C86.131 39.0049 86.6156 39.0959 87.0303 39.2778C87.4492 39.4598 87.8005 39.7095 88.084 40.0269L88.1157 41.6772H87.1382L86.9224 40.4775C86.7785 40.3294 86.5986 40.2109 86.3828 40.1221C86.167 40.0332 85.9131 39.9888 85.6211 39.9888C85.2487 39.9888 84.9207 40.0988 84.6372 40.3188C84.3579 40.5389 84.14 40.833 83.9834 41.2012C83.8268 41.5693 83.7485 41.9798 83.7485 42.4326V42.6992C83.7485 43.1986 83.8205 43.6323 83.9644 44.0005C84.1125 44.3687 84.3219 44.6543 84.5928 44.8574C84.8678 45.0563 85.1937 45.1558 85.5703 45.1558C85.9935 45.1558 86.3447 45.0394 86.624 44.8066C86.9033 44.5739 87.0747 44.2544 87.1382 43.8481H88.2617L88.2744 43.8862C88.2533 44.2798 88.1369 44.6479 87.9253 44.9907C87.7137 45.3335 87.4111 45.6107 87.0176 45.8223C86.6283 46.0296 86.1479 46.1333 85.5767 46.1333ZM92.6099 46.1333C91.9878 46.1333 91.4461 45.9894 90.9849 45.7017C90.5236 45.4097 90.166 45.0055 89.9121 44.4893C89.6582 43.973 89.5312 43.3763 89.5312 42.6992V42.4326C89.5312 41.7809 89.654 41.1969 89.8994 40.6807C90.1449 40.1644 90.4982 39.756 90.9595 39.4556C91.4207 39.1551 91.9709 39.0049 92.6099 39.0049C93.1642 39.0049 93.6488 39.0959 94.0635 39.2778C94.4824 39.4598 94.8337 39.7095 95.1172 40.0269L95.1489 41.6772H94.1714L93.9556 40.4775C93.8117 40.3294 93.6318 40.2109 93.416 40.1221C93.2002 40.0332 92.9463 39.9888 92.6543 39.9888C92.2819 39.9888 91.9539 40.0988 91.6704 40.3188C91.3911 40.5389 91.1732 40.833 91.0166 41.2012C90.86 41.5693 90.7817 41.9798 90.7817 42.4326V42.6992C90.7817 43.1986 90.8537 43.6323 90.9976 44.0005C91.1457 44.3687 91.3551 44.6543 91.626 44.8574C91.901 45.0563 92.2269 45.1558 92.6035 45.1558C93.0267 45.1558 93.3779 45.0394 93.6572 44.8066C93.9365 44.5739 94.1079 44.2544 94.1714 43.8481H95.2949L95.3076 43.8862C95.2865 44.2798 95.1701 44.6479 94.9585 44.9907C94.7469 45.3335 94.4443 45.6107 94.0508 45.8223C93.6615 46.0296 93.1812 46.1333 92.6099 46.1333ZM96.2534 46L96.2725 44.9336L96.5327 44.9272C96.8332 44.9272 97.0701 44.8341 97.2437 44.6479C97.4172 44.4575 97.542 44.1528 97.6182 43.7339C97.6943 43.3107 97.7324 42.7542 97.7324 42.0645V40.1157L96.6978 39.938V39.1318H102.563H103.598V39.938L102.563 40.1157V45.0225L103.598 45.2002V46H100.278V45.2002L101.312 45.0225V40.1221H98.9829V42.0645C98.9829 43.4186 98.8031 44.4131 98.4434 45.0479C98.0879 45.6826 97.4764 46 96.6089 46H96.2534ZM107.768 46.1333C107.133 46.1333 106.581 45.9894 106.111 45.7017C105.642 45.4097 105.278 45.0055 105.02 44.4893C104.766 43.973 104.639 43.3763 104.639 42.6992V42.4199C104.639 41.7682 104.772 41.1864 105.039 40.6743C105.309 40.158 105.667 39.7518 106.111 39.4556C106.56 39.1551 107.049 39.0049 107.578 39.0049C108.195 39.0049 108.712 39.1318 109.126 39.3857C109.545 39.6396 109.861 39.9972 110.072 40.4585C110.284 40.9155 110.39 41.4551 110.39 42.0771V42.8579H105.934L105.915 42.8896C105.923 43.3298 105.999 43.7212 106.143 44.064C106.291 44.4025 106.503 44.6691 106.778 44.8638C107.053 45.0584 107.383 45.1558 107.768 45.1558C108.191 45.1558 108.562 45.0965 108.879 44.978C109.201 44.8553 109.478 44.6882 109.71 44.4766L110.199 45.2891C109.954 45.526 109.628 45.7271 109.222 45.8921C108.82 46.0529 108.335 46.1333 107.768 46.1333ZM105.972 41.8804H109.139V41.7153C109.139 41.3853 109.08 41.0911 108.961 40.833C108.847 40.5706 108.674 40.3654 108.441 40.2173C108.212 40.0649 107.925 39.9888 107.578 39.9888C107.298 39.9888 107.044 40.0713 106.816 40.2363C106.587 40.3971 106.399 40.6172 106.251 40.8965C106.103 41.1758 106.006 41.4932 105.959 41.8486L105.972 41.8804ZM111.437 48.0186L111.316 45.0225H111.856C112.034 44.8193 112.188 44.6183 112.319 44.4194C112.451 44.2163 112.565 43.9941 112.662 43.7529C112.759 43.5075 112.838 43.2218 112.897 42.896C112.96 42.5659 113.007 42.1724 113.037 41.7153L113.1 40.1094L112.104 39.938V39.1318H117.626H118.661V39.938L117.626 40.1157V45.0225H118.54L118.413 48.0186H117.29V46H112.561V48.0186H111.437ZM113.297 45.0225H116.375V40.2427H114.344L114.287 41.7153C114.241 42.4771 114.131 43.1266 113.957 43.6641C113.788 44.2015 113.568 44.6543 113.297 45.0225ZM122.749 46.1333C122.114 46.1333 121.566 45.9852 121.104 45.689C120.647 45.3885 120.294 44.9759 120.044 44.4512C119.795 43.9222 119.67 43.3192 119.67 42.6421V42.5024C119.67 41.8254 119.795 41.2244 120.044 40.6997C120.294 40.1707 120.647 39.756 121.104 39.4556C121.566 39.1551 122.11 39.0049 122.736 39.0049C123.371 39.0049 123.917 39.1551 124.374 39.4556C124.835 39.756 125.19 40.1686 125.44 40.6934C125.69 41.2181 125.814 41.8211 125.814 42.5024V42.6421C125.814 43.3234 125.69 43.9285 125.44 44.4575C125.19 44.9823 124.837 45.3927 124.38 45.689C123.923 45.9852 123.379 46.1333 122.749 46.1333ZM122.749 45.1558C123.146 45.1558 123.479 45.0479 123.745 44.832C124.016 44.612 124.219 44.3136 124.354 43.937C124.494 43.5562 124.564 43.1245 124.564 42.6421V42.5024C124.564 42.02 124.494 41.5905 124.354 41.2139C124.219 40.833 124.016 40.5347 123.745 40.3188C123.474 40.0988 123.138 39.9888 122.736 39.9888C122.338 39.9888 122.004 40.0988 121.733 40.3188C121.462 40.5347 121.259 40.833 121.124 41.2139C120.988 41.5905 120.92 42.02 120.92 42.5024V42.6421C120.92 43.1245 120.988 43.5562 121.124 43.937C121.259 44.3136 121.462 44.612 121.733 44.832C122.008 45.0479 122.347 45.1558 122.749 45.1558ZM127.09 46V45.2002L128.125 45.0225V40.1157L127.09 39.938V39.1318H128.125H130.829C131.735 39.1318 132.437 39.2905 132.937 39.6079C133.436 39.9211 133.686 40.3929 133.686 41.0234C133.686 41.3451 133.588 41.6328 133.394 41.8867C133.199 42.1364 132.924 42.3268 132.568 42.458C132.996 42.5638 133.33 42.7627 133.571 43.0547C133.812 43.3424 133.933 43.6725 133.933 44.0449C133.933 44.6882 133.698 45.1748 133.229 45.5049C132.763 45.835 132.109 46 131.267 46H127.09ZM129.375 45.0352H131.267C131.733 45.0352 132.084 44.9484 132.321 44.7749C132.558 44.5972 132.676 44.3433 132.676 44.0132C132.676 43.6873 132.558 43.4355 132.321 43.2578C132.084 43.0801 131.733 42.9912 131.267 42.9912H129.375V45.0352ZM129.375 42.0327H130.835C131.364 42.0327 131.762 41.9544 132.029 41.7979C132.3 41.6413 132.435 41.4043 132.435 41.0869C132.435 40.431 131.9 40.103 130.829 40.103H129.375V42.0327ZM137.24 46.1333C136.525 46.1333 135.981 45.9598 135.609 45.6128C135.236 45.2616 135.05 44.7686 135.05 44.1338C135.05 43.6979 135.169 43.3192 135.406 42.9976C135.647 42.6717 135.994 42.4199 136.447 42.2422C136.9 42.0602 137.441 41.9692 138.072 41.9692H139.297V41.2964C139.297 40.8817 139.17 40.5601 138.916 40.3315C138.666 40.103 138.313 39.9888 137.856 39.9888C137.568 39.9888 137.319 40.0247 137.107 40.0967C136.895 40.1644 136.703 40.2596 136.529 40.3823L136.396 41.3408H135.431V39.7666C135.74 39.5169 136.1 39.3286 136.51 39.2017C136.921 39.0705 137.376 39.0049 137.875 39.0049C138.709 39.0049 139.362 39.2038 139.836 39.6016C140.31 39.9993 140.547 40.5685 140.547 41.3091V44.6162C140.547 44.7051 140.547 44.7918 140.547 44.8765C140.552 44.9611 140.558 45.0457 140.566 45.1304L141.233 45.2002V46H139.437C139.398 45.8138 139.369 45.6466 139.348 45.4985C139.326 45.3504 139.312 45.2023 139.303 45.0542C139.062 45.3631 138.759 45.6213 138.396 45.8286C138.036 46.0317 137.651 46.1333 137.24 46.1333ZM137.424 45.0859C137.839 45.0859 138.218 44.9865 138.561 44.7876C138.903 44.5887 139.149 44.3496 139.297 44.0703V42.8262H138.027C137.452 42.8262 137.02 42.9637 136.732 43.2388C136.445 43.5138 136.301 43.8206 136.301 44.1592C136.301 44.4596 136.394 44.6903 136.58 44.8511C136.766 45.0076 137.048 45.0859 137.424 45.0859ZM143.702 46V45.2002L144.737 45.0225V40.103H143.29L143.194 41.1758H142.128V39.1318H148.628V41.1758H147.555L147.46 40.103H145.987V45.0225L147.022 45.2002V46H143.702ZM152.252 46.1333C151.618 46.1333 151.065 45.9894 150.596 45.7017C150.126 45.4097 149.762 45.0055 149.504 44.4893C149.25 43.973 149.123 43.3763 149.123 42.6992V42.4199C149.123 41.7682 149.256 41.1864 149.523 40.6743C149.794 40.158 150.151 39.7518 150.596 39.4556C151.044 39.1551 151.533 39.0049 152.062 39.0049C152.68 39.0049 153.196 39.1318 153.611 39.3857C154.03 39.6396 154.345 39.9972 154.557 40.4585C154.768 40.9155 154.874 41.4551 154.874 42.0771V42.8579H150.418L150.399 42.8896C150.407 43.3298 150.484 43.7212 150.627 44.064C150.776 44.4025 150.987 44.6691 151.262 44.8638C151.537 45.0584 151.867 45.1558 152.252 45.1558C152.676 45.1558 153.046 45.0965 153.363 44.978C153.685 44.8553 153.962 44.6882 154.195 44.4766L154.684 45.2891C154.438 45.526 154.112 45.7271 153.706 45.8921C153.304 46.0529 152.819 46.1333 152.252 46.1333ZM150.456 41.8804H153.624V41.7153C153.624 41.3853 153.564 41.0911 153.446 40.833C153.332 40.5706 153.158 40.3654 152.925 40.2173C152.697 40.0649 152.409 39.9888 152.062 39.9888C151.783 39.9888 151.529 40.0713 151.3 40.2363C151.072 40.3971 150.883 40.6172 150.735 40.8965C150.587 41.1758 150.49 41.4932 150.443 41.8486L150.456 41.8804ZM155.82 46L155.839 44.9336L156.099 44.9272C156.4 44.9272 156.637 44.8341 156.81 44.6479C156.984 44.4575 157.108 44.1528 157.185 43.7339C157.261 43.3107 157.299 42.7542 157.299 42.0645V40.1157L156.264 39.938V39.1318H162.129H163.164V39.938L162.129 40.1157V45.0225L163.164 45.2002V46H159.844V45.2002L160.879 45.0225V40.1221H158.549V42.0645C158.549 43.4186 158.369 44.4131 158.01 45.0479C157.654 45.6826 157.043 46 156.175 46H155.82ZM164.148 46V45.2002L165.049 45.0669L166.224 43.1499C165.788 42.9933 165.451 42.7458 165.214 42.4072C164.982 42.0687 164.865 41.6772 164.865 41.2329C164.865 40.8224 164.971 40.4585 165.183 40.1411C165.394 39.8237 165.697 39.5762 166.09 39.3984C166.484 39.2207 166.954 39.1318 167.5 39.1318H171.435V39.938L170.4 40.1157V45.0225L171.435 45.2002V46H168.115V45.2002L169.15 45.0225V43.334H167.455L165.83 46H164.148ZM167.373 42.3501H169.15V40.103H167.5C167.047 40.103 166.704 40.2173 166.471 40.4458C166.238 40.6701 166.122 40.9367 166.122 41.2456C166.122 41.5503 166.226 41.8105 166.433 42.0264C166.645 42.2422 166.958 42.3501 167.373 42.3501Z" fill="#FCFCFF"/>
</g>
<defs>
<filter id="filter0_d_132_411" x="0" y="0" width="196" height="65" filterUnits="userSpaceOnUse" color-interpolation-filters="sRGB">
<feFlood flood-opacity="0" result="BackgroundImageFix"/>
<feColorMatrix in="SourceAlpha" type="matrix" values="0 0 0 0 0 0 0 0 0 0 0 0 0 0 0 0 0 0 127 0" result="hardAlpha"/>
<feOffset dy="4"/>
<feGaussianBlur stdDeviation="2"/>
<feComposite in2="hardAlpha" operator="out"/>
<feColorMatrix type="matrix" values="0 0 0 0 0 0 0 0 0 0 0 0 0 0 0 0 0 0 0.25 0"/>
<feBlend mode="normal" in2="BackgroundImageFix" result="effect1_dropShadow_132_411"/>
<feBlend mode="normal" in="SourceGraphic" in2="effect1_dropShadow_132_411" result="shape"/>
</filter>
</defs>
</svg>
