<svg width="151" height="65" viewBox="0 0 151 65" fill="none" xmlns="http://www.w3.org/2000/svg">
<g filter="url(#filter0_d_99_1214)">
<rect x="4" width="143" height="57" rx="8" fill="white" shape-rendering="crispEdges"/>
<path d="M75.7909 8.00113C68.2288 7.87372 59.5 18.5882 59.5 18.5882C59.5 18.5882 68.4644 28.116 75.7909 27.9989C82.9211 27.885 91.5 18.5882 91.5 18.5882C91.5 18.5882 83.163 8.12534 75.7909 8.00113Z" stroke="black"/>
<circle cx="75.5" cy="18" r="8" fill="black"/>
<path d="M25.3042 46V45.2002L26.3389 45.0225V37.7417L25.3042 37.564V36.7578H26.3389H29.5508C30.2109 36.7578 30.7738 36.8742 31.2393 37.1069C31.7048 37.3354 32.0602 37.6571 32.3057 38.0718C32.5511 38.4865 32.6738 38.971 32.6738 39.5254C32.6738 40.084 32.5511 40.5706 32.3057 40.9854C32.0602 41.4001 31.7048 41.7217 31.2393 41.9502C30.7738 42.1787 30.2109 42.293 29.5508 42.293H27.5894V45.0225L28.624 45.2002V46H25.3042ZM27.5894 41.3154H29.5508C30.1771 41.3154 30.6447 41.1483 30.9536 40.814C31.2668 40.4754 31.4233 40.0501 31.4233 39.5381C31.4233 39.026 31.2668 38.5986 30.9536 38.2559C30.6447 37.9131 30.1771 37.7417 29.5508 37.7417H27.5894V41.3154ZM36.5649 46.1333C35.9302 46.1333 35.3779 45.9894 34.9082 45.7017C34.4385 45.4097 34.0745 45.0055 33.8164 44.4893C33.5625 43.973 33.4355 43.3763 33.4355 42.6992V42.4199C33.4355 41.7682 33.5688 41.1864 33.8354 40.6743C34.1063 40.158 34.4639 39.7518 34.9082 39.4556C35.3568 39.1551 35.8455 39.0049 36.3745 39.0049C36.9924 39.0049 37.5086 39.1318 37.9233 39.3857C38.3423 39.6396 38.6576 39.9972 38.8691 40.4585C39.0807 40.9155 39.1865 41.4551 39.1865 42.0771V42.8579H34.7305L34.7114 42.8896C34.7199 43.3298 34.7961 43.7212 34.9399 44.064C35.0881 44.4025 35.2996 44.6691 35.5747 44.8638C35.8498 45.0584 36.1799 45.1558 36.5649 45.1558C36.9881 45.1558 37.3584 45.0965 37.6758 44.978C37.9974 44.8553 38.2746 44.6882 38.5073 44.4766L38.9961 45.2891C38.7507 45.526 38.4248 45.7271 38.0186 45.8921C37.6165 46.0529 37.132 46.1333 36.5649 46.1333ZM34.7686 41.8804H37.936V41.7153C37.936 41.3853 37.8768 41.0911 37.7583 40.833C37.644 40.5706 37.4705 40.3654 37.2378 40.2173C37.0093 40.0649 36.7215 39.9888 36.3745 39.9888C36.0952 39.9888 35.8413 40.0713 35.6128 40.2363C35.3843 40.3971 35.196 40.6172 35.0479 40.8965C34.8997 41.1758 34.8024 41.4932 34.7559 41.8486L34.7686 41.8804ZM39.9419 46V45.2002L40.9194 45.0605L42.7031 42.4072L41.5542 40.6807C41.4315 40.4987 41.3003 40.3569 41.1606 40.2554C41.0252 40.1538 40.8708 40.103 40.6973 40.103C40.6084 40.103 40.5513 40.1051 40.5259 40.1094C40.5005 40.1136 40.3968 40.1305 40.2148 40.1602L40.0371 39.3096C40.1937 39.208 40.3354 39.134 40.4624 39.0874C40.5894 39.0366 40.7523 39.0112 40.9512 39.0112C41.2686 39.0112 41.5584 39.1064 41.8208 39.2969C42.0874 39.4873 42.3265 39.7581 42.5381 40.1094L43.7251 42.0327H44.4805V40.1157L43.4458 39.938V39.1318H46.7656V39.938L45.731 40.1157V42.0327H46.5498L47.7368 40.1094C47.9442 39.7581 48.179 39.4873 48.4414 39.2969C48.708 39.1064 49.0042 39.0112 49.3301 39.0112C49.5247 39.0112 49.6855 39.0366 49.8125 39.0874C49.9437 39.1382 50.0854 39.2122 50.2378 39.3096L50.0664 40.1602C49.8844 40.1305 49.7786 40.1136 49.749 40.1094C49.7236 40.1051 49.6686 40.103 49.584 40.103C49.4062 40.103 49.2476 40.1538 49.1079 40.2554C48.9683 40.3569 48.8413 40.4987 48.7271 40.6807L47.54 42.458L49.2983 45.0605L50.2695 45.2002V46H48.3525L46.5688 43.0864H45.731V45.0225L46.7656 45.2002V46H43.4458V45.2002L44.4805 45.0225V43.0864H43.6362L41.8589 46H39.9419ZM51.2788 46V45.2002L52.3135 45.0225V40.1157L51.2788 39.938V39.1318H53.5576H54.5923V39.938L53.5576 40.1157V43.9941L53.5957 44.0068L56.6235 39.1318H57.874H58.9087V39.938L57.874 40.1157V45.0225L58.9087 45.2002V46H55.5889V45.2002L56.6235 45.0225V41.1377L56.5854 41.125L53.5576 46H51.2788ZM60.1401 46V45.2002L61.1748 45.0225V40.1157L60.1401 39.938V39.1318H61.1748H62.7871L65.0215 44.3623H65.0596L67.3003 39.1318H68.8682H69.9028V39.938L68.8682 40.1157V45.0225L69.9028 45.2002V46H66.583V45.2002L67.6177 45.0225V41.2329L67.5796 41.2202L65.4722 46H64.6089L62.4634 41.1187L62.4253 41.1313V45.0225L63.46 45.2002V46H60.1401ZM75.7744 46V45.2002L76.8091 45.0225V40.103H75.3618L75.2666 41.1758H74.2002V39.1318H80.7002V41.1758H79.6274L79.5322 40.103H78.0596V45.0225L79.0942 45.2002V46H75.7744ZM83.271 48.7739C83.1737 48.7739 83.0467 48.7612 82.8901 48.7358C82.7336 48.7147 82.613 48.6935 82.5283 48.6724L82.6553 47.6885C82.7272 47.6969 82.8267 47.7033 82.9536 47.7075C83.0806 47.716 83.1673 47.7202 83.2139 47.7202C83.4805 47.7202 83.6963 47.6187 83.8613 47.4155C84.0306 47.2124 84.1872 46.9352 84.3311 46.584L84.6294 45.8604L82.1982 40.0396L81.4619 39.938V39.1318H84.3438V39.938L83.5122 40.0649L84.8516 43.499L85.1753 44.394H85.2134L86.8003 40.0649L85.9243 39.938V39.1318H88.749V39.938L88.0381 40.0396L85.334 47.0537C85.207 47.3838 85.0526 47.6779 84.8706 47.936C84.6929 48.1984 84.4728 48.4036 84.2104 48.5518C83.9523 48.6999 83.6392 48.7739 83.271 48.7739ZM89.1553 48.6406V47.8345L90.1265 47.6567V40.1157L89.0918 39.938V39.1318H91.1992L91.3135 39.9697C91.542 39.6566 91.8192 39.4175 92.145 39.2524C92.4751 39.0874 92.856 39.0049 93.2876 39.0049C93.8547 39.0049 94.3392 39.1593 94.7412 39.4683C95.1432 39.7729 95.45 40.2025 95.6616 40.7568C95.8732 41.307 95.979 41.9523 95.979 42.6929V42.8262C95.979 43.4863 95.8711 44.064 95.6553 44.5591C95.4437 45.0542 95.139 45.4414 94.7412 45.7207C94.3434 45.9958 93.8652 46.1333 93.3066 46.1333C92.8835 46.1333 92.5111 46.0635 92.1895 45.9238C91.8721 45.7799 91.6012 45.5684 91.377 45.2891V47.6567L92.4688 47.8345V48.6406H89.1553ZM92.9194 45.1558C93.5119 45.1558 93.9604 44.9399 94.2651 44.5083C94.5698 44.0767 94.7222 43.516 94.7222 42.8262V42.6929C94.7222 42.1681 94.6545 41.7069 94.519 41.3091C94.3836 40.9071 94.1805 40.5918 93.9097 40.3633C93.6431 40.1348 93.3088 40.0205 92.9067 40.0205C92.5513 40.0205 92.2466 40.1009 91.9927 40.2617C91.7388 40.4225 91.5335 40.6426 91.377 40.9219V44.2671C91.5335 44.5506 91.7367 44.7707 91.9863 44.9272C92.2402 45.0796 92.5513 45.1558 92.9194 45.1558ZM97.3628 46V45.2002L98.3975 45.0225V40.1157L97.3628 39.938V39.1318H99.6416H100.676V39.938L99.6416 40.1157V43.9941L99.6797 44.0068L102.708 39.1318H103.958H104.993V39.938L103.958 40.1157V45.0225L104.993 45.2002V46H101.673V45.2002L102.708 45.0225V41.1377L102.669 41.125L99.6416 46H97.3628ZM109.182 46.1333C108.56 46.1333 108.018 45.9894 107.557 45.7017C107.096 45.4097 106.738 45.0055 106.484 44.4893C106.23 43.973 106.104 43.3763 106.104 42.6992V42.4326C106.104 41.7809 106.226 41.1969 106.472 40.6807C106.717 40.1644 107.07 39.756 107.532 39.4556C107.993 39.1551 108.543 39.0049 109.182 39.0049C109.736 39.0049 110.221 39.0959 110.636 39.2778C111.055 39.4598 111.406 39.7095 111.689 40.0269L111.721 41.6772H110.744L110.528 40.4775C110.384 40.3294 110.204 40.2109 109.988 40.1221C109.772 40.0332 109.519 39.9888 109.227 39.9888C108.854 39.9888 108.526 40.0988 108.243 40.3188C107.963 40.5389 107.745 40.833 107.589 41.2012C107.432 41.5693 107.354 41.9798 107.354 42.4326V42.6992C107.354 43.1986 107.426 43.6323 107.57 44.0005C107.718 44.3687 107.927 44.6543 108.198 44.8574C108.473 45.0563 108.799 45.1558 109.176 45.1558C109.599 45.1558 109.95 45.0394 110.229 44.8066C110.509 44.5739 110.68 44.2544 110.744 43.8481H111.867L111.88 43.8862C111.859 44.2798 111.742 44.6479 111.531 44.9907C111.319 45.3335 111.017 45.6107 110.623 45.8223C110.234 46.0296 109.753 46.1333 109.182 46.1333ZM114.457 46V45.2002L115.492 45.0225V40.103H114.044L113.949 41.1758H112.883V39.1318H119.383V41.1758H118.31L118.215 40.103H116.742V45.0225L117.777 45.2002V46H114.457ZM122.506 46.1333C121.791 46.1333 121.247 45.9598 120.875 45.6128C120.502 45.2616 120.316 44.7686 120.316 44.1338C120.316 43.6979 120.434 43.3192 120.671 42.9976C120.913 42.6717 121.26 42.4199 121.712 42.2422C122.165 42.0602 122.707 41.9692 123.337 41.9692H124.562V41.2964C124.562 40.8817 124.436 40.5601 124.182 40.3315C123.932 40.103 123.579 39.9888 123.122 39.9888C122.834 39.9888 122.584 40.0247 122.373 40.0967C122.161 40.1644 121.968 40.2596 121.795 40.3823L121.662 41.3408H120.697V39.7666C121.006 39.5169 121.365 39.3286 121.776 39.2017C122.186 39.0705 122.641 39.0049 123.141 39.0049C123.974 39.0049 124.628 39.2038 125.102 39.6016C125.576 39.9993 125.813 40.5685 125.813 41.3091V44.6162C125.813 44.7051 125.813 44.7918 125.813 44.8765C125.817 44.9611 125.824 45.0457 125.832 45.1304L126.499 45.2002V46H124.702C124.664 45.8138 124.634 45.6466 124.613 45.4985C124.592 45.3504 124.577 45.2023 124.569 45.0542C124.328 45.3631 124.025 45.6213 123.661 45.8286C123.301 46.0317 122.916 46.1333 122.506 46.1333ZM122.69 45.0859C123.105 45.0859 123.483 44.9865 123.826 44.7876C124.169 44.5887 124.414 44.3496 124.562 44.0703V42.8262H123.293C122.717 42.8262 122.286 42.9637 121.998 43.2388C121.71 43.5138 121.566 43.8206 121.566 44.1592C121.566 44.4596 121.66 44.6903 121.846 44.8511C122.032 45.0076 122.313 45.0859 122.69 45.0859Z" fill="black"/>
</g>
<defs>
<filter id="filter0_d_99_1214" x="0" y="0" width="151" height="65" filterUnits="userSpaceOnUse" color-interpolation-filters="sRGB">
<feFlood flood-opacity="0" result="BackgroundImageFix"/>
<feColorMatrix in="SourceAlpha" type="matrix" values="0 0 0 0 0 0 0 0 0 0 0 0 0 0 0 0 0 0 127 0" result="hardAlpha"/>
<feOffset dy="4"/>
<feGaussianBlur stdDeviation="2"/>
<feComposite in2="hardAlpha" operator="out"/>
<feColorMatrix type="matrix" values="0 0 0 0 0 0 0 0 0 0 0 0 0 0 0 0 0 0 0.25 0"/>
<feBlend mode="normal" in2="BackgroundImageFix" result="effect1_dropShadow_99_1214"/>
<feBlend mode="normal" in="SourceGraphic" in2="effect1_dropShadow_99_1214" result="shape"/>
</filter>
</defs>
</svg>
