<svg width="143" height="48" viewBox="0 0 143 48" fill="none" xmlns="http://www.w3.org/2000/svg">
<rect width="143" height="48" rx="8" fill="white"/>
<g clip-path="url(#clip0_185_479)">
<path d="M70.4019 13.7231C67.8646 13.9379 66.3582 15.6387 66.2737 18.4002C66.2293 19.8593 66.7803 21.3184 67.7535 22.3075C68.5533 23.1221 69.562 23.5518 70.6774 23.5518C70.704 23.5518 70.7351 23.5518 70.7618 23.5518C72.0549 23.5249 73.2858 22.9073 74.2278 21.8018C75.0454 20.844 75.5787 19.5908 75.6587 18.445C75.7298 17.3798 75.2232 16.2205 74.2634 15.2672C73.1791 14.1886 71.7349 13.6112 70.4019 13.7231ZM74.8144 18.3823C74.6944 20.1189 73.1791 22.6521 70.744 22.7014C69.8286 22.7193 69.0066 22.3746 68.3534 21.7122C67.5535 20.8977 67.078 19.64 67.118 18.4271C67.158 17.0888 67.6513 14.8062 70.473 14.569C71.5616 14.4795 72.757 14.9629 73.6724 15.8714C74.4411 16.6413 74.8721 17.5812 74.8144 18.3823Z" fill="black"/>
<path d="M83.4217 11.5255C83.2928 11.3331 83.0307 11.2794 82.8351 11.4136L78.587 14.3139C77.7072 13.3785 76.7074 12.6266 75.6054 12.076C74.2278 11.3868 72.6948 11.0108 71.0373 10.9616L70.7129 6.51274C70.6952 6.28001 70.4952 6.10098 70.2597 6.11888C70.0286 6.13678 69.8509 6.33819 69.8686 6.5754L70.1886 10.9616C68.5533 11.0243 67.0469 11.4226 65.705 12.1521C65.0029 12.5326 64.3452 13.0025 63.7409 13.5575L60.2038 10.3484C60.0305 10.1918 59.7638 10.2052 59.6083 10.3797C59.4528 10.5543 59.4661 10.8228 59.6394 10.9795L63.141 14.1528C62.9499 14.3542 62.7677 14.569 62.59 14.7883C61.0703 16.6726 60.5237 18.5434 60.5015 18.6195C60.4837 18.6777 60.4793 18.7404 60.4882 18.7985C60.497 18.8746 60.7681 20.6291 62.1812 22.3881C63.0077 23.4175 64.0564 24.2365 65.3006 24.8184C66.8025 25.5211 68.5933 25.8791 70.6196 25.8791C70.6641 25.8791 70.7129 25.8791 70.7574 25.8791C72.8414 25.8612 74.6811 25.4584 76.2186 24.6841C77.4583 24.0575 78.507 23.1847 79.3336 22.0971C80.7377 20.2442 81.0088 18.4092 81.0177 18.3331C81.0266 18.2659 81.0221 18.1988 80.9999 18.1361C80.9777 18.069 80.4622 16.5741 79.1514 14.9584L83.3106 12.1208C83.5017 11.9821 83.555 11.718 83.4217 11.5255ZM78.667 21.578C76.9518 23.8382 74.29 25.0019 70.7529 25.0287C70.7085 25.0287 70.6596 25.0287 70.6152 25.0287C67.1625 25.0287 64.5541 23.9725 62.8655 21.8868C61.759 20.5217 61.4169 19.1253 61.3458 18.7672C61.4702 18.3823 62.0212 16.8516 63.2521 15.3254C63.5009 15.0166 63.7631 14.7257 64.0342 14.4571C64.0475 14.4437 64.0608 14.4347 64.0742 14.4213C65.8338 12.6803 68.0423 11.7985 70.6507 11.7985C73.6768 11.7985 76.2008 12.904 78.1516 15.0792C79.418 16.4936 80.0223 17.9303 80.169 18.3107C80.0934 18.6956 79.7601 20.1323 78.667 21.578Z" fill="black"/>
</g>
<path d="M21.3042 41V40.2002L22.3389 40.0225V32.7417L21.3042 32.564V31.7578H22.3389H25.5508C26.2109 31.7578 26.7738 31.8742 27.2393 32.1069C27.7048 32.3354 28.0602 32.6571 28.3057 33.0718C28.5511 33.4865 28.6738 33.971 28.6738 34.5254C28.6738 35.084 28.5511 35.5706 28.3057 35.9854C28.0602 36.4001 27.7048 36.7217 27.2393 36.9502C26.7738 37.1787 26.2109 37.293 25.5508 37.293H23.5894V40.0225L24.624 40.2002V41H21.3042ZM23.5894 36.3154H25.5508C26.1771 36.3154 26.6447 36.1483 26.9536 35.814C27.2668 35.4754 27.4233 35.0501 27.4233 34.5381C27.4233 34.026 27.2668 33.5986 26.9536 33.2559C26.6447 32.9131 26.1771 32.7417 25.5508 32.7417H23.5894V36.3154ZM32.5649 41.1333C31.9302 41.1333 31.3779 40.9894 30.9082 40.7017C30.4385 40.4097 30.0745 40.0055 29.8164 39.4893C29.5625 38.973 29.4355 38.3763 29.4355 37.6992V37.4199C29.4355 36.7682 29.5688 36.1864 29.8354 35.6743C30.1063 35.158 30.4639 34.7518 30.9082 34.4556C31.3568 34.1551 31.8455 34.0049 32.3745 34.0049C32.9924 34.0049 33.5086 34.1318 33.9233 34.3857C34.3423 34.6396 34.6576 34.9972 34.8691 35.4585C35.0807 35.9155 35.1865 36.4551 35.1865 37.0771V37.8579H30.7305L30.7114 37.8896C30.7199 38.3298 30.7961 38.7212 30.9399 39.064C31.0881 39.4025 31.2996 39.6691 31.5747 39.8638C31.8498 40.0584 32.1799 40.1558 32.5649 40.1558C32.9881 40.1558 33.3584 40.0965 33.6758 39.978C33.9974 39.8553 34.2746 39.6882 34.5073 39.4766L34.9961 40.2891C34.7507 40.526 34.4248 40.7271 34.0186 40.8921C33.6165 41.0529 33.132 41.1333 32.5649 41.1333ZM30.7686 36.8804H33.936V36.7153C33.936 36.3853 33.8768 36.0911 33.7583 35.833C33.644 35.5706 33.4705 35.3654 33.2378 35.2173C33.0093 35.0649 32.7215 34.9888 32.3745 34.9888C32.0952 34.9888 31.8413 35.0713 31.6128 35.2363C31.3843 35.3971 31.196 35.6172 31.0479 35.8965C30.8997 36.1758 30.8024 36.4932 30.7559 36.8486L30.7686 36.8804ZM35.9419 41V40.2002L36.9194 40.0605L38.7031 37.4072L37.5542 35.6807C37.4315 35.4987 37.3003 35.3569 37.1606 35.2554C37.0252 35.1538 36.8708 35.103 36.6973 35.103C36.6084 35.103 36.5513 35.1051 36.5259 35.1094C36.5005 35.1136 36.3968 35.1305 36.2148 35.1602L36.0371 34.3096C36.1937 34.208 36.3354 34.134 36.4624 34.0874C36.5894 34.0366 36.7523 34.0112 36.9512 34.0112C37.2686 34.0112 37.5584 34.1064 37.8208 34.2969C38.0874 34.4873 38.3265 34.7581 38.5381 35.1094L39.7251 37.0327H40.4805V35.1157L39.4458 34.938V34.1318H42.7656V34.938L41.731 35.1157V37.0327H42.5498L43.7368 35.1094C43.9442 34.7581 44.179 34.4873 44.4414 34.2969C44.708 34.1064 45.0042 34.0112 45.3301 34.0112C45.5247 34.0112 45.6855 34.0366 45.8125 34.0874C45.9437 34.1382 46.0854 34.2122 46.2378 34.3096L46.0664 35.1602C45.8844 35.1305 45.7786 35.1136 45.749 35.1094C45.7236 35.1051 45.6686 35.103 45.584 35.103C45.4062 35.103 45.2476 35.1538 45.1079 35.2554C44.9683 35.3569 44.8413 35.4987 44.7271 35.6807L43.54 37.458L45.2983 40.0605L46.2695 40.2002V41H44.3525L42.5688 38.0864H41.731V40.0225L42.7656 40.2002V41H39.4458V40.2002L40.4805 40.0225V38.0864H39.6362L37.8589 41H35.9419ZM47.2788 41V40.2002L48.3135 40.0225V35.1157L47.2788 34.938V34.1318H49.5576H50.5923V34.938L49.5576 35.1157V38.9941L49.5957 39.0068L52.6235 34.1318H53.874H54.9087V34.938L53.874 35.1157V40.0225L54.9087 40.2002V41H51.5889V40.2002L52.6235 40.0225V36.1377L52.5854 36.125L49.5576 41H47.2788ZM56.1401 41V40.2002L57.1748 40.0225V35.1157L56.1401 34.938V34.1318H57.1748H58.7871L61.0215 39.3623H61.0596L63.3003 34.1318H64.8682H65.9028V34.938L64.8682 35.1157V40.0225L65.9028 40.2002V41H62.583V40.2002L63.6177 40.0225V36.2329L63.5796 36.2202L61.4722 41H60.6089L58.4634 36.1187L58.4253 36.1313V40.0225L59.46 40.2002V41H56.1401ZM71.7744 41V40.2002L72.8091 40.0225V35.103H71.3618L71.2666 36.1758H70.2002V34.1318H76.7002V36.1758H75.6274L75.5322 35.103H74.0596V40.0225L75.0942 40.2002V41H71.7744ZM79.271 43.7739C79.1737 43.7739 79.0467 43.7612 78.8901 43.7358C78.7336 43.7147 78.613 43.6935 78.5283 43.6724L78.6553 42.6885C78.7272 42.6969 78.8267 42.7033 78.9536 42.7075C79.0806 42.716 79.1673 42.7202 79.2139 42.7202C79.4805 42.7202 79.6963 42.6187 79.8613 42.4155C80.0306 42.2124 80.1872 41.9352 80.3311 41.584L80.6294 40.8604L78.1982 35.0396L77.4619 34.938V34.1318H80.3438V34.938L79.5122 35.0649L80.8516 38.499L81.1753 39.394H81.2134L82.8003 35.0649L81.9243 34.938V34.1318H84.749V34.938L84.0381 35.0396L81.334 42.0537C81.207 42.3838 81.0526 42.6779 80.8706 42.936C80.6929 43.1984 80.4728 43.4036 80.2104 43.5518C79.9523 43.6999 79.6392 43.7739 79.271 43.7739ZM85.1553 43.6406V42.8345L86.1265 42.6567V35.1157L85.0918 34.938V34.1318H87.1992L87.3135 34.9697C87.542 34.6566 87.8192 34.4175 88.145 34.2524C88.4751 34.0874 88.856 34.0049 89.2876 34.0049C89.8547 34.0049 90.3392 34.1593 90.7412 34.4683C91.1432 34.7729 91.45 35.2025 91.6616 35.7568C91.8732 36.307 91.979 36.9523 91.979 37.6929V37.8262C91.979 38.4863 91.8711 39.064 91.6553 39.5591C91.4437 40.0542 91.139 40.4414 90.7412 40.7207C90.3434 40.9958 89.8652 41.1333 89.3066 41.1333C88.8835 41.1333 88.5111 41.0635 88.1895 40.9238C87.8721 40.7799 87.6012 40.5684 87.377 40.2891V42.6567L88.4688 42.8345V43.6406H85.1553ZM88.9194 40.1558C89.5119 40.1558 89.9604 39.9399 90.2651 39.5083C90.5698 39.0767 90.7222 38.516 90.7222 37.8262V37.6929C90.7222 37.1681 90.6545 36.7069 90.519 36.3091C90.3836 35.9071 90.1805 35.5918 89.9097 35.3633C89.6431 35.1348 89.3088 35.0205 88.9067 35.0205C88.5513 35.0205 88.2466 35.1009 87.9927 35.2617C87.7388 35.4225 87.5335 35.6426 87.377 35.9219V39.2671C87.5335 39.5506 87.7367 39.7707 87.9863 39.9272C88.2402 40.0796 88.5513 40.1558 88.9194 40.1558ZM93.3628 41V40.2002L94.3975 40.0225V35.1157L93.3628 34.938V34.1318H95.6416H96.6763V34.938L95.6416 35.1157V38.9941L95.6797 39.0068L98.7075 34.1318H99.958H100.993V34.938L99.958 35.1157V40.0225L100.993 40.2002V41H97.6729V40.2002L98.7075 40.0225V36.1377L98.6694 36.125L95.6416 41H93.3628ZM105.182 41.1333C104.56 41.1333 104.018 40.9894 103.557 40.7017C103.096 40.4097 102.738 40.0055 102.484 39.4893C102.23 38.973 102.104 38.3763 102.104 37.6992V37.4326C102.104 36.7809 102.226 36.1969 102.472 35.6807C102.717 35.1644 103.07 34.756 103.532 34.4556C103.993 34.1551 104.543 34.0049 105.182 34.0049C105.736 34.0049 106.221 34.0959 106.636 34.2778C107.055 34.4598 107.406 34.7095 107.689 35.0269L107.721 36.6772H106.744L106.528 35.4775C106.384 35.3294 106.204 35.2109 105.988 35.1221C105.772 35.0332 105.519 34.9888 105.227 34.9888C104.854 34.9888 104.526 35.0988 104.243 35.3188C103.963 35.5389 103.745 35.833 103.589 36.2012C103.432 36.5693 103.354 36.9798 103.354 37.4326V37.6992C103.354 38.1986 103.426 38.6323 103.57 39.0005C103.718 39.3687 103.927 39.6543 104.198 39.8574C104.473 40.0563 104.799 40.1558 105.176 40.1558C105.599 40.1558 105.95 40.0394 106.229 39.8066C106.509 39.5739 106.68 39.2544 106.744 38.8481H107.867L107.88 38.8862C107.859 39.2798 107.742 39.6479 107.531 39.9907C107.319 40.3335 107.017 40.6107 106.623 40.8223C106.234 41.0296 105.753 41.1333 105.182 41.1333ZM110.457 41V40.2002L111.492 40.0225V35.103H110.044L109.949 36.1758H108.883V34.1318H115.383V36.1758H114.31L114.215 35.103H112.742V40.0225L113.777 40.2002V41H110.457ZM118.506 41.1333C117.791 41.1333 117.247 40.9598 116.875 40.6128C116.502 40.2616 116.316 39.7686 116.316 39.1338C116.316 38.6979 116.434 38.3192 116.671 37.9976C116.913 37.6717 117.26 37.4199 117.712 37.2422C118.165 37.0602 118.707 36.9692 119.337 36.9692H120.562V36.2964C120.562 35.8817 120.436 35.5601 120.182 35.3315C119.932 35.103 119.579 34.9888 119.122 34.9888C118.834 34.9888 118.584 35.0247 118.373 35.0967C118.161 35.1644 117.968 35.2596 117.795 35.3823L117.662 36.3408H116.697V34.7666C117.006 34.5169 117.365 34.3286 117.776 34.2017C118.186 34.0705 118.641 34.0049 119.141 34.0049C119.974 34.0049 120.628 34.2038 121.102 34.6016C121.576 34.9993 121.813 35.5685 121.813 36.3091V39.6162C121.813 39.7051 121.813 39.7918 121.813 39.8765C121.817 39.9611 121.824 40.0457 121.832 40.1304L122.499 40.2002V41H120.702C120.664 40.8138 120.634 40.6466 120.613 40.4985C120.592 40.3504 120.577 40.2023 120.569 40.0542C120.328 40.3631 120.025 40.6213 119.661 40.8286C119.301 41.0317 118.916 41.1333 118.506 41.1333ZM118.69 40.0859C119.105 40.0859 119.483 39.9865 119.826 39.7876C120.169 39.5887 120.414 39.3496 120.562 39.0703V37.8262H119.293C118.717 37.8262 118.286 37.9637 117.998 38.2388C117.71 38.5138 117.566 38.8206 117.566 39.1592C117.566 39.4596 117.66 39.6903 117.846 39.8511C118.032 40.0076 118.313 40.0859 118.69 40.0859Z" fill="black"/>
<defs>
<clipPath id="clip0_185_479">
<rect width="24" height="24" fill="white" transform="translate(59.5 4)"/>
</clipPath>
</defs>
</svg>
