<svg width="156" height="78" viewBox="0 0 156 78" fill="none" xmlns="http://www.w3.org/2000/svg">
<g clip-path="url(#clip0_274_1174)">
<path d="M5.5598 0.620728C5.5598 0.620728 4.45435 9.47393 4.45435 12.4468C4.45435 15.4196 5.5598 24.2728 5.5598 24.2728" stroke="#FCFCFF" stroke-width="2" stroke-miterlimit="10" stroke-linecap="round"/>
<path d="M21.3289 0.620728C21.3289 0.620728 22.1092 9.93129 22.1092 13.0348C22.1092 15.8443 21.3289 24.2402 21.3289 24.2402" stroke="#FCFCFF" stroke-width="2" stroke-miterlimit="10" stroke-linecap="round"/>
<path d="M0.617798 19.8625H12.2251H24.125" stroke="#FCFCFF" stroke-width="2" stroke-miterlimit="10" stroke-linecap="round"/>
<path d="M1.073 4.01831H14.2409H24.125" stroke="#FCFCFF" stroke-width="2" stroke-miterlimit="10" stroke-linecap="round"/>
<path d="M9.39636 7.97117L9.4939 0.620728" stroke="#FCFCFF" stroke-width="2" stroke-miterlimit="10" stroke-linecap="round"/>
<path d="M13.4606 4.01827V0.620728" stroke="#FCFCFF" stroke-width="2" stroke-miterlimit="10" stroke-linecap="round"/>
<path d="M13.4606 24.2401V19.8625" stroke="#FCFCFF" stroke-width="2" stroke-miterlimit="10" stroke-linecap="round"/>
<path d="M17.3947 24.2402V15.9097" stroke="#FCFCFF" stroke-width="2" stroke-miterlimit="10" stroke-linecap="round"/>
<path d="M22.0767 11.9568H24.125" stroke="#FCFCFF" stroke-width="2" stroke-miterlimit="10" stroke-linecap="round"/>
<path d="M17.3947 15.9097H24.1249" stroke="#FCFCFF" stroke-width="2" stroke-miterlimit="10" stroke-linecap="round"/>
<path d="M1.78833 7.97119H9.39646" stroke="#FCFCFF" stroke-width="2" stroke-miterlimit="10" stroke-linecap="round"/>
<path d="M1.78833 11.9568H4.45443" stroke="#FCFCFF" stroke-width="2" stroke-miterlimit="10" stroke-linecap="round"/>
<path d="M1.78833 15.9096C1.78833 15.9096 6.5678 15.5503 8.19346 15.5503C11.3147 15.5503 14.5986 15.9096 14.5986 15.9096" stroke="#FCFCFF" stroke-width="2" stroke-miterlimit="10" stroke-linecap="round"/>
<path d="M11.9974 7.97119C11.9974 7.97119 15.6389 8.33055 18.2725 8.39588C20.0933 8.42855 24.1574 7.97119 24.1574 7.97119" stroke="#FCFCFF" stroke-width="2" stroke-miterlimit="10" stroke-linecap="round"/>
<path d="M9.4939 24.2401V14.6682V11.4014" stroke="#FCFCFF" stroke-width="2" stroke-miterlimit="10" stroke-linecap="round"/>
<path d="M17.3947 13.4595V8.95123V0.620728" stroke="#FCFCFF" stroke-width="2" stroke-miterlimit="10" stroke-linecap="round"/>
<path d="M31.0827 0.620728C31.0827 0.620728 29.9773 9.47393 29.9773 12.4468C29.9773 15.4196 31.0827 24.2728 31.0827 24.2728" stroke="#FCFCFF" stroke-width="2" stroke-miterlimit="10" stroke-linecap="round"/>
<path d="M46.8518 0.620728C46.8518 0.620728 47.6321 9.93129 47.6321 13.0348C47.6321 15.8443 46.8518 24.2402 46.8518 24.2402" stroke="#FCFCFF" stroke-width="2" stroke-miterlimit="10" stroke-linecap="round"/>
<path d="M26.1407 19.8625H37.7155H49.6479" stroke="#FCFCFF" stroke-width="2" stroke-miterlimit="10" stroke-linecap="round"/>
<path d="M26.5959 4.01831H39.7313H49.6479" stroke="#FCFCFF" stroke-width="2" stroke-miterlimit="10" stroke-linecap="round"/>
<path d="M34.9193 7.97117L35.0169 0.620728" stroke="#FCFCFF" stroke-width="2" stroke-miterlimit="10" stroke-linecap="round"/>
<path d="M38.951 4.01827V0.620728" stroke="#FCFCFF" stroke-width="2" stroke-miterlimit="10" stroke-linecap="round"/>
<path d="M38.951 24.2401V19.8625" stroke="#FCFCFF" stroke-width="2" stroke-miterlimit="10" stroke-linecap="round"/>
<path d="M42.9176 24.2402V15.9097" stroke="#FCFCFF" stroke-width="2" stroke-miterlimit="10" stroke-linecap="round"/>
<path d="M47.5996 11.9568H49.648" stroke="#FCFCFF" stroke-width="2" stroke-miterlimit="10" stroke-linecap="round"/>
<path d="M42.9176 15.9097H49.6479" stroke="#FCFCFF" stroke-width="2" stroke-miterlimit="10" stroke-linecap="round"/>
<path d="M27.3113 7.97119H34.9194" stroke="#FCFCFF" stroke-width="2" stroke-miterlimit="10" stroke-linecap="round"/>
<path d="M27.3113 11.9568H29.9774" stroke="#FCFCFF" stroke-width="2" stroke-miterlimit="10" stroke-linecap="round"/>
<path d="M27.3113 15.9096C27.3113 15.9096 32.0907 15.5503 33.7164 15.5503C36.8377 15.5503 40.1215 15.9096 40.1215 15.9096" stroke="#FCFCFF" stroke-width="2" stroke-miterlimit="10" stroke-linecap="round"/>
<path d="M37.5204 7.97119C37.5204 7.97119 41.1619 8.33055 43.7955 8.39588C45.6162 8.42855 49.6804 7.97119 49.6804 7.97119" stroke="#FCFCFF" stroke-width="2" stroke-miterlimit="10" stroke-linecap="round"/>
<path d="M35.0168 24.2401V14.6682V11.4014" stroke="#FCFCFF" stroke-width="2" stroke-miterlimit="10" stroke-linecap="round"/>
<path d="M42.9176 13.4595V8.95123V0.620728" stroke="#FCFCFF" stroke-width="2" stroke-miterlimit="10" stroke-linecap="round"/>
<path d="M56.0856 0.620728C56.0856 0.620728 54.9801 9.47393 54.9801 12.4468C54.9801 15.4196 56.0856 24.2728 56.0856 24.2728" stroke="#FCFCFF" stroke-width="2" stroke-miterlimit="10" stroke-linecap="round"/>
<path d="M71.8546 0.620728C71.8546 0.620728 72.6349 9.93129 72.6349 13.0348C72.6349 15.8443 71.8546 24.2402 71.8546 24.2402" stroke="#FCFCFF" stroke-width="2" stroke-miterlimit="10" stroke-linecap="round"/>
<path d="M51.1436 19.8625H62.7183H74.6507" stroke="#FCFCFF" stroke-width="2" stroke-miterlimit="10" stroke-linecap="round"/>
<path d="M51.5988 4.01831H64.7342H74.6507" stroke="#FCFCFF" stroke-width="2" stroke-miterlimit="10" stroke-linecap="round"/>
<path d="M59.8896 7.97117L60.0197 0.620728" stroke="#FCFCFF" stroke-width="2" stroke-miterlimit="10" stroke-linecap="round"/>
<path d="M63.9539 4.01827V0.620728" stroke="#FCFCFF" stroke-width="2" stroke-miterlimit="10" stroke-linecap="round"/>
<path d="M63.9539 24.2401V19.8625" stroke="#FCFCFF" stroke-width="2" stroke-miterlimit="10" stroke-linecap="round"/>
<path d="M67.8879 24.2402V15.9097" stroke="#FCFCFF" stroke-width="2" stroke-miterlimit="10" stroke-linecap="round"/>
<path d="M72.6024 11.9568H74.6508" stroke="#FCFCFF" stroke-width="2" stroke-miterlimit="10" stroke-linecap="round"/>
<path d="M67.8879 15.9097H74.6507" stroke="#FCFCFF" stroke-width="2" stroke-miterlimit="10" stroke-linecap="round"/>
<path d="M52.3141 7.97119H59.8897" stroke="#FCFCFF" stroke-width="2" stroke-miterlimit="10" stroke-linecap="round"/>
<path d="M52.3141 11.9568H54.9802" stroke="#FCFCFF" stroke-width="2" stroke-miterlimit="10" stroke-linecap="round"/>
<path d="M52.3141 15.9096C52.3141 15.9096 57.0936 15.5503 58.7192 15.5503C61.8405 15.5503 65.1244 15.9096 65.1244 15.9096" stroke="#FCFCFF" stroke-width="2" stroke-miterlimit="10" stroke-linecap="round"/>
<path d="M62.5232 7.97119C62.5232 7.97119 66.1647 8.33055 68.7983 8.39588C70.619 8.42855 74.6832 7.97119 74.6832 7.97119" stroke="#FCFCFF" stroke-width="2" stroke-miterlimit="10" stroke-linecap="round"/>
<path d="M60.0197 24.2401V14.6682V11.4014" stroke="#FCFCFF" stroke-width="2" stroke-miterlimit="10" stroke-linecap="round"/>
<path d="M67.8879 13.4595V8.95123V0.620728" stroke="#FCFCFF" stroke-width="2" stroke-miterlimit="10" stroke-linecap="round"/>
<path d="M81.6086 0.620728C81.6086 0.620728 80.5032 9.47393 80.5032 12.4468C80.5032 15.4196 81.6086 24.2728 81.6086 24.2728" stroke="#FCFCFF" stroke-width="2" stroke-miterlimit="10" stroke-linecap="round"/>
<path d="M97.3451 0.620728C97.3451 0.620728 98.1254 9.93129 98.1254 13.0348C98.1254 15.8443 97.3451 24.2402 97.3451 24.2402" stroke="#FCFCFF" stroke-width="2" stroke-miterlimit="10" stroke-linecap="round"/>
<path d="M76.634 19.8625H88.2413H100.174" stroke="#FCFCFF" stroke-width="2" stroke-miterlimit="10" stroke-linecap="round"/>
<path d="M77.1217 4.01831H90.2571H100.174" stroke="#FCFCFF" stroke-width="2" stroke-miterlimit="10" stroke-linecap="round"/>
<path d="M85.4126 7.97117L85.5426 0.620728" stroke="#FCFCFF" stroke-width="2" stroke-miterlimit="10" stroke-linecap="round"/>
<path d="M89.4768 4.01827V0.620728" stroke="#FCFCFF" stroke-width="2" stroke-miterlimit="10" stroke-linecap="round"/>
<path d="M89.4768 24.2401V19.8625" stroke="#FCFCFF" stroke-width="2" stroke-miterlimit="10" stroke-linecap="round"/>
<path d="M93.4109 24.2402V15.9097" stroke="#FCFCFF" stroke-width="2" stroke-miterlimit="10" stroke-linecap="round"/>
<path d="M98.1254 11.9568H100.174" stroke="#FCFCFF" stroke-width="2" stroke-miterlimit="10" stroke-linecap="round"/>
<path d="M93.4109 15.9097H100.174" stroke="#FCFCFF" stroke-width="2" stroke-miterlimit="10" stroke-linecap="round"/>
<path d="M77.8046 7.97119H85.4127" stroke="#FCFCFF" stroke-width="2" stroke-miterlimit="10" stroke-linecap="round"/>
<path d="M77.8046 11.9568H80.4707" stroke="#FCFCFF" stroke-width="2" stroke-miterlimit="10" stroke-linecap="round"/>
<path d="M77.8046 15.9096C77.8046 15.9096 82.584 15.5503 84.2097 15.5503C87.331 15.5503 90.6148 15.9096 90.6148 15.9096" stroke="#FCFCFF" stroke-width="2" stroke-miterlimit="10" stroke-linecap="round"/>
<path d="M88.0137 7.97119C88.0137 7.97119 91.6552 8.33055 94.2887 8.39588C96.1095 8.42855 100.174 7.97119 100.174 7.97119" stroke="#FCFCFF" stroke-width="2" stroke-miterlimit="10" stroke-linecap="round"/>
<path d="M85.5427 24.2401V14.6682V11.4014" stroke="#FCFCFF" stroke-width="2" stroke-miterlimit="10" stroke-linecap="round"/>
<path d="M93.4109 13.4595V8.95123V0.620728" stroke="#FCFCFF" stroke-width="2" stroke-miterlimit="10" stroke-linecap="round"/>
<path d="M106.741 0.620728C106.741 0.620728 105.636 9.47393 105.636 12.4468C105.636 15.4196 106.741 24.2728 106.741 24.2728" stroke="#FCFCFF" stroke-width="2" stroke-miterlimit="10" stroke-linecap="round"/>
<path d="M122.51 0.620728C122.51 0.620728 123.291 9.93129 123.291 13.0348C123.291 15.8443 122.51 24.2402 122.51 24.2402" stroke="#FCFCFF" stroke-width="2" stroke-miterlimit="10" stroke-linecap="round"/>
<path d="M101.799 19.8625H113.407H125.306" stroke="#FCFCFF" stroke-width="2" stroke-miterlimit="10" stroke-linecap="round"/>
<path d="M102.287 4.01831H115.422H125.306" stroke="#FCFCFF" stroke-width="2" stroke-miterlimit="10" stroke-linecap="round"/>
<path d="M110.578 7.97117L110.708 0.620728" stroke="#FCFCFF" stroke-width="2" stroke-miterlimit="10" stroke-linecap="round"/>
<path d="M114.642 4.01827V0.620728" stroke="#FCFCFF" stroke-width="2" stroke-miterlimit="10" stroke-linecap="round"/>
<path d="M114.642 24.2401V19.8625" stroke="#FCFCFF" stroke-width="2" stroke-miterlimit="10" stroke-linecap="round"/>
<path d="M118.576 24.2402V15.9097" stroke="#FCFCFF" stroke-width="2" stroke-miterlimit="10" stroke-linecap="round"/>
<path d="M123.258 11.9568H125.307" stroke="#FCFCFF" stroke-width="2" stroke-miterlimit="10" stroke-linecap="round"/>
<path d="M118.576 15.9097H125.306" stroke="#FCFCFF" stroke-width="2" stroke-miterlimit="10" stroke-linecap="round"/>
<path d="M102.97 7.97119H110.578" stroke="#FCFCFF" stroke-width="2" stroke-miterlimit="10" stroke-linecap="round"/>
<path d="M102.97 11.9568H105.636" stroke="#FCFCFF" stroke-width="2" stroke-miterlimit="10" stroke-linecap="round"/>
<path d="M102.97 15.9096C102.97 15.9096 107.749 15.5503 109.375 15.5503C112.496 15.5503 115.78 15.9096 115.78 15.9096" stroke="#FCFCFF" stroke-width="2" stroke-miterlimit="10" stroke-linecap="round"/>
<path d="M113.179 7.97119C113.179 7.97119 116.82 8.33055 119.454 8.39588C121.275 8.42855 125.339 7.97119 125.339 7.97119" stroke="#FCFCFF" stroke-width="2" stroke-miterlimit="10" stroke-linecap="round"/>
<path d="M110.708 24.2401V14.6682V11.4014" stroke="#FCFCFF" stroke-width="2" stroke-miterlimit="10" stroke-linecap="round"/>
<path d="M118.576 13.4595V8.95123V0.620728" stroke="#FCFCFF" stroke-width="2" stroke-miterlimit="10" stroke-linecap="round"/>
<path d="M132.264 0.620728C132.264 0.620728 131.159 9.47393 131.159 12.4468C131.159 15.4196 132.264 24.2728 132.264 24.2728" stroke="#FCFCFF" stroke-width="2" stroke-miterlimit="10" stroke-linecap="round"/>
<path d="M148.033 0.620728C148.033 0.620728 148.814 9.93129 148.814 13.0348C148.814 15.8443 148.033 24.2402 148.033 24.2402" stroke="#FCFCFF" stroke-width="2" stroke-miterlimit="10" stroke-linecap="round"/>
<path d="M127.322 19.8625H138.897H150.83" stroke="#FCFCFF" stroke-width="2" stroke-miterlimit="10" stroke-linecap="round"/>
<path d="M127.778 4.01831H140.946H150.83" stroke="#FCFCFF" stroke-width="2" stroke-miterlimit="10" stroke-linecap="round"/>
<path d="M136.101 7.97117L136.198 0.620728" stroke="#FCFCFF" stroke-width="2" stroke-miterlimit="10" stroke-linecap="round"/>
<path d="M140.165 4.01827V0.620728" stroke="#FCFCFF" stroke-width="2" stroke-miterlimit="10" stroke-linecap="round"/>
<path d="M140.165 24.2401V19.8625" stroke="#FCFCFF" stroke-width="2" stroke-miterlimit="10" stroke-linecap="round"/>
<path d="M144.099 24.2402V15.9097" stroke="#FCFCFF" stroke-width="2" stroke-miterlimit="10" stroke-linecap="round"/>
<path d="M148.781 11.9568H150.83" stroke="#FCFCFF" stroke-width="2" stroke-miterlimit="10" stroke-linecap="round"/>
<path d="M144.099 15.9097H150.83" stroke="#FCFCFF" stroke-width="2" stroke-miterlimit="10" stroke-linecap="round"/>
<path d="M128.493 7.97119H136.101" stroke="#FCFCFF" stroke-width="2" stroke-miterlimit="10" stroke-linecap="round"/>
<path d="M128.493 11.9568H131.159" stroke="#FCFCFF" stroke-width="2" stroke-miterlimit="10" stroke-linecap="round"/>
<path d="M128.493 15.9096C128.493 15.9096 133.272 15.5503 134.898 15.5503C138.019 15.5503 141.303 15.9096 141.303 15.9096" stroke="#FCFCFF" stroke-width="2" stroke-miterlimit="10" stroke-linecap="round"/>
<path d="M138.702 7.97119C138.702 7.97119 142.344 8.33055 144.977 8.39588C146.798 8.42855 150.862 7.97119 150.862 7.97119" stroke="#FCFCFF" stroke-width="2" stroke-miterlimit="10" stroke-linecap="round"/>
<path d="M136.198 24.2401V14.6682V11.4014" stroke="#FCFCFF" stroke-width="2" stroke-miterlimit="10" stroke-linecap="round"/>
<path d="M144.099 13.4595V8.95123V0.620728" stroke="#FCFCFF" stroke-width="2" stroke-miterlimit="10" stroke-linecap="round"/>
<path d="M106.741 26.6903C106.741 26.6903 105.636 35.5435 105.636 38.5164C105.636 41.4892 106.741 50.3424 106.741 50.3424" stroke="#FCFCFF" stroke-width="2" stroke-miterlimit="10" stroke-linecap="round"/>
<path d="M122.51 26.6903C122.51 26.6903 123.291 36.0009 123.291 39.1044C123.291 41.9139 122.51 50.3097 122.51 50.3097" stroke="#FCFCFF" stroke-width="2" stroke-miterlimit="10" stroke-linecap="round"/>
<path d="M101.799 45.9321H113.407H125.306" stroke="#FCFCFF" stroke-width="2" stroke-miterlimit="10" stroke-linecap="round"/>
<path d="M102.287 30.0879H115.422H125.306" stroke="#FCFCFF" stroke-width="2" stroke-miterlimit="10" stroke-linecap="round"/>
<path d="M110.578 34.0408L110.708 26.6903" stroke="#FCFCFF" stroke-width="2" stroke-miterlimit="10" stroke-linecap="round"/>
<path d="M114.642 30.0878V26.6903" stroke="#FCFCFF" stroke-width="2" stroke-miterlimit="10" stroke-linecap="round"/>
<path d="M114.642 50.3097V45.9321" stroke="#FCFCFF" stroke-width="2" stroke-miterlimit="10" stroke-linecap="round"/>
<path d="M118.576 50.3097V41.9465" stroke="#FCFCFF" stroke-width="2" stroke-miterlimit="10" stroke-linecap="round"/>
<path d="M123.258 37.9937H125.307" stroke="#FCFCFF" stroke-width="2" stroke-miterlimit="10" stroke-linecap="round"/>
<path d="M118.576 41.9465H125.306" stroke="#FCFCFF" stroke-width="2" stroke-miterlimit="10" stroke-linecap="round"/>
<path d="M102.97 34.0408H110.578" stroke="#FCFCFF" stroke-width="2" stroke-miterlimit="10" stroke-linecap="round"/>
<path d="M102.97 37.9937H105.636" stroke="#FCFCFF" stroke-width="2" stroke-miterlimit="10" stroke-linecap="round"/>
<path d="M102.97 41.9465C102.97 41.9465 107.749 41.5872 109.375 41.5872C112.496 41.5872 115.78 41.9465 115.78 41.9465" stroke="#FCFCFF" stroke-width="2" stroke-miterlimit="10" stroke-linecap="round"/>
<path d="M113.179 34.0408C113.179 34.0408 116.82 34.4001 119.454 34.4655C121.275 34.4981 125.339 34.0408 125.339 34.0408" stroke="#FCFCFF" stroke-width="2" stroke-miterlimit="10" stroke-linecap="round"/>
<path d="M110.708 50.3097V40.7378V37.4709" stroke="#FCFCFF" stroke-width="2" stroke-miterlimit="10" stroke-linecap="round"/>
<path d="M118.576 39.5291V34.9881V26.6903" stroke="#FCFCFF" stroke-width="2" stroke-miterlimit="10" stroke-linecap="round"/>
<path d="M132.264 26.6903C132.264 26.6903 131.159 35.5435 131.159 38.5164C131.159 41.4892 132.264 50.3424 132.264 50.3424" stroke="#FCFCFF" stroke-width="2" stroke-miterlimit="10" stroke-linecap="round"/>
<path d="M148.033 26.6903C148.033 26.6903 148.814 36.0009 148.814 39.1044C148.814 41.9139 148.033 50.3097 148.033 50.3097" stroke="#FCFCFF" stroke-width="2" stroke-miterlimit="10" stroke-linecap="round"/>
<path d="M127.322 45.9321H138.897H150.83" stroke="#FCFCFF" stroke-width="2" stroke-miterlimit="10" stroke-linecap="round"/>
<path d="M127.778 30.0879H140.946H150.83" stroke="#FCFCFF" stroke-width="2" stroke-miterlimit="10" stroke-linecap="round"/>
<path d="M136.101 34.0408L136.198 26.6903" stroke="#FCFCFF" stroke-width="2" stroke-miterlimit="10" stroke-linecap="round"/>
<path d="M140.165 30.0878V26.6903" stroke="#FCFCFF" stroke-width="2" stroke-miterlimit="10" stroke-linecap="round"/>
<path d="M140.165 50.3097V45.9321" stroke="#FCFCFF" stroke-width="2" stroke-miterlimit="10" stroke-linecap="round"/>
<path d="M144.099 50.3097V41.9465" stroke="#FCFCFF" stroke-width="2" stroke-miterlimit="10" stroke-linecap="round"/>
<path d="M148.781 37.9937H150.83" stroke="#FCFCFF" stroke-width="2" stroke-miterlimit="10" stroke-linecap="round"/>
<path d="M144.099 41.9465H150.83" stroke="#FCFCFF" stroke-width="2" stroke-miterlimit="10" stroke-linecap="round"/>
<path d="M128.493 34.0408H136.101" stroke="#FCFCFF" stroke-width="2" stroke-miterlimit="10" stroke-linecap="round"/>
<path d="M128.493 37.9937H131.159" stroke="#FCFCFF" stroke-width="2" stroke-miterlimit="10" stroke-linecap="round"/>
<path d="M128.493 41.9465C128.493 41.9465 133.272 41.5872 134.898 41.5872C138.019 41.5872 141.303 41.9465 141.303 41.9465" stroke="#FCFCFF" stroke-width="2" stroke-miterlimit="10" stroke-linecap="round"/>
<path d="M138.702 34.0408C138.702 34.0408 142.344 34.4001 144.977 34.4655C146.798 34.4981 150.862 34.0408 150.862 34.0408" stroke="#FCFCFF" stroke-width="2" stroke-miterlimit="10" stroke-linecap="round"/>
<path d="M136.198 50.3097V40.7378V37.4709" stroke="#FCFCFF" stroke-width="2" stroke-miterlimit="10" stroke-linecap="round"/>
<path d="M144.099 39.5291V34.9881V26.6903" stroke="#FCFCFF" stroke-width="2" stroke-miterlimit="10" stroke-linecap="round"/>
<path d="M106.741 52.7599C106.741 52.7599 105.636 61.6131 105.636 64.5859C105.636 67.5588 106.741 76.412 106.741 76.412" stroke="#FCFCFF" stroke-width="2" stroke-miterlimit="10" stroke-linecap="round"/>
<path d="M122.51 52.7599C122.51 52.7599 123.291 62.0705 123.291 65.174C123.291 67.9835 122.51 76.3793 122.51 76.3793" stroke="#FCFCFF" stroke-width="2" stroke-miterlimit="10" stroke-linecap="round"/>
<path d="M101.799 71.969H113.407H125.306" stroke="#FCFCFF" stroke-width="2" stroke-miterlimit="10" stroke-linecap="round"/>
<path d="M102.287 56.1575H115.422H125.306" stroke="#FCFCFF" stroke-width="2" stroke-miterlimit="10" stroke-linecap="round"/>
<path d="M110.578 60.1103L110.708 52.7599" stroke="#FCFCFF" stroke-width="2" stroke-miterlimit="10" stroke-linecap="round"/>
<path d="M114.642 56.1574V52.7599" stroke="#FCFCFF" stroke-width="2" stroke-miterlimit="10" stroke-linecap="round"/>
<path d="M114.642 76.3793V71.969" stroke="#FCFCFF" stroke-width="2" stroke-miterlimit="10" stroke-linecap="round"/>
<path d="M118.576 76.3793V68.0161" stroke="#FCFCFF" stroke-width="2" stroke-miterlimit="10" stroke-linecap="round"/>
<path d="M123.258 64.0632H125.307" stroke="#FCFCFF" stroke-width="2" stroke-miterlimit="10" stroke-linecap="round"/>
<path d="M118.576 68.0161H125.306" stroke="#FCFCFF" stroke-width="2" stroke-miterlimit="10" stroke-linecap="round"/>
<path d="M102.97 60.1104H110.578" stroke="#FCFCFF" stroke-width="2" stroke-miterlimit="10" stroke-linecap="round"/>
<path d="M102.97 64.0632H105.636" stroke="#FCFCFF" stroke-width="2" stroke-miterlimit="10" stroke-linecap="round"/>
<path d="M102.97 68.0161C102.97 68.0161 107.749 67.6567 109.375 67.6567C112.496 67.6567 115.78 68.0161 115.78 68.0161" stroke="#FCFCFF" stroke-width="2" stroke-miterlimit="10" stroke-linecap="round"/>
<path d="M113.179 60.1104C113.179 60.1104 116.82 60.4697 119.454 60.535C121.275 60.5677 125.339 60.1104 125.339 60.1104" stroke="#FCFCFF" stroke-width="2" stroke-miterlimit="10" stroke-linecap="round"/>
<path d="M110.708 76.3793V66.8074V63.5405" stroke="#FCFCFF" stroke-width="2" stroke-miterlimit="10" stroke-linecap="round"/>
<path d="M118.576 65.5987V61.0577V52.7599" stroke="#FCFCFF" stroke-width="2" stroke-miterlimit="10" stroke-linecap="round"/>
<path d="M132.264 52.7599C132.264 52.7599 131.159 61.6131 131.159 64.5859C131.159 67.5588 132.264 76.412 132.264 76.412" stroke="#FCFCFF" stroke-width="2" stroke-miterlimit="10" stroke-linecap="round"/>
<path d="M148.033 52.7599C148.033 52.7599 148.814 62.0705 148.814 65.174C148.814 67.9835 148.033 76.3793 148.033 76.3793" stroke="#FCFCFF" stroke-width="2" stroke-miterlimit="10" stroke-linecap="round"/>
<path d="M127.322 71.969H138.897H150.83" stroke="#FCFCFF" stroke-width="2" stroke-miterlimit="10" stroke-linecap="round"/>
<path d="M127.778 56.1575H140.946H150.83" stroke="#FCFCFF" stroke-width="2" stroke-miterlimit="10" stroke-linecap="round"/>
<path d="M136.101 60.1103L136.198 52.7599" stroke="#FCFCFF" stroke-width="2" stroke-miterlimit="10" stroke-linecap="round"/>
<path d="M140.165 56.1574V52.7599" stroke="#FCFCFF" stroke-width="2" stroke-miterlimit="10" stroke-linecap="round"/>
<path d="M140.165 76.3793V71.969" stroke="#FCFCFF" stroke-width="2" stroke-miterlimit="10" stroke-linecap="round"/>
<path d="M144.099 76.3793V68.0161" stroke="#FCFCFF" stroke-width="2" stroke-miterlimit="10" stroke-linecap="round"/>
<path d="M148.781 64.0632H150.83" stroke="#FCFCFF" stroke-width="2" stroke-miterlimit="10" stroke-linecap="round"/>
<path d="M144.099 68.0161H150.83" stroke="#FCFCFF" stroke-width="2" stroke-miterlimit="10" stroke-linecap="round"/>
<path d="M128.493 60.1104H136.101" stroke="#FCFCFF" stroke-width="2" stroke-miterlimit="10" stroke-linecap="round"/>
<path d="M128.493 64.0632H131.159" stroke="#FCFCFF" stroke-width="2" stroke-miterlimit="10" stroke-linecap="round"/>
<path d="M128.493 68.0161C128.493 68.0161 133.272 67.6567 134.898 67.6567C138.019 67.6567 141.303 68.0161 141.303 68.0161" stroke="#FCFCFF" stroke-width="2" stroke-miterlimit="10" stroke-linecap="round"/>
<path d="M138.702 60.1104C138.702 60.1104 142.344 60.4697 144.977 60.535C146.798 60.5677 150.862 60.1104 150.862 60.1104" stroke="#FCFCFF" stroke-width="2" stroke-miterlimit="10" stroke-linecap="round"/>
<path d="M136.198 76.3793V66.8074V63.5405" stroke="#FCFCFF" stroke-width="2" stroke-miterlimit="10" stroke-linecap="round"/>
<path d="M144.099 65.5987V61.0577V52.7599" stroke="#FCFCFF" stroke-width="2" stroke-miterlimit="10" stroke-linecap="round"/>
<path d="M56.9634 52.7599C56.9634 52.7599 55.8579 61.6131 55.8579 64.5859C55.8579 67.5588 56.9634 76.412 56.9634 76.412" stroke="#FCFCFF" stroke-width="2" stroke-miterlimit="10" stroke-linecap="round"/>
<path d="M72.7324 52.7599C72.7324 52.7599 73.5127 62.0705 73.5127 65.174C73.5127 67.9835 72.7324 76.3793 72.7324 76.3793" stroke="#FCFCFF" stroke-width="2" stroke-miterlimit="10" stroke-linecap="round"/>
<path d="M52.0214 71.969H63.5961H75.5285" stroke="#FCFCFF" stroke-width="2" stroke-miterlimit="10" stroke-linecap="round"/>
<path d="M52.4766 56.1575H65.612H75.5285" stroke="#FCFCFF" stroke-width="2" stroke-miterlimit="10" stroke-linecap="round"/>
<path d="M60.7675 60.1103L60.8975 52.7599" stroke="#FCFCFF" stroke-width="2" stroke-miterlimit="10" stroke-linecap="round"/>
<path d="M64.8317 56.1574V52.7599" stroke="#FCFCFF" stroke-width="2" stroke-miterlimit="10" stroke-linecap="round"/>
<path d="M64.8317 76.3793V71.969" stroke="#FCFCFF" stroke-width="2" stroke-miterlimit="10" stroke-linecap="round"/>
<path d="M68.7657 76.3793V68.0161" stroke="#FCFCFF" stroke-width="2" stroke-miterlimit="10" stroke-linecap="round"/>
<path d="M73.4802 64.0632H75.5286" stroke="#FCFCFF" stroke-width="2" stroke-miterlimit="10" stroke-linecap="round"/>
<path d="M68.7657 68.0161H75.5285" stroke="#FCFCFF" stroke-width="2" stroke-miterlimit="10" stroke-linecap="round"/>
<path d="M53.1919 60.1104H60.7675" stroke="#FCFCFF" stroke-width="2" stroke-miterlimit="10" stroke-linecap="round"/>
<path d="M53.1919 64.0632H55.858" stroke="#FCFCFF" stroke-width="2" stroke-miterlimit="10" stroke-linecap="round"/>
<path d="M53.1919 68.0161C53.1919 68.0161 57.9714 67.6567 59.597 67.6567C62.7183 67.6567 66.0022 68.0161 66.0022 68.0161" stroke="#FCFCFF" stroke-width="2" stroke-miterlimit="10" stroke-linecap="round"/>
<path d="M63.401 60.1104C63.401 60.1104 67.0425 60.4697 69.6761 60.535C71.4968 60.5677 75.561 60.1104 75.561 60.1104" stroke="#FCFCFF" stroke-width="2" stroke-miterlimit="10" stroke-linecap="round"/>
<path d="M60.8975 76.3793V66.8074V63.5405" stroke="#FCFCFF" stroke-width="2" stroke-miterlimit="10" stroke-linecap="round"/>
<path d="M68.7657 65.5987V61.0577V52.7599" stroke="#FCFCFF" stroke-width="2" stroke-miterlimit="10" stroke-linecap="round"/>
<path d="M82.4864 52.7599C82.4864 52.7599 81.381 61.6131 81.381 64.5859C81.381 67.5588 82.4864 76.412 82.4864 76.412" stroke="#FCFCFF" stroke-width="2" stroke-miterlimit="10" stroke-linecap="round"/>
<path d="M98.2229 52.7599C98.2229 52.7599 99.0032 62.0705 99.0032 65.174C99.0032 67.9835 98.2229 76.3793 98.2229 76.3793" stroke="#FCFCFF" stroke-width="2" stroke-miterlimit="10" stroke-linecap="round"/>
<path d="M77.5118 71.969H89.1191H101.052" stroke="#FCFCFF" stroke-width="2" stroke-miterlimit="10" stroke-linecap="round"/>
<path d="M77.9995 56.1575H91.1349H101.051" stroke="#FCFCFF" stroke-width="2" stroke-miterlimit="10" stroke-linecap="round"/>
<path d="M86.2904 60.1103L86.4205 52.7599" stroke="#FCFCFF" stroke-width="2" stroke-miterlimit="10" stroke-linecap="round"/>
<path d="M90.3546 56.1574V52.7599" stroke="#FCFCFF" stroke-width="2" stroke-miterlimit="10" stroke-linecap="round"/>
<path d="M90.3546 76.3793V71.969" stroke="#FCFCFF" stroke-width="2" stroke-miterlimit="10" stroke-linecap="round"/>
<path d="M94.2887 76.3793V68.0161" stroke="#FCFCFF" stroke-width="2" stroke-miterlimit="10" stroke-linecap="round"/>
<path d="M99.0032 64.0632H101.052" stroke="#FCFCFF" stroke-width="2" stroke-miterlimit="10" stroke-linecap="round"/>
<path d="M94.2887 68.0161H101.051" stroke="#FCFCFF" stroke-width="2" stroke-miterlimit="10" stroke-linecap="round"/>
<path d="M78.6824 60.1104H86.2905" stroke="#FCFCFF" stroke-width="2" stroke-miterlimit="10" stroke-linecap="round"/>
<path d="M78.6824 64.0632H81.3485" stroke="#FCFCFF" stroke-width="2" stroke-miterlimit="10" stroke-linecap="round"/>
<path d="M78.6824 68.0161C78.6824 68.0161 83.4618 67.6567 85.0875 67.6567C88.2088 67.6567 91.4926 68.0161 91.4926 68.0161" stroke="#FCFCFF" stroke-width="2" stroke-miterlimit="10" stroke-linecap="round"/>
<path d="M88.8915 60.1104C88.8915 60.1104 92.533 60.4697 95.1666 60.535C96.9873 60.5677 101.051 60.1104 101.051 60.1104" stroke="#FCFCFF" stroke-width="2" stroke-miterlimit="10" stroke-linecap="round"/>
<path d="M86.4205 76.3793V66.8074V63.5405" stroke="#FCFCFF" stroke-width="2" stroke-miterlimit="10" stroke-linecap="round"/>
<path d="M94.2887 65.5987V61.0577V52.7599" stroke="#FCFCFF" stroke-width="2" stroke-miterlimit="10" stroke-linecap="round"/>
<path d="M5.98241 52.7599C5.98241 52.7599 4.87695 61.6131 4.87695 64.5859C4.87695 67.5588 5.98241 76.412 5.98241 76.412" stroke="#FCFCFF" stroke-width="2" stroke-miterlimit="10" stroke-linecap="round"/>
<path d="M21.7515 52.7599C21.7515 52.7599 22.5318 62.0705 22.5318 65.174C22.5318 67.9835 21.7515 76.3793 21.7515 76.3793" stroke="#FCFCFF" stroke-width="2" stroke-miterlimit="10" stroke-linecap="round"/>
<path d="M1.04041 71.969H12.6152H24.5476" stroke="#FCFCFF" stroke-width="2" stroke-miterlimit="10" stroke-linecap="round"/>
<path d="M1.49561 56.1575H14.631H24.5476" stroke="#FCFCFF" stroke-width="2" stroke-miterlimit="10" stroke-linecap="round"/>
<path d="M9.7865 60.1103L9.91655 52.7599" stroke="#FCFCFF" stroke-width="2" stroke-miterlimit="10" stroke-linecap="round"/>
<path d="M13.8507 56.1574V52.7599" stroke="#FCFCFF" stroke-width="2" stroke-miterlimit="10" stroke-linecap="round"/>
<path d="M13.8507 76.3793V71.969" stroke="#FCFCFF" stroke-width="2" stroke-miterlimit="10" stroke-linecap="round"/>
<path d="M17.8173 76.3793V68.0161" stroke="#FCFCFF" stroke-width="2" stroke-miterlimit="10" stroke-linecap="round"/>
<path d="M22.4993 64.0632H24.5476" stroke="#FCFCFF" stroke-width="2" stroke-miterlimit="10" stroke-linecap="round"/>
<path d="M17.8173 68.0161H24.5475" stroke="#FCFCFF" stroke-width="2" stroke-miterlimit="10" stroke-linecap="round"/>
<path d="M2.21094 60.1104H9.78655" stroke="#FCFCFF" stroke-width="2" stroke-miterlimit="10" stroke-linecap="round"/>
<path d="M2.21094 64.0632H4.87703" stroke="#FCFCFF" stroke-width="2" stroke-miterlimit="10" stroke-linecap="round"/>
<path d="M2.21094 68.0161C2.21094 68.0161 6.9904 67.6567 8.61607 67.6567C11.7374 67.6567 15.0212 68.0161 15.0212 68.0161" stroke="#FCFCFF" stroke-width="2" stroke-miterlimit="10" stroke-linecap="round"/>
<path d="M12.42 60.1104C12.42 60.1104 16.0615 60.4697 18.6951 60.535C20.5159 60.5677 24.58 60.1104 24.58 60.1104" stroke="#FCFCFF" stroke-width="2" stroke-miterlimit="10" stroke-linecap="round"/>
<path d="M9.9165 76.3793V66.8074V63.5405" stroke="#FCFCFF" stroke-width="2" stroke-miterlimit="10" stroke-linecap="round"/>
<path d="M17.8173 65.5987V61.0577V52.7599" stroke="#FCFCFF" stroke-width="2" stroke-miterlimit="10" stroke-linecap="round"/>
<path d="M31.5055 52.7599C31.5055 52.7599 30.4 61.6131 30.4 64.5859C30.4 67.5588 31.5055 76.412 31.5055 76.412" stroke="#FCFCFF" stroke-width="2" stroke-miterlimit="10" stroke-linecap="round"/>
<path d="M47.2419 52.7599C47.2419 52.7599 48.0223 62.0705 48.0223 65.174C48.0223 67.9835 47.2419 76.3793 47.2419 76.3793" stroke="#FCFCFF" stroke-width="2" stroke-miterlimit="10" stroke-linecap="round"/>
<path d="M26.5635 71.969H38.1382H50.0706" stroke="#FCFCFF" stroke-width="2" stroke-miterlimit="10" stroke-linecap="round"/>
<path d="M27.0187 56.1575H40.1541H50.0707" stroke="#FCFCFF" stroke-width="2" stroke-miterlimit="10" stroke-linecap="round"/>
<path d="M35.3096 60.1103L35.4396 52.7599" stroke="#FCFCFF" stroke-width="2" stroke-miterlimit="10" stroke-linecap="round"/>
<path d="M39.3738 56.1574V52.7599" stroke="#FCFCFF" stroke-width="2" stroke-miterlimit="10" stroke-linecap="round"/>
<path d="M39.3738 76.3793V71.969" stroke="#FCFCFF" stroke-width="2" stroke-miterlimit="10" stroke-linecap="round"/>
<path d="M43.3079 76.3793V68.0161" stroke="#FCFCFF" stroke-width="2" stroke-miterlimit="10" stroke-linecap="round"/>
<path d="M48.0223 64.0632H50.0707" stroke="#FCFCFF" stroke-width="2" stroke-miterlimit="10" stroke-linecap="round"/>
<path d="M43.3079 68.0161H50.0706" stroke="#FCFCFF" stroke-width="2" stroke-miterlimit="10" stroke-linecap="round"/>
<path d="M27.734 60.1104H35.3096" stroke="#FCFCFF" stroke-width="2" stroke-miterlimit="10" stroke-linecap="round"/>
<path d="M27.734 64.0632H30.4001" stroke="#FCFCFF" stroke-width="2" stroke-miterlimit="10" stroke-linecap="round"/>
<path d="M27.734 68.0161C27.734 68.0161 32.5135 67.6567 34.1391 67.6567C37.2604 67.6567 40.5443 68.0161 40.5443 68.0161" stroke="#FCFCFF" stroke-width="2" stroke-miterlimit="10" stroke-linecap="round"/>
<path d="M37.9431 60.1104C37.9431 60.1104 41.5846 60.4697 44.2182 60.535C46.0389 60.5677 50.1031 60.1104 50.1031 60.1104" stroke="#FCFCFF" stroke-width="2" stroke-miterlimit="10" stroke-linecap="round"/>
<path d="M35.4396 76.3793V66.8074V63.5405" stroke="#FCFCFF" stroke-width="2" stroke-miterlimit="10" stroke-linecap="round"/>
<path d="M43.3079 65.5987V61.0577V52.7599" stroke="#FCFCFF" stroke-width="2" stroke-miterlimit="10" stroke-linecap="round"/>
<path d="M5.98241 26.6903C5.98241 26.6903 4.87695 35.5435 4.87695 38.5164C4.87695 41.4892 5.98241 50.3424 5.98241 50.3424" stroke="#FCFCFF" stroke-width="2" stroke-miterlimit="10" stroke-linecap="round"/>
<path d="M21.7515 26.6903C21.7515 26.6903 22.5318 36.0009 22.5318 39.1044C22.5318 41.9139 21.7515 50.3097 21.7515 50.3097" stroke="#FCFCFF" stroke-width="2" stroke-miterlimit="10" stroke-linecap="round"/>
<path d="M1.04041 45.9321H12.6152H24.5476" stroke="#FCFCFF" stroke-width="2" stroke-miterlimit="10" stroke-linecap="round"/>
<path d="M1.49561 30.0879H14.631H24.5476" stroke="#FCFCFF" stroke-width="2" stroke-miterlimit="10" stroke-linecap="round"/>
<path d="M9.7865 34.0408L9.91655 26.6903" stroke="#FCFCFF" stroke-width="2" stroke-miterlimit="10" stroke-linecap="round"/>
<path d="M13.8507 30.0878V26.6903" stroke="#FCFCFF" stroke-width="2" stroke-miterlimit="10" stroke-linecap="round"/>
<path d="M13.8507 50.3097V45.9321" stroke="#FCFCFF" stroke-width="2" stroke-miterlimit="10" stroke-linecap="round"/>
<path d="M17.8173 50.3097V41.9465" stroke="#FCFCFF" stroke-width="2" stroke-miterlimit="10" stroke-linecap="round"/>
<path d="M22.4993 37.9937H24.5476" stroke="#FCFCFF" stroke-width="2" stroke-miterlimit="10" stroke-linecap="round"/>
<path d="M17.8173 41.9465H24.5475" stroke="#FCFCFF" stroke-width="2" stroke-miterlimit="10" stroke-linecap="round"/>
<path d="M2.21094 34.0408H9.78655" stroke="#FCFCFF" stroke-width="2" stroke-miterlimit="10" stroke-linecap="round"/>
<path d="M2.21094 37.9937H4.87703" stroke="#FCFCFF" stroke-width="2" stroke-miterlimit="10" stroke-linecap="round"/>
<path d="M2.21094 41.9465C2.21094 41.9465 6.9904 41.5872 8.61607 41.5872C11.7374 41.5872 15.0212 41.9465 15.0212 41.9465" stroke="#FCFCFF" stroke-width="2" stroke-miterlimit="10" stroke-linecap="round"/>
<path d="M12.42 34.0408C12.42 34.0408 16.0615 34.4001 18.6951 34.4655C20.5159 34.4981 24.58 34.0408 24.58 34.0408" stroke="#FCFCFF" stroke-width="2" stroke-miterlimit="10" stroke-linecap="round"/>
<path d="M9.9165 50.3097V40.7378V37.4709" stroke="#FCFCFF" stroke-width="2" stroke-miterlimit="10" stroke-linecap="round"/>
<path d="M17.8173 39.5291V34.9881V26.6903" stroke="#FCFCFF" stroke-width="2" stroke-miterlimit="10" stroke-linecap="round"/>
<path d="M31.5055 26.6903C31.5055 26.6903 30.4 35.5435 30.4 38.5164C30.4 41.4892 31.5055 50.3424 31.5055 50.3424" stroke="#FCFCFF" stroke-width="2" stroke-miterlimit="10" stroke-linecap="round"/>
<path d="M47.2419 26.6903C47.2419 26.6903 48.0223 36.0009 48.0223 39.1044C48.0223 41.9139 47.2419 50.3097 47.2419 50.3097" stroke="#FCFCFF" stroke-width="2" stroke-miterlimit="10" stroke-linecap="round"/>
<path d="M26.5635 45.9321H38.1382H50.0706" stroke="#FCFCFF" stroke-width="2" stroke-miterlimit="10" stroke-linecap="round"/>
<path d="M27.0187 30.0879H40.1541H50.0707" stroke="#FCFCFF" stroke-width="2" stroke-miterlimit="10" stroke-linecap="round"/>
<path d="M35.3096 34.0408L35.4396 26.6903" stroke="#FCFCFF" stroke-width="2" stroke-miterlimit="10" stroke-linecap="round"/>
<path d="M39.3738 30.0878V26.6903" stroke="#FCFCFF" stroke-width="2" stroke-miterlimit="10" stroke-linecap="round"/>
<path d="M39.3738 50.3097V45.9321" stroke="#FCFCFF" stroke-width="2" stroke-miterlimit="10" stroke-linecap="round"/>
<path d="M43.3079 50.3097V41.9465" stroke="#FCFCFF" stroke-width="2" stroke-miterlimit="10" stroke-linecap="round"/>
<path d="M48.0223 37.9937H50.0707" stroke="#FCFCFF" stroke-width="2" stroke-miterlimit="10" stroke-linecap="round"/>
<path d="M43.3079 41.9465H50.0706" stroke="#FCFCFF" stroke-width="2" stroke-miterlimit="10" stroke-linecap="round"/>
<path d="M27.734 34.0408H35.3096" stroke="#FCFCFF" stroke-width="2" stroke-miterlimit="10" stroke-linecap="round"/>
<path d="M27.734 37.9937H30.4001" stroke="#FCFCFF" stroke-width="2" stroke-miterlimit="10" stroke-linecap="round"/>
<path d="M27.734 41.9465C27.734 41.9465 32.5135 41.5872 34.1391 41.5872C37.2604 41.5872 40.5443 41.9465 40.5443 41.9465" stroke="#FCFCFF" stroke-width="2" stroke-miterlimit="10" stroke-linecap="round"/>
<path d="M37.9431 34.0408C37.9431 34.0408 41.5846 34.4001 44.2182 34.4655C46.0389 34.4981 50.1031 34.0408 50.1031 34.0408" stroke="#FCFCFF" stroke-width="2" stroke-miterlimit="10" stroke-linecap="round"/>
<path d="M35.4396 50.3097V40.7378V37.4709" stroke="#FCFCFF" stroke-width="2" stroke-miterlimit="10" stroke-linecap="round"/>
<path d="M43.3079 39.5291V34.9881V26.6903" stroke="#FCFCFF" stroke-width="2" stroke-miterlimit="10" stroke-linecap="round"/>
<rect x="68" y="43" width="10" height="18" rx="1" transform="rotate(-90 68 43)" stroke="#FCFCFF" stroke-width="2"/>
</g>
<defs>
<clipPath id="clip0_274_1174">
<rect width="152" height="77" fill="white"/>
</clipPath>
</defs>
</svg>
