<svg width="156" height="78" viewBox="0 0 156 78" fill="none" xmlns="http://www.w3.org/2000/svg">
<g clip-path="url(#clip0_274_1056)">
<path d="M63.9786 0.942676V4.53098C61.2548 4.5918 56.0238 4.86548 55.7762 4.86548C55.3429 4.89589 54.9715 5.2304 54.9405 5.65613C54.9096 5.8994 54.4762 11.0386 54.3524 13.745H50.9167C50.4215 13.745 49.9881 14.1099 49.9881 14.5661C49.9572 15.0526 50.3595 15.4783 50.8857 15.4783H54.3524C54.4453 18.1848 54.9096 23.324 54.9405 23.5672C54.9715 23.993 55.3429 24.3275 55.7762 24.3579C56.0238 24.3579 61.2238 24.6012 63.9476 24.662V28.2807C63.9476 28.7672 64.3191 29.193 64.7834 29.193C65.2786 29.2234 65.7119 28.8281 65.7119 28.3111V24.6924C68.4357 24.6316 73.6357 24.3883 73.8834 24.3883C74.3167 24.3579 74.6881 24.0234 74.7191 23.5672C74.75 23.324 75.0596 18.2152 75.1524 15.5088H78.7119C79.2072 15.5088 79.6405 15.1438 79.6405 14.6877C79.6715 14.2012 79.2691 13.7754 78.7429 13.7754H75.2143C75.1524 11.0994 74.8119 5.96022 74.781 5.71694C74.75 5.29121 74.3786 4.9263 73.9453 4.89589C73.6976 4.89589 68.4976 4.62221 65.7429 4.56139V0.912267C65.7429 0.425717 65.3405 0.0303955 64.8143 0.0303955C64.35 0.0303955 63.9786 0.486536 63.9786 0.942676ZM73.0786 6.56841C73.1715 8.11928 73.3881 11.6772 73.45 13.745H69.0238C68.5286 13.745 68.0953 14.1099 68.0953 14.5661C68.0643 15.0526 68.4667 15.4783 68.9929 15.4783H73.481C73.4191 17.5462 73.2024 21.0737 73.1096 22.6245C71.5 22.6854 67.9096 22.8678 65.8048 22.8982V18.7017C65.8048 18.2152 65.4334 17.7895 64.9691 17.7895C64.4738 17.7591 64.0405 18.1544 64.0405 18.6713V22.9591C61.9357 22.9286 58.3143 22.7462 56.7357 22.6854C56.6119 21.1345 56.3024 17.5766 56.2405 15.5392H60.7905C61.2857 15.5392 61.7191 15.1743 61.7191 14.7181C61.75 14.2316 61.3476 13.8058 60.8215 13.8058H56.2096C56.3024 11.738 56.581 8.1801 56.7048 6.62923C58.2834 6.538 61.9048 6.38595 64.0096 6.32513V10.5824C64.0096 11.069 64.381 11.4947 64.8453 11.4947C65.3405 11.5251 65.7738 11.1298 65.7738 10.6129V6.29472C67.8786 6.32513 71.4691 6.50759 73.0786 6.56841Z" fill="#FCFCFF"/>
<path d="M62.8024 13.441L62.9572 16.2691C62.9881 16.7252 63.3596 17.0901 63.8548 17.0901H66.2072C66.7024 17.0901 67.1048 16.6948 67.1048 16.2082V13.3802C67.1048 12.8936 66.7024 12.4983 66.2072 12.4983H63.7001C63.4524 12.4983 63.2358 12.5895 63.05 12.772C62.8953 12.9848 62.8024 13.1977 62.8024 13.441ZM65.3096 14.262V15.3568H64.6905L64.6286 14.262H65.3096Z" fill="#FCFCFF"/>
<path d="M62.2143 11.4339V8.60587C62.2143 8.11932 61.8119 7.724 61.3167 7.724H58.8095C58.5619 7.724 58.3453 7.81523 58.1595 7.99768C58.0048 8.18014 57.9119 8.393 57.9119 8.63628L58.0667 11.4644C58.0976 11.9205 58.4691 12.2854 58.9643 12.2854H61.3167C61.8119 12.3158 62.2143 11.9205 62.2143 11.4339ZM59.8 10.5825L59.7381 9.48774H60.4191V10.5825H59.8Z" fill="#FCFCFF"/>
<path d="M68.7143 12.3462H71.0667C71.5619 12.3462 71.9643 11.9509 71.9643 11.4643V8.63627C71.9643 8.14972 71.5619 7.75439 71.0667 7.75439H68.5595C68.3119 7.75439 68.0953 7.84562 67.9095 8.02808C67.7548 8.21053 67.6619 8.4234 67.6619 8.66668L67.8167 11.4947C67.8476 11.9813 68.25 12.3462 68.7143 12.3462ZM69.55 10.5825L69.4881 9.48773H70.1691V10.5825H69.55Z" fill="#FCFCFF"/>
<path d="M67.6619 17.9415L67.8167 20.7695C67.8476 21.2257 68.2191 21.5906 68.7143 21.5906H71.0667C71.5619 21.5906 71.9643 21.1953 71.9643 20.7087V17.8806C71.9643 17.3941 71.5619 16.9988 71.0667 16.9988H68.5595C68.3119 16.9988 68.0953 17.09 67.9095 17.2725C67.7548 17.4853 67.6619 17.7286 67.6619 17.9415ZM70.1691 18.7929V19.8877H69.55L69.4881 18.7929H70.1691Z" fill="#FCFCFF"/>
<path d="M61.0381 17.0292H58.6858C58.1905 17.0292 57.7881 17.4245 57.7881 17.911V20.7391C57.7881 21.2257 58.1905 21.621 58.6858 21.621H61.1929C61.4405 21.621 61.6572 21.5298 61.8429 21.3473C61.9977 21.1953 62.0905 20.9824 62.0905 20.7391V20.7087L61.9358 17.8806C61.9048 17.3941 61.5024 17.0292 61.0381 17.0292ZM60.2024 18.7929L60.2643 19.8877H59.5834V18.7929H60.2024Z" fill="#FCFCFF"/>
<path d="M38.8143 25.7567V29.345C36.0905 29.4058 30.8595 29.6795 30.6119 29.6795C30.1786 29.7099 29.8071 30.0444 29.7762 30.4701C29.7452 30.7134 29.3119 35.8526 29.1881 38.559H25.7524C25.2571 38.559 24.8238 38.9239 24.8238 39.3801C24.7929 39.8666 25.1952 40.2923 25.7214 40.2923H29.1881C29.281 42.9988 29.7452 48.138 29.7762 48.3812C29.8071 48.807 30.1786 49.1415 30.6119 49.1719C30.8595 49.1719 36.0595 49.4151 38.7833 49.476V53.0947C38.7833 53.5812 39.1548 54.007 39.6191 54.007C40.1143 54.0374 40.5476 53.642 40.5476 53.1251V49.4456C43.2714 49.3847 48.4714 49.1415 48.7191 49.1415C49.1524 49.1111 49.5238 48.7765 49.5548 48.3204C49.5857 48.0771 49.8952 42.9684 49.9881 40.2619H53.5476C54.0429 40.2619 54.4762 39.897 54.4762 39.4409C54.5071 38.9543 54.1048 38.5286 53.5786 38.5286H49.9571C49.8952 35.8526 49.5548 30.7134 49.5238 30.4701C49.4929 30.0444 49.1214 29.6795 48.6881 29.6491C48.4405 29.6491 43.2405 29.3754 40.4857 29.3146V25.6654C40.4857 25.1789 40.0833 24.7836 39.5572 24.7836C39.1857 24.8444 38.8143 25.3005 38.8143 25.7567ZM47.9143 31.3824C48.0071 32.9333 48.2238 36.4912 48.2857 38.559H43.8595C43.3643 38.559 42.931 38.9239 42.931 39.3801C42.9 39.8666 43.3024 40.2923 43.8286 40.2923H48.2857C48.2238 42.3602 48.0071 45.8877 47.9143 47.4385C46.3048 47.4994 42.7143 47.6818 40.6095 47.7122V43.4853C40.6095 42.9988 40.2381 42.573 39.7738 42.573C39.2786 42.5426 38.8452 42.938 38.8452 43.4549V47.7426C36.7405 47.7122 33.1191 47.5298 31.5405 47.4689C31.4167 45.9181 31.1072 42.3602 31.0452 40.3228H35.5952C36.0905 40.3228 36.5238 39.9578 36.5238 39.5017C36.5548 39.0151 36.1524 38.5894 35.6262 38.5894H31.0143C31.1071 36.5216 31.3857 32.9637 31.5095 31.4128C33.0881 31.3216 36.7095 31.1695 38.8143 31.1087V35.366C38.8143 35.8526 39.1857 36.2783 39.65 36.2783C40.1452 36.3087 40.5786 35.9134 40.5786 35.3964V31.0783C42.7143 31.1391 46.3048 31.3216 47.9143 31.3824Z" fill="#FCFCFF"/>
<path d="M37.6381 38.2549L37.7929 41.083C37.8238 41.5392 38.1953 41.9041 38.6905 41.9041H41.0429C41.5381 41.9041 41.9405 41.5087 41.9405 41.0222V38.1941C41.9405 37.7076 41.5381 37.3123 41.0429 37.3123H38.5357C38.2881 37.3123 38.0715 37.4035 37.8857 37.5859C37.731 37.7988 37.6381 38.0117 37.6381 38.2549ZM40.1453 39.076V40.1707H39.5262L39.4643 39.076H40.1453Z" fill="#FCFCFF"/>
<path d="M37.05 36.2783V33.4502C37.05 32.9637 36.6476 32.5684 36.1524 32.5684H33.6452C33.3976 32.5684 33.181 32.6596 32.9952 32.842C32.8405 33.0245 32.7476 33.2374 32.7476 33.4806L32.9024 36.3087C32.9333 36.7649 33.3048 37.1298 33.8 37.1298H36.1524C36.6476 37.1298 37.05 36.7344 37.05 36.2783ZM34.6357 35.3964L34.5738 34.3017H35.2548V35.3964H34.6357Z" fill="#FCFCFF"/>
<path d="M43.55 37.1602H45.9024C46.3976 37.1602 46.8 36.7649 46.8 36.2783V33.4502C46.8 32.9637 46.3976 32.5684 45.9024 32.5684H43.3952C43.1476 32.5684 42.931 32.6596 42.7452 32.842C42.5905 33.0245 42.4976 33.2374 42.4976 33.4806L42.6524 36.3087C42.6833 36.7953 43.0857 37.1602 43.55 37.1602ZM44.3857 35.3964L44.3238 34.3017H45.0048V35.3964H44.3857C44.3857 35.4268 44.3857 35.4268 44.3857 35.3964Z" fill="#FCFCFF"/>
<path d="M42.4976 42.7556L42.6524 45.5836C42.6833 46.0398 43.0548 46.4047 43.55 46.4047H45.9024C46.3976 46.4047 46.8 46.0094 46.8 45.5228V42.6947C46.8 42.2082 46.3976 41.8129 45.9024 41.8129H43.3952C43.1476 41.8129 42.931 41.9041 42.7452 42.0865C42.5905 42.2994 42.4976 42.5427 42.4976 42.7556ZM45.0048 43.607V44.7018H44.3857L44.3238 43.607H45.0048Z" fill="#FCFCFF"/>
<path d="M35.8738 41.8433H33.5215C33.0262 41.8433 32.6238 42.2386 32.6238 42.7251V45.5532C32.6238 46.0398 33.0262 46.4351 33.5215 46.4351H36.0286C36.2762 46.4351 36.4929 46.3438 36.6786 46.1614C36.8334 46.0093 36.9262 45.7965 36.9262 45.5532V45.5228L36.7715 42.6947C36.7405 42.2082 36.3381 41.8433 35.8738 41.8433ZM35.0381 43.607L35.1 44.7017H34.4191V43.607H35.0381Z" fill="#FCFCFF"/>
<path d="M13.9905 25.7567V29.345C11.2667 29.4058 6.03574 29.6795 5.78812 29.6795C5.35479 29.7099 4.98336 30.0444 4.95241 30.4701C4.92145 30.7134 4.48812 35.8526 4.36431 38.559H0.928596C0.433358 38.559 2.45909e-05 38.9239 2.45909e-05 39.3801C-0.0309278 39.8666 0.371453 40.2923 0.897644 40.2923H4.36431C4.45717 42.9988 4.92145 48.138 4.95241 48.3812C4.98336 48.807 5.35479 49.1415 5.78812 49.1719C6.03574 49.1719 11.2357 49.4151 13.9595 49.476V53.0947C13.9595 53.5812 14.331 54.007 14.7953 54.007C15.2905 54.0374 15.7238 53.642 15.7238 53.1251V49.4456C18.4476 49.3847 23.6476 49.1415 23.8953 49.1415C24.3286 49.1111 24.7 48.7765 24.731 48.3204C24.7619 48.0771 25.0715 42.9684 25.1643 40.2619H28.7857C29.281 40.2619 29.7143 39.897 29.7143 39.4409C29.7453 38.9543 29.3429 38.5286 28.8167 38.5286H25.2262C25.1643 35.8526 24.8238 30.7134 24.7929 30.4701C24.7619 30.0444 24.3905 29.6795 23.9572 29.6491C23.7095 29.6491 18.5095 29.3754 15.7548 29.3146V25.6654C15.7548 25.1789 15.3524 24.7836 14.8262 24.7836C14.331 24.8444 13.9905 25.3005 13.9905 25.7567ZM23.0595 31.3824C23.1524 32.9333 23.3691 36.4912 23.431 38.559H19.0048C18.5095 38.559 18.0762 38.9239 18.0762 39.3801C18.0453 39.8666 18.4476 40.2923 18.9738 40.2923H23.4619C23.4 42.3602 23.1834 45.8877 23.0905 47.4385C21.481 47.4994 17.8905 47.6818 15.7857 47.7122V43.4853C15.7857 42.9988 15.4143 42.573 14.95 42.573C14.4548 42.5426 14.0215 42.938 14.0215 43.4549V47.7426C11.9167 47.7122 8.29526 47.5298 6.71669 47.4689C6.59288 45.9181 6.28336 42.3602 6.22145 40.3228H10.7715C11.2667 40.3228 11.7 39.9578 11.7 39.5017C11.731 39.0151 11.3286 38.5894 10.8024 38.5894H6.15955C6.25241 36.5216 6.53098 32.9637 6.65479 31.4128C8.23336 31.3216 11.8548 31.1695 13.9595 31.1087V35.366C13.9595 35.8526 14.331 36.2783 14.7953 36.2783C15.2905 36.3087 15.7238 35.9134 15.7238 35.3964V31.0783C17.8595 31.1391 21.45 31.3216 23.0595 31.3824Z" fill="#FCFCFF"/>
<path d="M12.7834 38.2549L12.9381 41.083C12.9691 41.5392 13.3405 41.9041 13.8358 41.9041H16.1881C16.6834 41.9041 17.0858 41.5087 17.0858 41.0222V38.1941C17.0858 37.7076 16.6834 37.3123 16.1881 37.3123H13.681C13.4334 37.3123 13.2167 37.4035 13.031 37.5859C12.8762 37.7988 12.7834 38.0117 12.7834 38.2549ZM15.2905 39.076V40.1707H14.6715L14.6096 39.076H15.2905Z" fill="#FCFCFF"/>
<path d="M12.1953 36.2783V33.4502C12.1953 32.9637 11.7929 32.5684 11.2976 32.5684H8.7905C8.54288 32.5684 8.32622 32.6596 8.1405 32.842C7.98574 33.0245 7.89288 33.2374 7.89288 33.4806L8.04765 36.3087C8.0786 36.7649 8.45003 37.1298 8.94526 37.1298H11.2976C11.7929 37.1298 12.1953 36.7344 12.1953 36.2783ZM9.78098 35.3964L9.71907 34.3017H10.4V35.3964H9.78098Z" fill="#FCFCFF"/>
<path d="M18.6953 37.1602H21.0476C21.5429 37.1602 21.9453 36.7649 21.9453 36.2783V33.4502C21.9453 32.9637 21.5429 32.5684 21.0476 32.5684H18.5405C18.2929 32.5684 18.0762 32.6596 17.8905 32.842C17.7357 33.0245 17.6429 33.2374 17.6429 33.4806L17.7976 36.3087C17.8286 36.7953 18.231 37.1602 18.6953 37.1602ZM19.531 35.3964L19.4691 34.3017H20.15V35.3964H19.531C19.531 35.4268 19.531 35.4268 19.531 35.3964Z" fill="#FCFCFF"/>
<path d="M17.6738 42.7556L17.8286 45.5836C17.8596 46.0398 18.231 46.4047 18.7262 46.4047H21.0476C21.5429 46.4047 21.9453 46.0094 21.9453 45.5228V42.6947C21.9453 42.2082 21.5429 41.8129 21.0476 41.8129H18.5405C18.2929 41.8129 18.0762 41.9041 17.8905 42.0865C17.7357 42.2994 17.6429 42.5427 17.6738 42.7556ZM20.15 43.607V44.7018H19.531L19.4691 43.607H20.15Z" fill="#FCFCFF"/>
<path d="M11.019 41.8433H8.66666C8.17142 41.8433 7.76904 42.2386 7.76904 42.7251V45.5532C7.76904 46.0398 8.17142 46.4351 8.66666 46.4351H11.1738C11.4214 46.4351 11.6381 46.3438 11.8238 46.1614C11.9786 46.0093 12.0714 45.7965 12.0714 45.5532V45.5228L11.9167 42.6947C11.8857 42.2082 11.4833 41.8433 11.019 41.8433ZM10.1833 43.607L10.2452 44.7017H9.56428V43.607H10.1833Z" fill="#FCFCFF"/>
<path d="M38.8143 0.94269V4.53099C36.0905 4.59181 30.8905 4.8655 30.6429 4.8655C30.2095 4.89591 29.8381 5.23041 29.8071 5.65614C29.7762 5.89942 29.3429 11.0386 29.219 13.745H25.7833C25.2881 13.745 24.8548 14.1099 24.8548 14.5661C24.8238 15.0526 25.2262 15.4784 25.7524 15.4784H29.219C29.3119 18.1848 29.7762 23.324 29.8071 23.5673C29.8381 23.993 30.2095 24.3275 30.6429 24.3579C30.8905 24.3579 36.0905 24.6012 38.8143 24.662V28.2807C38.8143 28.7673 39.1857 29.193 39.65 29.193C40.1452 29.2234 40.5786 28.8281 40.5786 28.3111V24.662C43.3024 24.6012 48.5024 24.3579 48.75 24.3579C49.1833 24.3275 49.5548 23.993 49.5857 23.5368C49.6167 23.2936 49.9262 18.1848 50.019 15.4784H53.5786C54.0738 15.4784 54.5071 15.1135 54.5071 14.6573C54.5381 14.1708 54.1357 13.745 53.6095 13.745H49.9881C49.9262 11.069 49.5857 5.92982 49.5548 5.68655C49.5238 5.26082 49.1524 4.89591 48.719 4.8655C48.4714 4.8655 43.2714 4.59181 40.5167 4.53099V0.881871C40.5167 0.395322 40.1143 0 39.5881 0C39.1857 0.0304094 38.8143 0.45614 38.8143 0.94269ZM47.9143 6.56842C48.0071 8.1193 48.2238 11.6772 48.2857 13.745H43.8595C43.3643 13.745 42.9309 14.1099 42.9309 14.5661C42.9 15.0526 43.3024 15.4784 43.8286 15.4784H48.2857C48.2238 17.5462 48.0071 21.0737 47.9143 22.6246C46.3048 22.6854 42.7143 22.8678 40.6095 22.8982V18.7018C40.6095 18.2152 40.2381 17.7895 39.7738 17.7895C39.2786 17.7591 38.8452 18.1544 38.8452 18.6713V22.9591C36.7405 22.9287 33.119 22.7462 31.5405 22.6854C31.4167 21.1345 31.1071 17.5766 31.0452 15.5392H35.5952C36.0905 15.5392 36.5238 15.1743 36.5238 14.7181C36.5548 14.2316 36.1524 13.8058 35.6262 13.8058H31.0143C31.1071 11.738 31.3857 8.18012 31.5095 6.62924C33.0881 6.53801 36.7095 6.38596 38.8143 6.32515V10.5825C38.8143 11.069 39.1857 11.4947 39.65 11.4947C40.1452 11.5251 40.5786 11.1298 40.5786 10.6129V6.26433C42.7143 6.32515 46.3048 6.47719 47.9143 6.56842Z" fill="#FCFCFF"/>
<path d="M37.6381 13.441L37.7929 16.2691C37.8238 16.7252 38.1953 17.0901 38.6905 17.0901H41.0429C41.5381 17.0901 41.9405 16.6948 41.9405 16.2082V13.3802C41.9405 12.8936 41.5381 12.4983 41.0429 12.4983H38.5357C38.2881 12.4983 38.0715 12.5895 37.8857 12.772C37.731 12.9544 37.6381 13.1977 37.6381 13.441ZM40.1453 14.262V15.3568H39.5262L39.4643 14.262H40.1453Z" fill="#FCFCFF"/>
<path d="M37.05 11.4339V8.60587C37.05 8.11932 36.6476 7.724 36.1524 7.724H33.6452C33.3976 7.724 33.181 7.81523 32.9952 7.99768C32.8405 8.18014 32.7476 8.393 32.7476 8.63628L32.9024 11.4644C32.9333 11.9205 33.3048 12.2854 33.8 12.2854H36.1524C36.6476 12.3158 37.05 11.9205 37.05 11.4339ZM34.6357 10.5825L34.5738 9.48774H35.2548V10.5825H34.6357Z" fill="#FCFCFF"/>
<path d="M43.55 12.3158H45.9024C46.3976 12.3158 46.8 11.9205 46.8 11.4339V8.60587C46.8 8.11932 46.3976 7.724 45.9024 7.724H43.3952C43.1476 7.724 42.931 7.81523 42.7452 7.99768C42.5905 8.18014 42.4976 8.393 42.4976 8.63628L42.6524 11.4644C42.6833 11.9509 43.0857 12.3158 43.55 12.3158ZM44.3857 10.5825L44.3238 9.48774H45.0048V10.5825H44.3857Z" fill="#FCFCFF"/>
<path d="M42.4976 17.9415L42.6524 20.7695C42.6833 21.2257 43.0548 21.5906 43.55 21.5906H45.9024C46.3976 21.5906 46.8 21.1953 46.8 20.7087V17.8806C46.8 17.3941 46.3976 16.9988 45.9024 16.9988H43.3952C43.1476 16.9988 42.931 17.09 42.7452 17.2725C42.5905 17.4853 42.4976 17.6982 42.4976 17.9415ZM45.0048 18.7929V19.8877H44.3857L44.3238 18.7929H45.0048C45.0048 18.7625 45.0048 18.7625 45.0048 18.7929Z" fill="#FCFCFF"/>
<path d="M35.8738 17.0293H33.5214C33.0262 17.0293 32.6238 17.4246 32.6238 17.9112V20.7392C32.6238 21.2258 33.0262 21.6211 33.5214 21.6211H36.0285C36.2762 21.6211 36.4928 21.5299 36.6785 21.3474C36.8333 21.1954 36.9262 20.9825 36.9262 20.7392V20.7088L36.7714 17.8808C36.7404 17.3942 36.3381 17.0293 35.8738 17.0293ZM35.0381 18.793L35.1 19.8878H34.419V18.793H35.0381C35.0381 18.7626 35.0381 18.7626 35.0381 18.793Z" fill="#FCFCFF"/>
<path d="M13.9906 0.912281V4.50058C11.2359 4.5614 6.03586 4.83509 5.78824 4.8655C5.35491 4.89591 4.98348 5.23041 4.95253 5.65614C4.92157 5.89942 4.48824 11.0386 4.36443 13.745H0.928718C0.43348 13.745 0.000146661 14.1099 0.000146661 14.5661C-0.0308057 15.0526 0.371575 15.4784 0.897766 15.4784H4.36443C4.45729 18.1848 4.92157 23.324 4.95253 23.5673C4.98348 23.993 5.35491 24.3275 5.78824 24.3579C6.03586 24.3579 11.2359 24.6012 13.9597 24.662V28.2807C13.9597 28.7673 14.3311 29.193 14.7954 29.193C15.2906 29.2234 15.724 28.8281 15.724 28.3111V24.662C18.4478 24.6012 23.6478 24.3579 23.8954 24.3579C24.3287 24.3275 24.7001 23.993 24.7311 23.5368C24.762 23.2936 25.0716 18.1848 25.1644 15.4784H28.724C29.2192 15.4784 29.6525 15.1135 29.6525 14.6573C29.6835 14.1708 29.2811 13.745 28.7549 13.745H25.2263C25.1644 11.069 24.824 5.92982 24.793 5.68655C24.762 5.26082 24.3906 4.89591 23.9573 4.8655C23.7097 4.8655 18.5097 4.59181 15.7549 4.53099V0.881871C15.7549 0.395322 15.3525 0 14.8263 0C14.3311 0.0304094 13.9906 0.45614 13.9906 0.912281ZM23.0597 6.56842C23.1525 8.1193 23.3692 11.6772 23.4311 13.745H19.0049C18.5097 13.745 18.0763 14.1099 18.0763 14.5661C18.0454 15.0526 18.4478 15.4784 18.974 15.4784H23.4621C23.4001 17.5462 23.1835 21.0737 23.0906 22.6246C21.4811 22.6854 17.8906 22.8678 15.7859 22.8982V18.6713C15.7859 18.1848 15.4144 17.7591 14.9501 17.7591C14.4549 17.7287 14.0216 18.124 14.0216 18.6409V22.9287C11.9168 22.8982 8.29538 22.7158 6.71681 22.655C6.593 21.1041 6.28348 17.5462 6.22157 15.5088H10.7716C11.2668 15.5088 11.7001 15.1439 11.7001 14.6877C11.7311 14.2012 11.3287 13.7754 10.8025 13.7754H6.15967C6.25253 11.7076 6.5311 8.14971 6.65491 6.59883C8.23348 6.5076 11.8549 6.35556 13.9597 6.29474V10.552C13.9597 11.0386 14.3311 11.4643 14.7954 11.4643C15.2906 11.4947 15.724 11.0994 15.724 10.5825V6.26433C17.8597 6.29474 21.4501 6.47719 23.0597 6.56842Z" fill="#FCFCFF"/>
<path d="M12.7833 13.4106L12.9381 16.2386C12.969 16.6948 13.3405 17.0597 13.8357 17.0597H16.1881C16.6833 17.0597 17.0857 16.6644 17.0857 16.1778V13.3802C17.0857 12.8936 16.6833 12.4983 16.1881 12.4983H13.6809C13.4333 12.4983 13.2167 12.5895 13.0309 12.772C12.8762 12.9544 12.7833 13.1977 12.7833 13.4106ZM15.2905 14.262V15.3568H14.6714L14.6095 14.262H15.2905Z" fill="#FCFCFF"/>
<path d="M12.1953 11.4339V8.60587C12.1953 8.11932 11.7929 7.724 11.2976 7.724H8.7905C8.54288 7.724 8.32622 7.81523 8.1405 7.99768C7.98574 8.18014 7.89288 8.393 7.89288 8.63628L8.04765 11.4644C8.0786 11.9205 8.45003 12.2854 8.94526 12.2854H11.2976C11.7929 12.3158 12.1953 11.9205 12.1953 11.4339ZM9.78098 10.5521L9.71907 9.45733H10.4V10.5521H9.78098Z" fill="#FCFCFF"/>
<path d="M18.6953 12.3158H21.0476C21.5429 12.3158 21.9453 11.9205 21.9453 11.4339V8.60587C21.9453 8.11932 21.5429 7.724 21.0476 7.724H18.5405C18.2929 7.724 18.0762 7.81523 17.8905 7.99768C17.7357 8.18014 17.6429 8.393 17.6429 8.63628L17.7976 11.4644C17.8286 11.9509 18.231 12.3158 18.6953 12.3158ZM19.531 10.5825L19.4691 9.48774H20.15V10.5825H19.531Z" fill="#FCFCFF"/>
<path d="M17.6738 17.9415L17.8286 20.7695C17.8596 21.2257 18.231 21.5906 18.7262 21.5906H21.0476C21.5429 21.5906 21.9453 21.1953 21.9453 20.7087V17.8806C21.9453 17.3941 21.5429 16.9988 21.0476 16.9988H18.5405C18.2929 16.9988 18.0762 17.09 17.8905 17.2725C17.7357 17.4549 17.6429 17.6982 17.6738 17.9415ZM20.15 18.7625V19.8573H19.531L19.4691 18.7625H20.15Z" fill="#FCFCFF"/>
<path d="M11.019 17.0293H8.66666C8.17142 17.0293 7.76904 17.4246 7.76904 17.9112V20.7392C7.76904 21.2258 8.17142 21.6211 8.66666 21.6211H11.1738C11.4214 21.6211 11.6381 21.5299 11.8238 21.3474C11.9786 21.1954 12.0714 20.9825 12.0714 20.7392V20.7088L11.9167 17.8808C11.8857 17.3942 11.4833 17.0293 11.019 17.0293ZM10.1833 18.7626L10.2452 19.8574H9.56428V18.7626H10.1833Z" fill="#FCFCFF"/>
<path d="M140.245 25.7567V29.345C137.521 29.4058 132.291 29.6795 132.043 29.6795C131.61 29.7099 131.238 30.0444 131.207 30.4701C131.176 30.7134 130.743 35.8526 130.619 38.559H127.183C126.688 38.559 126.255 38.9239 126.255 39.3801C126.224 39.8666 126.626 40.2923 127.152 40.2923H130.619C130.712 42.9988 131.176 48.138 131.207 48.3812C131.238 48.807 131.61 49.1415 132.043 49.1719C132.291 49.1719 137.491 49.4151 140.214 49.476V53.0947C140.214 53.5812 140.586 54.007 141.05 54.007C141.545 54.0374 141.979 53.642 141.979 53.1251V49.4456C144.702 49.3847 149.902 49.1415 150.15 49.1415C150.583 49.1111 150.955 48.7765 150.986 48.3204C151.017 48.0771 151.326 42.9684 151.419 40.2619H154.979C155.474 40.2619 155.907 39.897 155.907 39.4409C155.938 38.9543 155.536 38.5286 155.01 38.5286H151.388C151.326 35.8526 150.986 30.7134 150.955 30.4701C150.924 30.0444 150.552 29.6795 150.119 29.6491C149.871 29.6491 144.671 29.3754 141.917 29.3146V25.6654C141.917 25.1789 141.514 24.7836 140.988 24.7836C140.617 24.8444 140.245 25.3005 140.245 25.7567ZM149.345 31.3824C149.438 32.9333 149.655 36.4912 149.717 38.559H145.29C144.795 38.559 144.362 38.9239 144.362 39.3801C144.331 39.8666 144.733 40.2923 145.26 40.2923H149.748C149.686 42.3602 149.469 45.8877 149.376 47.4385C147.767 47.4994 144.176 47.6818 142.071 47.7122V43.4853C142.071 42.9988 141.7 42.573 141.236 42.573C140.74 42.5426 140.307 42.938 140.307 43.4549V47.7426C138.202 47.7122 134.581 47.5298 133.002 47.4689C132.879 45.9181 132.569 42.3602 132.507 40.3228H137.057C137.552 40.3228 137.986 39.9578 137.986 39.5017C138.017 39.0151 137.614 38.5894 137.088 38.5894H132.476C132.569 36.5216 132.848 32.9637 132.971 31.4128C134.55 31.3216 138.171 31.1695 140.276 31.1087V35.366C140.276 35.8526 140.648 36.2783 141.112 36.2783C141.607 36.3087 142.04 35.9134 142.04 35.3964V31.0783C144.114 31.1391 147.736 31.3216 149.345 31.3824Z" fill="#FCFCFF"/>
<path d="M139.069 38.2549L139.224 41.083C139.255 41.5392 139.626 41.9041 140.121 41.9041H142.474C142.969 41.9041 143.371 41.5087 143.371 41.0222V38.1941C143.371 37.7076 142.969 37.3123 142.474 37.3123H139.967C139.719 37.3123 139.502 37.4035 139.317 37.5859C139.162 37.7988 139.069 38.0117 139.069 38.2549ZM141.576 39.076V40.1707H140.957L140.895 39.076H141.576Z" fill="#FCFCFF"/>
<path d="M138.481 36.2783V33.4502C138.481 32.9637 138.079 32.5684 137.583 32.5684H135.076C134.829 32.5684 134.612 32.6596 134.426 32.842C134.271 33.0245 134.179 33.2374 134.179 33.4806L134.333 36.3087C134.364 36.7649 134.736 37.1298 135.231 37.1298H137.583C138.079 37.1298 138.481 36.7344 138.481 36.2783ZM136.067 35.3964L136.005 34.3017H136.686V35.3964H136.067Z" fill="#FCFCFF"/>
<path d="M144.981 37.1602H147.333C147.829 37.1602 148.231 36.7649 148.231 36.2783V33.4502C148.231 32.9637 147.829 32.5684 147.333 32.5684H144.826C144.579 32.5684 144.362 32.6596 144.176 32.842C144.021 33.0245 143.929 33.2374 143.929 33.4806L144.083 36.3087C144.114 36.7953 144.486 37.1602 144.981 37.1602ZM145.817 35.3964L145.755 34.3017H146.436V35.3964H145.817C145.817 35.4268 145.817 35.4268 145.817 35.3964Z" fill="#FCFCFF"/>
<path d="M143.929 42.7556L144.083 45.5836C144.114 46.0398 144.486 46.4047 144.981 46.4047H147.333C147.829 46.4047 148.231 46.0094 148.231 45.5228V42.6947C148.231 42.2082 147.829 41.8129 147.333 41.8129H144.826C144.579 41.8129 144.362 41.9041 144.176 42.0865C144.021 42.2994 143.929 42.5427 143.929 42.7556ZM146.436 43.607V44.7018H145.817L145.755 43.607H146.436Z" fill="#FCFCFF"/>
<path d="M137.305 41.8433H134.952C134.457 41.8433 134.055 42.2386 134.055 42.7251V45.5532C134.055 46.0398 134.457 46.4351 134.952 46.4351H137.46C137.707 46.4351 137.924 46.3438 138.11 46.1614C138.264 46.0093 138.357 45.7965 138.357 45.5532V45.5228L138.202 42.6947C138.171 42.2082 137.769 41.8433 137.305 41.8433ZM136.469 43.607L136.531 44.7017H135.85V43.607H136.469Z" fill="#FCFCFF"/>
<path d="M140.245 0.942676V4.53098C137.521 4.5918 132.291 4.86548 132.043 4.86548C131.61 4.89589 131.238 5.2304 131.207 5.65613C131.176 5.8994 130.743 11.0386 130.619 13.745H127.183C126.688 13.745 126.255 14.1099 126.255 14.5661C126.224 15.0526 126.626 15.4783 127.152 15.4783H130.619C130.712 18.1848 131.176 23.324 131.207 23.5672C131.238 23.993 131.61 24.3275 132.043 24.3579C132.291 24.3579 137.491 24.6012 140.214 24.662V28.2807C140.214 28.7672 140.586 29.193 141.05 29.193C141.545 29.2234 141.979 28.8281 141.979 28.3111V24.6924C144.702 24.6316 149.902 24.3883 150.15 24.3883C150.583 24.3579 150.955 24.0234 150.986 23.5672C151.017 23.324 151.326 18.2152 151.419 15.5088H154.979C155.474 15.5088 155.907 15.1438 155.907 14.6877C155.938 14.2012 155.536 13.7754 155.01 13.7754H151.388C151.326 11.0994 150.986 5.96022 150.955 5.71694C150.924 5.29121 150.552 4.9263 150.119 4.89589C149.871 4.89589 144.671 4.62221 141.917 4.56139V0.912267C141.917 0.425717 141.514 0.0303955 140.988 0.0303955C140.617 0.0303955 140.245 0.486536 140.245 0.942676ZM149.314 6.56841C149.407 8.11928 149.624 11.6772 149.686 13.745H145.26C144.764 13.745 144.331 14.1099 144.331 14.5661C144.3 15.0526 144.702 15.4783 145.229 15.4783H149.717C149.655 17.5462 149.438 21.0737 149.345 22.6245C147.736 22.6854 144.145 22.8678 142.04 22.8982V18.7017C142.04 18.2152 141.669 17.7895 141.205 17.7895C140.71 17.7591 140.276 18.1544 140.276 18.6713V22.9591C138.171 22.9286 134.55 22.7462 132.971 22.6854C132.848 21.1345 132.538 17.5766 132.476 15.5392H137.026C137.521 15.5392 137.955 15.1743 137.955 14.7181C137.986 14.2316 137.583 13.8058 137.057 13.8058H132.445C132.538 11.738 132.817 8.1801 132.941 6.62923C134.519 6.538 138.141 6.38595 140.245 6.32513V10.5824C140.245 11.069 140.617 11.4947 141.081 11.4947C141.576 11.5251 142.01 11.1298 142.01 10.6129V6.29472C144.114 6.32513 147.736 6.50759 149.314 6.56841Z" fill="#FCFCFF"/>
<path d="M139.069 13.441L139.224 16.2691C139.255 16.7252 139.626 17.0901 140.121 17.0901H142.474C142.969 17.0901 143.371 16.6948 143.371 16.2082V13.3802C143.371 12.8936 142.969 12.4983 142.474 12.4983H139.967C139.719 12.4983 139.502 12.5895 139.317 12.772C139.131 12.9848 139.038 13.1977 139.069 13.441ZM141.576 14.262V15.3568H140.957L140.895 14.262H141.576Z" fill="#FCFCFF"/>
<path d="M138.45 11.4339V8.60587C138.45 8.11932 138.048 7.724 137.552 7.724H135.045C134.798 7.724 134.581 7.81523 134.395 7.99768C134.241 8.18014 134.148 8.393 134.148 8.63628L134.302 11.4644C134.333 11.9205 134.705 12.2854 135.2 12.2854H137.552C138.048 12.3158 138.45 11.9205 138.45 11.4339ZM136.067 10.5825L136.005 9.48774H136.686V10.5825H136.067Z" fill="#FCFCFF"/>
<path d="M144.95 12.3462H147.302C147.798 12.3462 148.2 11.9509 148.2 11.4643V8.63627C148.2 8.14972 147.798 7.75439 147.302 7.75439H144.795C144.548 7.75439 144.331 7.84562 144.145 8.02808C143.991 8.21053 143.898 8.4234 143.898 8.66668L144.052 11.4947C144.083 11.9813 144.486 12.3462 144.95 12.3462ZM145.786 10.5825L145.724 9.48773H146.405V10.5825H145.786Z" fill="#FCFCFF"/>
<path d="M143.929 17.9415L144.083 20.7695C144.114 21.2257 144.486 21.5906 144.981 21.5906H147.333C147.829 21.5906 148.231 21.1953 148.231 20.7087V17.8806C148.231 17.3941 147.829 16.9988 147.333 16.9988H144.826C144.579 16.9988 144.362 17.09 144.176 17.2725C143.99 17.4853 143.898 17.7286 143.929 17.9415ZM146.436 18.7929V19.8877H145.817L145.755 18.7929H146.436Z" fill="#FCFCFF"/>
<path d="M137.274 17.0292H134.952C134.457 17.0292 134.055 17.4245 134.055 17.911V20.7391C134.055 21.2257 134.457 21.621 134.952 21.621H137.46C137.707 21.621 137.924 21.5298 138.11 21.3473C138.264 21.1953 138.357 20.9824 138.357 20.7391V20.7087L138.202 17.8806C138.141 17.3941 137.769 17.0292 137.274 17.0292ZM136.469 18.7929L136.531 19.8877H135.85V18.7929H136.469Z" fill="#FCFCFF"/>
<path d="M115.081 25.7567V29.345C112.357 29.4058 107.126 29.6795 106.879 29.6795C106.445 29.7099 106.074 30.0444 106.043 30.4701C106.012 30.7134 105.579 35.8526 105.455 38.559H102.019C101.524 38.559 101.09 38.9239 101.09 39.3801C101.06 39.8666 101.462 40.2923 101.988 40.2923H105.455C105.548 42.9988 106.012 48.138 106.043 48.3812C106.074 48.807 106.445 49.1415 106.879 49.1719C107.126 49.1719 112.326 49.4151 115.05 49.476V53.0947C115.05 53.5812 115.421 54.007 115.886 54.007C116.381 54.0374 116.814 53.642 116.814 53.1251V49.4456C119.538 49.3847 124.738 49.1415 124.986 49.1415C125.419 49.1111 125.79 48.7765 125.821 48.3204C125.852 48.0771 126.162 42.9684 126.255 40.2619H129.814C130.31 40.2619 130.743 39.897 130.743 39.4409C130.774 38.9543 130.371 38.5286 129.845 38.5286H126.224C126.162 35.8526 125.821 30.7134 125.79 30.4701C125.76 30.0444 125.388 29.6795 124.955 29.6491C124.707 29.6491 119.507 29.3754 116.752 29.3146V25.6654C116.752 25.1789 116.35 24.7836 115.824 24.7836C115.452 24.8444 115.081 25.3005 115.081 25.7567ZM124.15 31.3824C124.243 32.9333 124.46 36.4912 124.521 38.559H120.095C119.6 38.559 119.167 38.9239 119.167 39.3801C119.136 39.8666 119.538 40.2923 120.064 40.2923H124.552C124.49 42.3602 124.274 45.8877 124.181 47.4385C122.571 47.4994 118.981 47.6818 116.876 47.7122V43.4853C116.876 42.9988 116.505 42.573 116.04 42.573C115.545 42.5426 115.112 42.938 115.112 43.4549V47.7426C113.007 47.7122 109.386 47.5298 107.807 47.4689C107.683 45.9181 107.374 42.3602 107.312 40.3228H111.862C112.357 40.3228 112.79 39.9578 112.79 39.5017C112.821 39.0151 112.419 38.5894 111.893 38.5894H107.281C107.374 36.5216 107.652 32.9637 107.776 31.4128C109.355 31.3216 112.976 31.1695 115.081 31.1087V35.366C115.081 35.8526 115.452 36.2783 115.917 36.2783C116.412 36.3087 116.845 35.9134 116.845 35.3964V31.0783C118.95 31.1391 122.571 31.3216 124.15 31.3824Z" fill="#FCFCFF"/>
<path d="M113.905 38.2549L114.059 41.083C114.09 41.5392 114.462 41.9041 114.957 41.9041H117.309C117.805 41.9041 118.207 41.5087 118.207 41.0222V38.1941C118.207 37.7076 117.805 37.3123 117.309 37.3123H114.802C114.555 37.3123 114.338 37.4035 114.152 37.5859C113.967 37.7988 113.874 38.0117 113.905 38.2549ZM116.412 39.076V40.1707H115.793L115.731 39.076H116.412Z" fill="#FCFCFF"/>
<path d="M113.286 36.2783V33.4502C113.286 32.9637 112.883 32.5684 112.388 32.5684H109.881C109.633 32.5684 109.417 32.6596 109.231 32.842C109.076 33.0245 108.983 33.2374 108.983 33.4806L109.138 36.3087C109.169 36.7649 109.54 37.1298 110.036 37.1298H112.388C112.883 37.1298 113.286 36.7344 113.286 36.2783ZM110.902 35.3964L110.84 34.3017H111.521V35.3964H110.902Z" fill="#FCFCFF"/>
<path d="M119.786 37.1602H122.138C122.633 37.1602 123.036 36.7649 123.036 36.2783V33.4502C123.036 32.9637 122.633 32.5684 122.138 32.5684H119.631C119.383 32.5684 119.167 32.6596 118.981 32.842C118.826 33.0245 118.733 33.2374 118.733 33.4806L118.888 36.3087C118.919 36.7953 119.321 37.1602 119.786 37.1602ZM120.621 35.3964L120.56 34.3017H121.24V35.3964H120.621C120.621 35.4268 120.621 35.4268 120.621 35.3964Z" fill="#FCFCFF"/>
<path d="M118.764 42.7556L118.919 45.5836C118.95 46.0398 119.321 46.4047 119.817 46.4047H122.169C122.664 46.4047 123.067 46.0094 123.067 45.5228V42.6947C123.067 42.2082 122.664 41.8129 122.169 41.8129H119.662C119.414 41.8129 119.198 41.9041 119.012 42.0865C118.826 42.2994 118.733 42.5427 118.764 42.7556ZM121.271 43.607V44.7018H120.652L120.59 43.607H121.271Z" fill="#FCFCFF"/>
<path d="M112.109 41.8433H109.757C109.262 41.8433 108.859 42.2386 108.859 42.7251V45.5532C108.859 46.0398 109.262 46.4351 109.757 46.4351H112.264C112.512 46.4351 112.729 46.3438 112.914 46.1614C113.069 46.0093 113.162 45.7965 113.162 45.5532V45.5228L113.007 42.6947C112.976 42.2082 112.605 41.8433 112.109 41.8433ZM111.305 43.607L111.367 44.7017H110.686V43.607H111.305Z" fill="#FCFCFF"/>
<path d="M115.081 0.94269V4.53099C112.357 4.59181 107.126 4.8655 106.879 4.8655C106.445 4.89591 106.074 5.23041 106.043 5.65614C106.012 5.89942 105.579 11.0386 105.455 13.745H102.019C101.524 13.745 101.09 14.1099 101.09 14.5661C101.06 15.0526 101.462 15.4784 101.988 15.4784H105.455C105.548 18.1848 106.012 23.324 106.043 23.5673C106.074 23.993 106.445 24.3275 106.879 24.3579C107.126 24.3579 112.326 24.6012 115.05 24.662V28.2807C115.05 28.7673 115.421 29.193 115.886 29.193C116.381 29.2234 116.814 28.8281 116.814 28.3111V24.662C119.538 24.6012 124.738 24.3579 124.986 24.3579C125.419 24.3275 125.79 23.993 125.821 23.5368C125.852 23.2936 126.162 18.1848 126.255 15.4784H129.814C130.31 15.4784 130.743 15.1135 130.743 14.6573C130.774 14.1708 130.371 13.745 129.845 13.745H126.224C126.162 11.069 125.821 5.92982 125.79 5.68655C125.76 5.26082 125.388 4.89591 124.955 4.8655C124.707 4.8655 119.507 4.59181 116.752 4.53099V0.881871C116.752 0.395322 116.35 0 115.824 0C115.452 0.0304094 115.081 0.45614 115.081 0.94269ZM124.15 6.56842C124.243 8.1193 124.46 11.6772 124.521 13.745H120.095C119.6 13.745 119.167 14.1099 119.167 14.5661C119.136 15.0526 119.538 15.4784 120.064 15.4784H124.552C124.49 17.5462 124.274 21.0737 124.181 22.6246C122.571 22.6854 118.981 22.8678 116.876 22.8982V18.7018C116.876 18.2152 116.505 17.7895 116.04 17.7895C115.545 17.7591 115.112 18.1544 115.112 18.6713V22.9591C113.007 22.9287 109.386 22.7462 107.807 22.6854C107.683 21.1345 107.374 17.5766 107.312 15.5392H111.862C112.357 15.5392 112.79 15.1743 112.79 14.7181C112.821 14.2316 112.419 13.8058 111.893 13.8058H107.281C107.374 11.738 107.652 8.18012 107.776 6.62924C109.355 6.53801 112.976 6.38596 115.081 6.32515V10.5825C115.081 11.069 115.452 11.4947 115.917 11.4947C116.412 11.5251 116.845 11.1298 116.845 10.6129V6.26433C118.95 6.32515 122.571 6.47719 124.15 6.56842Z" fill="#FCFCFF"/>
<path d="M113.905 13.441L114.059 16.2691C114.09 16.7252 114.462 17.0901 114.957 17.0901H117.309C117.805 17.0901 118.207 16.6948 118.207 16.2082V13.3802C118.207 12.8936 117.805 12.4983 117.309 12.4983H114.802C114.555 12.4983 114.338 12.5895 114.152 12.772C113.967 12.9544 113.874 13.1977 113.905 13.441ZM116.412 14.262V15.3568H115.793L115.731 14.262H116.412Z" fill="#FCFCFF"/>
<path d="M113.286 11.4339V8.60587C113.286 8.11932 112.883 7.724 112.388 7.724H109.881C109.633 7.724 109.417 7.81523 109.231 7.99768C109.076 8.18014 108.983 8.393 108.983 8.63628L109.138 11.4644C109.169 11.9205 109.54 12.2854 110.036 12.2854H112.388C112.883 12.3158 113.286 11.9205 113.286 11.4339ZM110.902 10.5825L110.84 9.48774H111.521V10.5825H110.902Z" fill="#FCFCFF"/>
<path d="M119.786 12.3158H122.138C122.633 12.3158 123.036 11.9205 123.036 11.4339V8.60587C123.036 8.11932 122.633 7.724 122.138 7.724H119.631C119.383 7.724 119.167 7.81523 118.981 7.99768C118.826 8.18014 118.733 8.393 118.733 8.63628L118.888 11.4644C118.919 11.9509 119.321 12.3158 119.786 12.3158ZM120.621 10.5825L120.56 9.48774H121.24V10.5825H120.621Z" fill="#FCFCFF"/>
<path d="M118.764 17.9415L118.919 20.7695C118.95 21.2257 119.321 21.5906 119.817 21.5906H122.169C122.664 21.5906 123.067 21.1953 123.067 20.7087V17.8806C123.067 17.3941 122.664 16.9988 122.169 16.9988H119.662C119.414 16.9988 119.198 17.09 119.012 17.2725C118.826 17.4853 118.733 17.6982 118.764 17.9415ZM121.271 18.7929V19.8877H120.652L120.59 18.7929H121.271C121.271 18.7625 121.271 18.7625 121.271 18.7929Z" fill="#FCFCFF"/>
<path d="M112.109 17.0293H109.757C109.262 17.0293 108.859 17.4246 108.859 17.9112V20.7392C108.859 21.2258 109.262 21.6211 109.757 21.6211H112.264C112.512 21.6211 112.729 21.5299 112.914 21.3474C113.069 21.1954 113.162 20.9825 113.162 20.7392V20.7088L113.007 17.8808C112.976 17.3942 112.605 17.0293 112.109 17.0293ZM111.305 18.793L111.367 19.8878H110.686V18.793H111.305C111.305 18.7626 111.274 18.7626 111.305 18.793Z" fill="#FCFCFF"/>
<path d="M90.2262 0.912281V4.50058C87.5024 4.5614 82.2715 4.83509 82.0238 4.83509C81.5905 4.8655 81.2191 5.2 81.1881 5.62573C81.1572 5.86901 80.7238 11.0082 80.6 13.7146H77.1643C76.6691 13.7146 76.2357 14.0795 76.2357 14.5357C76.2048 15.0222 76.6072 15.448 77.1334 15.448H80.6C80.6929 18.1544 81.1572 23.2936 81.1881 23.5368C81.2191 23.9626 81.5905 24.2971 82.0238 24.3275C82.2715 24.3275 87.4715 24.5708 90.1953 24.6316V28.2807C90.1953 28.7673 90.5667 29.193 91.031 29.193C91.5262 29.2234 91.9596 28.8281 91.9596 28.3111V24.662C94.6834 24.6012 99.8834 24.3579 100.131 24.3579C100.564 24.3275 100.936 23.993 100.967 23.5368C100.998 23.2936 101.307 18.1848 101.4 15.4784H104.96C105.455 15.4784 105.888 15.1135 105.888 14.6573C105.919 14.1708 105.517 13.745 104.991 13.745H101.369C101.307 11.069 100.967 5.92982 100.936 5.68655C100.905 5.26082 100.533 4.89591 100.1 4.8655C99.8524 4.8655 94.6524 4.59181 91.8976 4.53099V0.881871C91.8976 0.395322 91.4953 0 90.9691 0C90.5976 0.0304094 90.2262 0.45614 90.2262 0.912281ZM99.2953 6.56842C99.3881 8.1193 99.6048 11.6772 99.6667 13.745H95.2405C94.7453 13.745 94.3119 14.1099 94.3119 14.5661C94.281 15.0526 94.6834 15.4784 95.2096 15.4784H99.6667C99.6048 17.5462 99.3881 21.0737 99.2953 22.6246C97.6857 22.6854 94.0953 22.8678 91.9905 22.8982V18.6713C91.9905 18.1848 91.6191 17.7591 91.1548 17.7591C90.6596 17.7287 90.2262 18.124 90.2262 18.6409V22.9287C88.1215 22.8982 84.5 22.7158 82.9215 22.655C82.7976 21.1041 82.4881 17.5462 82.4262 15.5088H86.9762C87.4715 15.5088 87.9048 15.1439 87.9048 14.6877C87.9357 14.2012 87.5334 13.7754 87.0072 13.7754H82.3953C82.4881 11.7076 82.7667 8.14971 82.8905 6.59883C84.4691 6.5076 88.0905 6.35556 90.1953 6.29474V10.552C90.1953 11.0386 90.5667 11.4643 91.031 11.4643C91.5262 11.4947 91.9596 11.0994 91.9596 10.5825V6.26433C94.0953 6.29474 97.7167 6.47719 99.2953 6.56842Z" fill="#FCFCFF"/>
<path d="M89.0501 13.4106L89.2048 16.2386C89.2358 16.6948 89.6072 17.0597 90.1024 17.0597H92.4548C92.9501 17.0597 93.3524 16.6644 93.3524 16.1778V13.3802C93.3524 12.8936 92.9501 12.4983 92.4548 12.4983H89.9477C89.7001 12.4983 89.4834 12.5895 89.2977 12.772C89.112 12.9544 89.0191 13.1977 89.0501 13.4106ZM91.5572 14.262V15.3568H90.9381L90.8762 14.262H91.5572Z" fill="#FCFCFF"/>
<path d="M88.431 11.4339V8.60587C88.431 8.11932 88.0286 7.724 87.5334 7.724H85.0262C84.7786 7.724 84.5619 7.81523 84.3762 7.99768C84.2215 8.18014 84.1286 8.393 84.1286 8.63628L84.2834 11.4644C84.3143 11.9205 84.6858 12.2854 85.181 12.2854H87.5334C88.0596 12.3158 88.431 11.9205 88.431 11.4339ZM86.0477 10.5521L85.9857 9.45733H86.6667V10.5521H86.0477Z" fill="#FCFCFF"/>
<path d="M94.931 12.3158H97.2834C97.7786 12.3158 98.181 11.9205 98.181 11.4339V8.60587C98.181 8.11932 97.7786 7.724 97.2834 7.724H94.7762C94.5286 7.724 94.3119 7.81523 94.1262 7.99768C93.9715 8.18014 93.8786 8.393 93.8786 8.63628L94.0334 11.4644C94.0643 11.9509 94.4667 12.3158 94.931 12.3158ZM95.7667 10.5825L95.7048 9.48774H96.3857V10.5825H95.7667Z" fill="#FCFCFF"/>
<path d="M93.9096 17.9415L94.0643 20.7695C94.0953 21.2257 94.4667 21.5906 94.9619 21.5906H97.3143C97.8096 21.5906 98.2119 21.1953 98.2119 20.7087V17.8806C98.2119 17.3941 97.8096 16.9988 97.3143 16.9988H94.8072C94.5595 16.9988 94.3429 17.09 94.1572 17.2725C93.9715 17.4549 93.8786 17.6982 93.9096 17.9415ZM96.4167 18.7625V19.8573H95.7976L95.7357 18.7625H96.4167Z" fill="#FCFCFF"/>
<path d="M87.2858 17.0293H84.9334C84.4381 17.0293 84.0358 17.4246 84.0358 17.9112V20.7392C84.0358 21.2258 84.4381 21.6211 84.9334 21.6211H87.4405C87.6881 21.6211 87.9048 21.5299 88.0905 21.3474C88.2453 21.1954 88.3381 20.9825 88.3381 20.7392V20.7088L88.1834 17.8808C88.1524 17.3942 87.7501 17.0293 87.2858 17.0293ZM86.45 18.7626L86.512 19.8574H85.831V18.7626H86.45Z" fill="#FCFCFF"/>
<path d="M63.9786 49.7193V53.3076C61.2548 53.3684 56.0238 53.6421 55.7762 53.6421C55.3429 53.6725 54.9715 54.007 54.9405 54.4328C54.9096 54.676 54.4762 59.8152 54.3524 62.5217H50.9167C50.4215 62.5217 49.9881 62.8866 49.9881 63.3427C49.9572 63.8293 50.3595 64.255 50.8857 64.255H54.3524C54.4453 66.9614 54.9096 72.1006 54.9405 72.3439C54.9715 72.7696 55.3429 73.1041 55.7762 73.1345C56.0238 73.1345 61.2238 73.3778 63.9476 73.4386V77.0573C63.9476 77.5439 64.3191 77.9696 64.7834 77.9696C65.2786 78 65.7119 77.6047 65.7119 77.0877V73.4082C68.4357 73.3474 73.6357 73.1041 73.8834 73.1041C74.3167 73.0737 74.6881 72.7392 74.7191 72.2831C74.75 72.0398 75.0596 66.931 75.1524 64.2246H78.7119C79.2072 64.2246 79.6405 63.8597 79.6405 63.4035C79.6715 62.917 79.2691 62.4912 78.7429 62.4912H75.2143C75.1524 59.8152 74.8119 54.676 74.781 54.4328C74.75 54.007 74.3786 53.6421 73.9453 53.6117C73.6976 53.6117 68.4976 53.338 65.7429 53.2772V49.6281C65.7429 49.1415 65.3405 48.7462 64.8143 48.7462C64.35 48.807 63.9786 49.2328 63.9786 49.7193ZM73.0786 55.345C73.1715 56.8959 73.3881 60.4538 73.45 62.5217H69.0238C68.5286 62.5217 68.0953 62.8866 68.0953 63.3427C68.0643 63.8293 68.4667 64.255 68.9929 64.255H73.481C73.4191 66.3228 73.2024 69.8503 73.1096 71.4012C71.5 71.462 67.9096 71.6445 65.8048 71.6749V67.448C65.8048 66.9614 65.4334 66.5357 64.9691 66.5357C64.4738 66.5053 64.0405 66.9006 64.0405 67.4176V71.7053C61.9357 71.6749 58.3143 71.4924 56.7357 71.4316C56.6119 69.8807 56.3024 66.3228 56.2405 64.2854H60.7905C61.2857 64.2854 61.7191 63.9205 61.7191 63.4643C61.75 62.9778 61.3476 62.5521 60.8215 62.5521H56.2096C56.3024 60.4842 56.581 56.9263 56.7048 55.3755C58.2834 55.2842 61.9048 55.1322 64.0096 55.0714V59.3287C64.0096 59.8152 64.381 60.241 64.8453 60.241C65.3405 60.2714 65.7738 59.876 65.7738 59.3591V55.041C67.8786 55.1018 71.4691 55.2538 73.0786 55.345Z" fill="#FCFCFF"/>
<path d="M62.8024 62.2176L62.9572 65.0457C62.9881 65.5018 63.3596 65.8667 63.8548 65.8667H66.2072C66.7024 65.8667 67.1048 65.4714 67.1048 64.9848V62.1568C67.1048 61.6702 66.7024 61.2749 66.2072 61.2749H63.7001C63.4524 61.2749 63.2358 61.3661 63.05 61.5486C62.8953 61.731 62.8024 61.9743 62.8024 62.2176ZM65.3096 63.0386V64.1334H64.6905L64.6286 63.0386H65.3096Z" fill="#FCFCFF"/>
<path d="M62.2143 60.2106V57.3825C62.2143 56.8959 61.8119 56.5006 61.3167 56.5006H58.8095C58.5619 56.5006 58.3453 56.5918 58.1595 56.7743C58.0048 56.9567 57.9119 57.1696 57.9119 57.4129L58.0667 60.241C58.0976 60.6971 58.4691 61.062 58.9643 61.062H61.3167C61.8119 61.0924 62.2143 60.6971 62.2143 60.2106ZM59.8 59.3591L59.7381 58.2644H60.4191V59.3591H59.8Z" fill="#FCFCFF"/>
<path d="M68.7143 61.0924H71.0667C71.5619 61.0924 71.9643 60.6971 71.9643 60.2106V57.3825C71.9643 56.8959 71.5619 56.5006 71.0667 56.5006H68.5595C68.3119 56.5006 68.0953 56.5918 67.9095 56.7743C67.7548 56.9567 67.6619 57.1696 67.6619 57.4129L67.8167 60.241C67.8476 60.7275 68.25 61.0924 68.7143 61.0924ZM69.55 59.3591L69.4881 58.2644H70.1691V59.3591H69.55Z" fill="#FCFCFF"/>
<path d="M67.6619 66.7182L67.8167 69.5463C67.8476 70.0024 68.2191 70.3673 68.7143 70.3673H71.0667C71.5619 70.3673 71.9643 69.972 71.9643 69.4855V66.6574C71.9643 66.1708 71.5619 65.7755 71.0667 65.7755H68.5595C68.3119 65.7755 68.0953 65.8667 67.9095 66.0492C67.7548 66.2621 67.6619 66.4749 67.6619 66.7182ZM70.1691 67.5393V68.634H69.55L69.4881 67.5393H70.1691Z" fill="#FCFCFF"/>
<path d="M61.0381 65.8059H58.6858C58.1905 65.8059 57.7881 66.2012 57.7881 66.6878V69.5159C57.7881 70.0024 58.1905 70.3977 58.6858 70.3977H61.1929C61.4405 70.3977 61.6572 70.3065 61.8429 70.124C61.9977 69.972 62.0905 69.7591 62.0905 69.5159V69.4854L61.9358 66.6574C61.9048 66.1708 61.5024 65.8059 61.0381 65.8059ZM60.2024 67.5392L60.2643 68.634H59.5834V67.5392H60.2024Z" fill="#FCFCFF"/>
<path d="M38.8143 49.7193V53.3076C36.0905 53.3684 30.8595 53.6421 30.6119 53.6421C30.1786 53.6725 29.8071 54.007 29.7762 54.4328C29.7452 54.676 29.3119 59.8152 29.1881 62.5217H25.7833C25.2881 62.5217 24.8548 62.8866 24.8548 63.3427C24.8238 63.8293 25.2262 64.255 25.7524 64.255H29.219C29.3119 66.9614 29.7762 72.1006 29.8071 72.3439C29.8381 72.7696 30.2095 73.1041 30.6429 73.1345C30.8905 73.1345 36.0905 73.3778 38.8143 73.4386V77.0573C38.8143 77.5439 39.1857 77.9696 39.65 77.9696C40.1452 78 40.5786 77.6047 40.5786 77.0877V73.4082C43.3024 73.3474 48.5024 73.1041 48.75 73.1041C49.1833 73.0737 49.5548 72.7392 49.5857 72.2831C49.6167 72.0398 49.9262 66.931 50.019 64.2246H53.5786C54.0738 64.2246 54.5071 63.8597 54.5071 63.4035C54.5381 62.917 54.1357 62.4912 53.6095 62.4912H49.9881C49.9262 59.8152 49.5857 54.676 49.5548 54.4328C49.5238 54.007 49.1524 53.6421 48.719 53.6117C48.4714 53.6117 43.2714 53.338 40.5167 53.2772V49.6281C40.5167 49.1415 40.1143 48.7462 39.5881 48.7462C39.1857 48.807 38.8143 49.2328 38.8143 49.7193ZM47.9143 55.345C48.0071 56.8959 48.2238 60.4538 48.2857 62.5217H43.8595C43.3643 62.5217 42.9309 62.8866 42.9309 63.3427C42.9 63.8293 43.3024 64.255 43.8286 64.255H48.2857C48.2238 66.3228 48.0071 69.8503 47.9143 71.4012C46.3048 71.462 42.7143 71.6445 40.6095 71.6749V67.448C40.6095 66.9614 40.2381 66.5357 39.7738 66.5357C39.2786 66.5053 38.8452 66.9006 38.8452 67.4176V71.7053C36.7405 71.6749 33.119 71.4924 31.5405 71.4316C31.4167 69.8807 31.1071 66.3228 31.0452 64.2854H35.5952C36.0905 64.2854 36.5238 63.9205 36.5238 63.4643C36.5548 62.9778 36.1524 62.5521 35.6262 62.5521H31.0143C31.1071 60.4842 31.3857 56.9263 31.5095 55.3755C33.0881 55.2842 36.7095 55.1322 38.8143 55.0714V59.3287C38.8143 59.8152 39.1857 60.241 39.65 60.241C40.1452 60.2714 40.5786 59.876 40.5786 59.3591V55.041C42.7143 55.0714 46.3048 55.2538 47.9143 55.345Z" fill="#FCFCFF"/>
<path d="M37.6381 62.2176L37.7929 65.0457C37.8238 65.5018 38.1953 65.8667 38.6905 65.8667H41.0429C41.5381 65.8667 41.9405 65.4714 41.9405 64.9848V62.1568C41.9405 61.6702 41.5381 61.2749 41.0429 61.2749H38.5357C38.2881 61.2749 38.0715 61.3661 37.8857 61.5486C37.731 61.731 37.6381 61.9743 37.6381 62.2176ZM40.1453 63.0386V64.1334H39.5262L39.4643 63.0386H40.1453Z" fill="#FCFCFF"/>
<path d="M37.05 60.2106V57.3825C37.05 56.8959 36.6476 56.5006 36.1524 56.5006H33.6452C33.3976 56.5006 33.181 56.5918 32.9952 56.7743C32.8405 56.9567 32.7476 57.1696 32.7476 57.4129L32.9024 60.241C32.9333 60.6971 33.3048 61.062 33.8 61.062H36.1524C36.6476 61.0924 37.05 60.6971 37.05 60.2106ZM34.6357 59.3287L34.5738 58.2339H35.2548V59.3287H34.6357C34.6667 59.3591 34.6357 59.3591 34.6357 59.3287Z" fill="#FCFCFF"/>
<path d="M43.55 61.0924H45.9024C46.3976 61.0924 46.8 60.6971 46.8 60.2106V57.3825C46.8 56.8959 46.3976 56.5006 45.9024 56.5006H43.3952C43.1476 56.5006 42.931 56.5918 42.7452 56.7743C42.5905 56.9567 42.4976 57.1696 42.4976 57.4129L42.6524 60.241C42.6833 60.7275 43.0857 61.0924 43.55 61.0924ZM44.3857 59.3591L44.3238 58.2644H45.0048V59.3591H44.3857Z" fill="#FCFCFF"/>
<path d="M42.4976 66.7182L42.6524 69.5463C42.6833 70.0024 43.0548 70.3673 43.55 70.3673H45.9024C46.3976 70.3673 46.8 69.972 46.8 69.4855V66.6574C46.8 66.1708 46.3976 65.7755 45.9024 65.7755H43.3952C43.1476 65.7755 42.931 65.8667 42.7452 66.0492C42.5905 66.2317 42.4976 66.4749 42.4976 66.7182ZM45.0048 67.5393V68.634H44.3857L44.3238 67.5393H45.0048Z" fill="#FCFCFF"/>
<path d="M35.8738 65.8059H33.5214C33.0262 65.8059 32.6238 66.2012 32.6238 66.6878V69.5159C32.6238 70.0024 33.0262 70.3977 33.5214 70.3977H36.0285C36.2762 70.3977 36.4928 70.3065 36.6785 70.124C36.8333 69.972 36.9262 69.7591 36.9262 69.5159V69.4854L36.7714 66.6574C36.7404 66.1708 36.3381 65.8059 35.8738 65.8059ZM35.0381 67.5392L35.1 68.634H34.419V67.5392H35.0381Z" fill="#FCFCFF"/>
<path d="M13.9905 49.6889V53.2772C11.2667 53.338 6.03574 53.6117 5.78812 53.6117C5.35479 53.6421 4.98336 53.9766 4.95241 54.4024C4.92145 54.6456 4.48812 59.7848 4.36431 62.4913H0.928596C0.433358 62.4913 2.45909e-05 62.8562 2.45909e-05 63.3123C-0.0309278 63.7989 0.371453 64.2246 0.897644 64.2246H4.36431C4.45717 66.931 4.92145 72.0702 4.95241 72.3135C4.98336 72.7392 5.35479 73.0737 5.78812 73.1041C6.03574 73.1041 11.2357 73.3474 13.9595 73.4082V77.0269C13.9595 77.5135 14.331 77.9392 14.7953 77.9392C15.2905 77.9696 15.7238 77.5743 15.7238 77.0573V73.3778C18.4476 73.317 23.6476 73.0737 23.8953 73.0737C24.3286 73.0433 24.7 72.7088 24.731 72.2527C24.7619 72.0094 25.0715 66.9006 25.1643 64.1942H28.7857C29.281 64.1942 29.7143 63.8293 29.7143 63.3731C29.7453 62.8866 29.3429 62.4608 28.8167 62.4608H25.2262C25.1643 59.7848 24.8238 54.6456 24.7929 54.4024C24.7619 53.9766 24.3905 53.6117 23.9572 53.5813C23.7095 53.5813 18.5095 53.3076 15.7548 53.2468V49.5977C15.7548 49.1111 15.3524 48.7158 14.8262 48.7158C14.331 48.7766 13.9905 49.2328 13.9905 49.6889ZM23.0595 55.3146C23.1524 56.8655 23.3691 60.4234 23.431 62.4913H19.0048C18.5095 62.4913 18.0762 62.8562 18.0762 63.3123C18.0453 63.7989 18.4476 64.2246 18.9738 64.2246H23.4619C23.4 66.2924 23.1834 69.8199 23.0905 71.3708C21.481 71.4316 17.8905 71.6141 15.7857 71.6445V67.4176C15.7857 66.931 15.4143 66.5053 14.95 66.5053C14.4548 66.4749 14.0215 66.8702 14.0215 67.3872V71.6749C11.9167 71.6445 8.29526 71.462 6.71669 71.4012C6.59288 69.8503 6.28336 66.2924 6.22145 64.255H10.7715C11.2667 64.255 11.7 63.8901 11.7 63.434C11.731 62.9474 11.3286 62.5217 10.8024 62.5217H6.15955C6.25241 60.4538 6.53098 56.8959 6.65479 55.3451C8.23336 55.2538 11.8548 55.1018 13.9595 55.041V59.2983C13.9595 59.7848 14.331 60.2106 14.7953 60.2106C15.2905 60.241 15.7238 59.8456 15.7238 59.3287V55.041C17.8595 55.0714 21.45 55.2234 23.0595 55.3146Z" fill="#FCFCFF"/>
<path d="M12.7834 62.1872L12.9381 65.0153C12.9691 65.4714 13.3405 65.8363 13.8358 65.8363H16.1881C16.6834 65.8363 17.0858 65.441 17.0858 64.9545V62.1264C17.0858 61.6398 16.6834 61.2445 16.1881 61.2445H13.681C13.4334 61.2445 13.2167 61.3357 13.031 61.5182C12.8762 61.7311 12.7834 61.9439 12.7834 62.1872ZM15.2905 63.0083V64.103H14.6715L14.6096 63.0083H15.2905Z" fill="#FCFCFF"/>
<path d="M12.1953 60.1802V57.3521C12.1953 56.8655 11.7929 56.4702 11.2976 56.4702H8.7905C8.54288 56.4702 8.32622 56.5614 8.1405 56.7439C7.98574 56.9264 7.89288 57.1392 7.89288 57.3825L8.04765 60.2106C8.0786 60.6667 8.45003 61.0316 8.94526 61.0316H11.2976C11.7929 61.062 12.1953 60.6667 12.1953 60.1802ZM9.78098 59.3287L9.71907 58.234H10.4V59.3287H9.78098Z" fill="#FCFCFF"/>
<path d="M18.6953 61.0924H21.0476C21.5429 61.0924 21.9453 60.6971 21.9453 60.2106V57.3825C21.9453 56.8959 21.5429 56.5006 21.0476 56.5006H18.5405C18.2929 56.5006 18.0762 56.5918 17.8905 56.7743C17.7357 56.9567 17.6429 57.1696 17.6429 57.4129L17.7976 60.241C17.8286 60.7275 18.231 61.0924 18.6953 61.0924ZM19.531 59.3287L19.4691 58.2339H20.15V59.3287H19.531Z" fill="#FCFCFF"/>
<path d="M17.6738 66.6878L17.8286 69.5159C17.8596 69.972 18.231 70.3369 18.7262 70.3369H21.0476C21.5429 70.3369 21.9453 69.9416 21.9453 69.4551V66.627C21.9453 66.1404 21.5429 65.7451 21.0476 65.7451H18.5405C18.2929 65.7451 18.0762 65.8363 17.8905 66.0188C17.7357 66.2317 17.6429 66.4749 17.6738 66.6878ZM20.15 67.5393V68.634H19.531L19.4691 67.5393H20.15Z" fill="#FCFCFF"/>
<path d="M11.019 65.7755H8.66666C8.17142 65.7755 7.76904 66.1708 7.76904 66.6574V69.4855C7.76904 69.972 8.17142 70.3673 8.66666 70.3673H11.1738C11.4214 70.3673 11.6381 70.2761 11.8238 70.0936C11.9786 69.9416 12.0714 69.7287 12.0714 69.4855V69.455L11.9167 66.627C11.8857 66.1404 11.4833 65.7755 11.019 65.7755ZM10.1833 67.5393L10.2452 68.634H9.56428V67.5393H10.1833Z" fill="#FCFCFF"/>
<path d="M140.245 49.7193V53.3076C137.521 53.3684 132.29 53.6421 132.043 53.6421C131.61 53.6725 131.238 54.007 131.207 54.4328C131.176 54.676 130.743 59.8152 130.619 62.5217H127.214C126.719 62.5217 126.286 62.8866 126.286 63.3427C126.255 63.8293 126.657 64.255 127.183 64.255H130.619C130.712 66.9614 131.176 72.1006 131.207 72.3439C131.238 72.7696 131.61 73.1041 132.043 73.1345C132.29 73.1345 137.49 73.3778 140.214 73.4386V77.0573C140.214 77.5439 140.586 77.9696 141.05 77.9696C141.545 78 141.979 77.6047 141.979 77.0877V73.4082C144.702 73.3474 149.902 73.1041 150.15 73.1041C150.583 73.0737 150.955 72.7392 150.986 72.2831C151.017 72.0398 151.326 66.931 151.419 64.2246H154.979C155.474 64.2246 155.907 63.8597 155.907 63.4035C155.938 62.917 155.536 62.4912 155.01 62.4912H151.388C151.326 59.8152 150.986 54.676 150.955 54.4328C150.924 54.007 150.552 53.6421 150.119 53.6117C149.871 53.6117 144.671 53.338 141.917 53.2772V49.6281C141.917 49.1415 141.514 48.7462 140.988 48.7462C140.617 48.807 140.245 49.2328 140.245 49.7193ZM149.314 55.345C149.407 56.8959 149.624 60.4538 149.686 62.5217H145.26C144.764 62.5217 144.331 62.8866 144.331 63.3427C144.3 63.8293 144.702 64.255 145.229 64.255H149.717C149.655 66.3228 149.438 69.8503 149.345 71.4012C147.736 71.462 144.145 71.6445 142.04 71.6749V67.448C142.04 66.9614 141.669 66.5357 141.205 66.5357C140.71 66.5053 140.276 66.9006 140.276 67.4176V71.7053C138.171 71.6749 134.55 71.4924 132.971 71.4316C132.848 69.8807 132.538 66.3228 132.476 64.2854H137.026C137.521 64.2854 137.955 63.9205 137.955 63.4643C137.986 62.9778 137.583 62.5521 137.057 62.5521H132.445C132.538 60.4842 132.817 56.9263 132.94 55.3755C134.519 55.2842 138.14 55.1322 140.245 55.0714V59.3287C140.245 59.8152 140.617 60.241 141.081 60.241C141.576 60.2714 142.01 59.876 142.01 59.3591V55.041C144.114 55.1018 147.736 55.2538 149.314 55.345Z" fill="#FCFCFF"/>
<path d="M139.069 62.2176L139.224 65.0457C139.255 65.5018 139.626 65.8667 140.121 65.8667H142.474C142.969 65.8667 143.371 65.4714 143.371 64.9848V62.1568C143.371 61.6702 142.969 61.2749 142.474 61.2749H139.967C139.719 61.2749 139.502 61.3661 139.317 61.5486C139.131 61.731 139.038 61.9743 139.069 62.2176ZM141.576 63.0386V64.1334H140.957L140.895 63.0386H141.576Z" fill="#FCFCFF"/>
<path d="M138.45 60.2106V57.3825C138.45 56.8959 138.048 56.5006 137.552 56.5006H135.045C134.798 56.5006 134.581 56.5918 134.395 56.7743C134.241 56.9567 134.148 57.1696 134.148 57.4129L134.302 60.241C134.333 60.6971 134.705 61.062 135.2 61.062H137.552C138.048 61.0924 138.45 60.6971 138.45 60.2106ZM136.067 59.3591L136.005 58.2644H136.686V59.3591H136.067Z" fill="#FCFCFF"/>
<path d="M144.95 61.0924H147.302C147.798 61.0924 148.2 60.6971 148.2 60.2106V57.3825C148.2 56.8959 147.798 56.5006 147.302 56.5006H144.795C144.548 56.5006 144.331 56.5918 144.145 56.7743C143.991 56.9567 143.898 57.1696 143.898 57.4129L144.052 60.241C144.083 60.7275 144.486 61.0924 144.95 61.0924ZM145.786 59.3591L145.724 58.2644H146.405V59.3591H145.786Z" fill="#FCFCFF"/>
<path d="M143.929 66.7182L144.083 69.5463C144.114 70.0024 144.486 70.3673 144.981 70.3673H147.333C147.829 70.3673 148.231 69.972 148.231 69.4855V66.6574C148.231 66.1708 147.829 65.7755 147.333 65.7755H144.826C144.579 65.7755 144.362 65.8667 144.176 66.0492C143.99 66.2621 143.898 66.4749 143.929 66.7182ZM146.436 67.5393V68.634H145.817L145.755 67.5393H146.436Z" fill="#FCFCFF"/>
<path d="M137.274 65.8059H134.952C134.457 65.8059 134.055 66.2012 134.055 66.6878V69.5159C134.055 70.0024 134.457 70.3977 134.952 70.3977H137.46C137.707 70.3977 137.924 70.3065 138.11 70.124C138.264 69.972 138.357 69.7591 138.357 69.5159V69.4854L138.202 66.6574C138.141 66.1708 137.769 65.8059 137.274 65.8059ZM136.469 67.5392L136.531 68.634H135.85V67.5392H136.469Z" fill="#FCFCFF"/>
<path d="M115.081 49.7193V53.3076C112.357 53.3684 107.126 53.6421 106.879 53.6421C106.445 53.6725 106.074 54.007 106.043 54.4328C106.012 54.676 105.579 59.8152 105.455 62.5217H102.019C101.524 62.5217 101.09 62.8866 101.09 63.3427C101.06 63.8293 101.462 64.255 101.988 64.255H105.455C105.548 66.9614 106.012 72.1006 106.043 72.3439C106.074 72.7696 106.445 73.1041 106.879 73.1345C107.126 73.1345 112.326 73.3778 115.05 73.4386V77.0573C115.05 77.5439 115.421 77.9696 115.886 77.9696C116.381 78 116.814 77.6047 116.814 77.0877V73.4082C119.538 73.3474 124.738 73.1041 124.986 73.1041C125.419 73.0737 125.79 72.7392 125.821 72.2831C125.852 72.0398 126.162 66.931 126.255 64.2246H129.814C130.31 64.2246 130.743 63.8597 130.743 63.4035C130.774 62.917 130.371 62.4912 129.845 62.4912H126.224C126.162 59.8152 125.821 54.676 125.79 54.4328C125.76 54.007 125.388 53.6421 124.955 53.6117C124.707 53.6117 119.507 53.338 116.752 53.2772V49.6281C116.752 49.1415 116.35 48.7462 115.824 48.7462C115.452 48.807 115.081 49.2328 115.081 49.7193ZM124.15 55.345C124.243 56.8959 124.46 60.4538 124.521 62.5217H120.095C119.6 62.5217 119.167 62.8866 119.167 63.3427C119.136 63.8293 119.538 64.255 120.064 64.255H124.552C124.49 66.3228 124.274 69.8503 124.181 71.4012C122.571 71.462 118.981 71.6445 116.876 71.6749V67.448C116.876 66.9614 116.505 66.5357 116.04 66.5357C115.545 66.5053 115.112 66.9006 115.112 67.4176V71.7053C113.007 71.6749 109.386 71.4924 107.807 71.4316C107.683 69.8807 107.374 66.3228 107.312 64.2854H111.862C112.357 64.2854 112.79 63.9205 112.79 63.4643C112.821 62.9778 112.419 62.5521 111.893 62.5521H107.281C107.374 60.4842 107.652 56.9263 107.776 55.3755C109.355 55.2842 112.976 55.1322 115.081 55.0714V59.3287C115.081 59.8152 115.452 60.241 115.917 60.241C116.412 60.2714 116.845 59.876 116.845 59.3591V55.041C118.95 55.0714 122.571 55.2538 124.15 55.345Z" fill="#FCFCFF"/>
<path d="M113.905 62.2176L114.059 65.0457C114.09 65.5018 114.462 65.8667 114.957 65.8667H117.309C117.805 65.8667 118.207 65.4714 118.207 64.9848V62.1568C118.207 61.6702 117.805 61.2749 117.309 61.2749H114.802C114.555 61.2749 114.338 61.3661 114.152 61.5486C113.967 61.731 113.874 61.9743 113.905 62.2176ZM116.412 63.0386V64.1334H115.793L115.731 63.0386H116.412Z" fill="#FCFCFF"/>
<path d="M113.286 60.2106V57.3825C113.286 56.8959 112.883 56.5006 112.388 56.5006H109.881C109.633 56.5006 109.417 56.5918 109.231 56.7743C109.076 56.9567 108.983 57.1696 108.983 57.4129L109.138 60.241C109.169 60.6971 109.54 61.062 110.036 61.062H112.388C112.883 61.0924 113.286 60.6971 113.286 60.2106ZM110.902 59.3287L110.84 58.2339H111.521V59.3287H110.902C110.902 59.3591 110.902 59.3591 110.902 59.3287Z" fill="#FCFCFF"/>
<path d="M119.786 61.0924H122.138C122.633 61.0924 123.036 60.6971 123.036 60.2106V57.3825C123.036 56.8959 122.633 56.5006 122.138 56.5006H119.631C119.383 56.5006 119.167 56.5918 118.981 56.7743C118.826 56.9567 118.733 57.1696 118.733 57.4129L118.888 60.241C118.919 60.7275 119.321 61.0924 119.786 61.0924ZM120.621 59.3591L120.56 58.2644H121.24V59.3591H120.621Z" fill="#FCFCFF"/>
<path d="M118.764 66.7182L118.919 69.5463C118.95 70.0024 119.321 70.3673 119.817 70.3673H122.169C122.664 70.3673 123.067 69.972 123.067 69.4855V66.6574C123.067 66.1708 122.664 65.7755 122.169 65.7755H119.662C119.414 65.7755 119.198 65.8667 119.012 66.0492C118.826 66.2317 118.733 66.4749 118.764 66.7182ZM121.271 67.5393V68.634H120.652L120.59 67.5393H121.271Z" fill="#FCFCFF"/>
<path d="M112.109 65.8059H109.757C109.262 65.8059 108.859 66.2012 108.859 66.6878V69.5159C108.859 70.0024 109.262 70.3977 109.757 70.3977H112.264C112.512 70.3977 112.729 70.3065 112.914 70.124C113.069 69.972 113.162 69.7591 113.162 69.5159V69.4854L113.007 66.6574C112.976 66.1708 112.605 65.8059 112.109 65.8059ZM111.305 67.5392L111.367 68.634H110.686V67.5392H111.305Z" fill="#FCFCFF"/>
<path d="M90.2262 49.6889V53.2772C87.5024 53.338 82.2715 53.6117 82.0238 53.6117C81.5905 53.6421 81.2191 53.9766 81.1881 54.4024C81.1572 54.6456 80.7238 59.7848 80.6 62.4913H77.1643C76.6691 62.4913 76.2357 62.8562 76.2357 63.3123C76.2048 63.7989 76.6072 64.2246 77.1334 64.2246H80.6C80.6929 66.931 81.1572 72.0702 81.1881 72.3135C81.2191 72.7392 81.5905 73.0737 82.0238 73.1041C82.2715 73.1041 87.4715 73.3474 90.1953 73.4082V77.0269C90.1953 77.5135 90.5667 77.9392 91.031 77.9392C91.5262 77.9696 91.9596 77.5743 91.9596 77.0573V73.3778C94.6834 73.317 99.8834 73.0737 100.131 73.0737C100.564 73.0433 100.936 72.7088 100.967 72.2527C100.998 72.0094 101.307 66.9006 101.4 64.1942H104.96C105.455 64.1942 105.888 63.8293 105.888 63.3731C105.919 62.8866 105.517 62.4608 104.991 62.4608H101.369C101.307 59.7848 100.967 54.6456 100.936 54.4024C100.905 53.9766 100.533 53.6117 100.1 53.5813C99.8524 53.5813 94.6524 53.3076 91.8976 53.2468V49.5977C91.8976 49.1111 91.4953 48.7158 90.9691 48.7158C90.5976 48.7766 90.2262 49.2328 90.2262 49.6889ZM99.2953 55.3146C99.3881 56.8655 99.6048 60.4234 99.6667 62.4913H95.2405C94.7453 62.4913 94.3119 62.8562 94.3119 63.3123C94.281 63.7989 94.6834 64.2246 95.2096 64.2246H99.6667C99.6048 66.2924 99.3881 69.8199 99.2953 71.3708C97.6857 71.4316 94.0953 71.6141 91.9905 71.6445V67.4176C91.9905 66.931 91.6191 66.5053 91.1548 66.5053C90.6596 66.4749 90.2262 66.8702 90.2262 67.3872V71.6749C88.1215 71.6445 84.5 71.462 82.9215 71.4012C82.7976 69.8503 82.4881 66.2924 82.4262 64.255H86.9762C87.4715 64.255 87.9048 63.8901 87.9048 63.434C87.9357 62.9474 87.5334 62.5217 87.0072 62.5217H82.3953C82.4881 60.4538 82.7667 56.8959 82.8905 55.3451C84.4691 55.2538 88.0905 55.1018 90.1953 55.041V59.2983C90.1953 59.7848 90.5667 60.2106 91.031 60.2106C91.5262 60.241 91.9596 59.8456 91.9596 59.3287V55.041C94.0953 55.0714 97.7167 55.2234 99.2953 55.3146Z" fill="#FCFCFF"/>
<path d="M89.0501 62.1872L89.2048 65.0153C89.2358 65.4714 89.6072 65.8363 90.1024 65.8363H92.4548C92.9501 65.8363 93.3524 65.441 93.3524 64.9545V62.1264C93.3524 61.6398 92.9501 61.2445 92.4548 61.2445H89.9477C89.7001 61.2445 89.4834 61.3357 89.2977 61.5182C89.112 61.7311 89.0191 61.9439 89.0501 62.1872ZM91.5572 63.0083V64.103H90.9381L90.8762 63.0083H91.5572Z" fill="#FCFCFF"/>
<path d="M88.431 60.1802V57.3521C88.431 56.8655 88.0286 56.4702 87.5334 56.4702H85.0262C84.7786 56.4702 84.5619 56.5614 84.3762 56.7439C84.2215 56.9264 84.1286 57.1392 84.1286 57.3825L84.2834 60.2106C84.3143 60.6667 84.6858 61.0316 85.181 61.0316H87.5334C88.0596 61.062 88.431 60.6667 88.431 60.1802ZM86.0477 59.3287L85.9857 58.234H86.6667V59.3287H86.0477Z" fill="#FCFCFF"/>
<path d="M94.931 61.0924H97.2834C97.7786 61.0924 98.181 60.6971 98.181 60.2106V57.3825C98.181 56.8959 97.7786 56.5006 97.2834 56.5006H94.7762C94.5286 56.5006 94.3119 56.5918 94.1262 56.7743C93.9715 56.9567 93.8786 57.1696 93.8786 57.4129L94.0334 60.241C94.0643 60.7275 94.4667 61.0924 94.931 61.0924ZM95.7667 59.3287L95.7048 58.2339H96.3857V59.3287H95.7667Z" fill="#FCFCFF"/>
<path d="M93.9096 66.6878L94.0643 69.5159C94.0953 69.972 94.4667 70.3369 94.9619 70.3369H97.3143C97.8096 70.3369 98.2119 69.9416 98.2119 69.4551V66.627C98.2119 66.1404 97.8096 65.7451 97.3143 65.7451H94.8072C94.5595 65.7451 94.3429 65.8363 94.1572 66.0188C93.9715 66.2317 93.8786 66.4749 93.9096 66.6878ZM96.4167 67.5393V68.634H95.7976L95.7357 67.5393H96.4167Z" fill="#FCFCFF"/>
<path d="M87.2858 65.7755H84.9334C84.4381 65.7755 84.0358 66.1708 84.0358 66.6574V69.4855C84.0358 69.972 84.4381 70.3673 84.9334 70.3673H87.4405C87.6881 70.3673 87.9048 70.2761 88.0905 70.0936C88.2453 69.9416 88.3381 69.7287 88.3381 69.4855V69.455L88.1834 66.627C88.1524 66.1404 87.7501 65.7755 87.2858 65.7755ZM86.45 67.5393L86.512 68.634H85.831V67.5393H86.45Z" fill="#FCFCFF"/>
<path d="M78 31.0784V47.7427" stroke="#FCFCFF" stroke-width="2.18" stroke-miterlimit="10" stroke-linecap="round" stroke-linejoin="round"/>
<path d="M71.0357 37.3427H84.1595" stroke="#FCFCFF" stroke-width="2.18" stroke-miterlimit="10" stroke-linecap="round" stroke-linejoin="round"/>
</g>
<defs>
<clipPath id="clip0_274_1056">
<rect width="156" height="78" fill="white"/>
</clipPath>
</defs>
</svg>
